<svg width="17" height="17" viewBox="0 0 17 17" fill="none" xmlns="http://www.w3.org/2000/svg">
<path d="M8.5 0C3.813 0 0 3.813 0 8.5C0 13.187 3.813 17 8.5 17C13.187 17 17 13.187 17 8.5C17 3.813 13.186 0 8.5 0ZM1.025 9H3.962C4.006 10.024 4.173 11.031 4.475 12H1.872C1.391 11.094 1.096 10.077 1.025 9ZM3.962 8H1.025C1.096 6.923 1.391 5.906 1.872 5H4.472C4.171 5.969 4.005 6.976 3.962 8ZM5.531 5H11.427C11.757 5.965 11.949 6.972 11.996 8H4.962C5.008 6.972 5.201 5.965 5.531 5ZM4.962 9H11.997C11.948 10.028 11.756 11.035 11.425 12H5.534C5.203 11.035 5.01 10.028 4.962 9ZM12.997 9H15.975C15.904 10.077 15.609 11.094 15.128 12H12.484C12.786 11.031 12.953 10.024 12.997 9ZM12.997 8C12.954 6.976 12.788 5.969 12.487 5H15.128C15.608 5.906 15.903 6.923 15.975 8H12.997ZM14.486 4H12.132C11.74 3.045 11.216 2.142 10.582 1.3C12.16 1.757 13.52 2.72 14.486 4ZM9.058 1.028C9.882 1.925 10.542 2.928 11.03 4H5.928C6.415 2.929 7.074 1.927 7.898 1.03C8.097 1.015 8.296 1 8.5 1C8.688 1 8.873 1.015 9.058 1.028ZM6.367 1.313C5.738 2.151 5.216 3.05 4.827 4H2.513C3.468 2.733 4.81 1.776 6.367 1.313ZM2.513 13H4.83C5.221 13.951 5.745 14.851 6.377 15.689C4.816 15.228 3.47 14.27 2.513 13ZM7.91 15.97C7.084 15.073 6.422 14.071 5.932 13H11.026C10.536 14.072 9.874 15.075 9.047 15.972C8.866 15.985 8.684 16 8.5 16C8.3 16 8.105 15.985 7.91 15.97ZM10.571 15.703C11.207 14.861 11.735 13.956 12.128 13H14.486C13.518 14.283 12.154 15.247 10.571 15.703Z" fill="white"/>
</svg>
