<svg width="36" height="33" viewBox="0 0 36 33" fill="none" xmlns="http://www.w3.org/2000/svg">
<path d="M33.3217 1L20.0332 10.8299L22.5109 5.0351L33.3217 1Z" fill="#E17726" stroke="#E17726" stroke-width="0.25" stroke-linecap="round" stroke-linejoin="round"/>
<path d="M2.67915 1L15.8463 10.9108L13.49 5.04521L2.67915 1ZM28.5382 23.7847L24.9986 29.185L32.5733 31.2683L34.7374 23.906L28.5382 23.7847V23.7847ZM1.27344 23.906L3.42751 31.2683L10.9819 29.185L7.46261 23.7847L1.27344 23.906V23.906Z" fill="#E27625" stroke="#E27625" stroke-width="0.25" stroke-linecap="round" stroke-linejoin="round"/>
<path d="M10.5781 14.6627L8.47461 17.8382L15.9582 18.1821L15.7155 10.122L10.5781 14.6728V14.6627ZM25.424 14.6728L20.2057 10.0208L20.0338 18.1821L27.5174 17.8382L25.424 14.6728V14.6728ZM10.9826 29.185L15.5234 27.0006L11.6198 23.9667L10.9826 29.185ZM20.4889 26.9905L24.9993 29.185L24.3925 23.9566L20.4889 26.9905Z" fill="#E27625" stroke="#E27625" stroke-width="0.25" stroke-linecap="round" stroke-linejoin="round"/>
<path d="M24.9971 29.185L20.4867 27.0006L20.8508 29.9334L20.8103 31.1773L24.9971 29.185ZM10.9805 29.185L15.1875 31.1773L15.1571 29.9334L15.5212 27.0006L10.9805 29.185Z" fill="#D5BFB2" stroke="#D5BFB2" stroke-width="0.25" stroke-linecap="round" stroke-linejoin="round"/>
<path d="M15.2594 22.0149L11.5176 20.9227L14.1672 19.7091L15.2695 22.0149H15.2594ZM20.7305 22.0149L21.843 19.699L24.5027 20.9125L20.7305 22.025V22.0149Z" fill="#233447" stroke="#233447" stroke-width="0.25" stroke-linecap="round" stroke-linejoin="round"/>
<path d="M10.9822 29.185L11.6396 23.7847L7.46289 23.906L10.9822 29.185ZM24.3618 23.7847L24.9989 29.185L28.5384 23.906L24.3618 23.7847ZM27.5271 17.8382L20.0435 18.182L20.7312 22.025L21.8436 19.699L24.5033 20.9126L27.5271 17.8382V17.8382ZM11.5182 20.9227L14.1678 19.7091L15.2701 22.0149L15.9679 18.1719L8.48431 17.8382L11.5182 20.9227V20.9227Z" fill="#CC6228" stroke="#CC6228" stroke-width="0.25" stroke-linecap="round" stroke-linejoin="round"/>
<path d="M8.48438 17.8382L11.6194 23.9566L11.5183 20.9227L8.48438 17.8382ZM24.5034 20.9227L24.3821 23.9566L27.5171 17.8382L24.5034 20.9227ZM15.968 18.182L15.2601 22.025L16.1501 26.5556L16.3523 20.5788L15.968 18.182ZM20.0335 18.182L19.6694 20.5687L19.8514 26.5556L20.7313 22.0149L20.0335 18.1719V18.182Z" fill="#E27525" stroke="#E27525" stroke-width="0.25" stroke-linecap="round" stroke-linejoin="round"/>
<path d="M20.7309 22.0149L19.8511 26.5556L20.4882 27.0006L24.3817 23.9667L24.5031 20.9227L20.7309 22.0149ZM11.5179 20.9227L11.6191 23.9566L15.5227 26.9905L16.1497 26.5556L15.2699 22.0149L11.5078 20.9227H11.5179Z" fill="#F5841F" stroke="#F5841F" stroke-width="0.25" stroke-linecap="round" stroke-linejoin="round"/>
<path d="M20.8204 31.1773L20.8508 29.9334L20.5069 29.6502H15.4909L15.1571 29.9334L15.1875 31.1773L10.9805 29.185L12.457 30.3986L15.4403 32.4515H20.5474L23.5409 30.3884L24.9971 29.185L20.8103 31.1773H20.8204Z" fill="#C0AC9D" stroke="#C0AC9D" stroke-width="0.25" stroke-linecap="round" stroke-linejoin="round"/>
<path d="M20.4878 26.9905L19.8506 26.5556H16.1493L15.5223 27.0006L15.1582 29.9334L15.4919 29.6502H20.508L20.8518 29.9334L20.4878 27.0006V26.9905Z" fill="#161616" stroke="#161616" stroke-width="0.25" stroke-linecap="round" stroke-linejoin="round"/>
<path d="M33.8876 11.467L35 6.05651L33.3212 1L20.4777 10.5062L25.423 14.6627L32.401 16.6954L33.9381 14.9054L33.2707 14.42L34.3325 13.4491L33.5235 12.8221L34.5854 12.0131L33.8775 11.467H33.8876ZM1 6.0464L2.13266 11.467L1.40452 12.003L2.48662 12.812L1.67757 13.4491L2.72933 14.42L2.06187 14.9054L3.59905 16.6954L10.577 14.6728L15.5223 10.4961L2.67876 1L1 6.0464Z" fill="#763E1A" stroke="#763E1A" stroke-width="0.25" stroke-linecap="round" stroke-linejoin="round"/>
<path d="M32.4013 16.6954L25.4233 14.6728L27.5269 17.8382L24.3918 23.9566L28.5382 23.906H34.7374L32.4013 16.6954ZM10.5774 14.6627L3.59943 16.6954L1.27344 23.906H7.47272L11.6191 23.9566L8.48403 17.8382L10.5875 14.6627H10.5774ZM20.0331 18.182L20.4882 10.4961L22.5108 5.0351H13.49L15.5126 10.4961L15.9677 18.182L16.1396 20.5889V26.5556H19.8511L19.8713 20.5889L20.0331 18.182Z" fill="#F5841F" stroke="#F5841F" stroke-width="0.25" stroke-linecap="round" stroke-linejoin="round"/>
</svg>
