<svg width="100" height="113" viewBox="0 0 100 113" fill="none" xmlns="http://www.w3.org/2000/svg">
<path d="M99.9999 56.4548C99.9999 33.6272 84.5746 13.7192 62.4597 8.04099C60.3447 7.48927 58.1838 8.77662 57.6551 10.8916C57.1034 13.0065 58.3907 15.1674 60.5057 15.6962C79.1034 20.4548 92.0919 37.2364 92.0919 56.4548C92.0919 73.3973 81.9999 88.4088 66.8965 95.0065L70.5516 86.5008C71.4022 84.5008 70.4827 82.1789 68.4827 81.3054C66.4827 80.4548 64.1608 81.3743 63.2873 83.3743L56.1608 99.972C55.3103 101.972 56.2298 104.294 58.2298 105.167L74.8275 112.294C77.3103 113.167 79.3792 111.719 80.0229 110.225C80.8735 108.225 79.9539 105.903 77.9539 105.029L70.7355 101.926C88.3218 93.972 99.9999 76.3168 99.9999 56.4548V56.4548Z" fill="white"/>
<path d="M39.4942 97.2134C20.8965 92.4318 7.90805 75.6732 7.90805 56.4548C7.90805 39.7421 17.7241 24.9145 32.4828 18.1789L29.0575 26.1329C28.2069 28.1329 29.0805 30.5467 31.1264 31.3283C33.5172 32.2249 35.5402 31.1444 36.3218 29.2594L43.4483 12.6387C44.1379 11.0295 44.1149 8.6157 41.3793 7.44328L24.7816 0.316845C22.7816 -0.533729 20.4598 0.385811 19.5862 2.38581C18.7356 4.38581 19.6552 6.70765 21.6552 7.58121L29.3793 10.8916C11.7241 18.8686 0 36.5467 0 56.4548C0 79.2824 15.4483 99.1674 37.5402 104.869C40.2069 105.558 41.8851 103.811 42.3448 102.018C42.8736 99.903 41.6092 97.7651 39.4942 97.2134V97.2134Z" fill="white"/>
<path d="M59.3105 71.3513C61.3335 69.2364 62.345 66.5697 62.345 63.3973C62.345 61.949 62.0921 60.6157 61.6093 59.3743C61.1266 58.133 60.4369 57.0755 59.5404 56.1559C58.6438 55.2594 57.4714 54.5008 56.0461 53.8571C55.2875 53.5353 53.7703 53.0755 51.4484 52.5008V39.3054C52.9427 39.6042 54.1151 40.2479 54.9886 41.2134C55.8392 42.1789 56.4139 43.5582 56.6898 45.3514L61.4254 44.6387C61.0116 41.7422 59.8162 39.4433 57.8162 37.7881C56.253 36.4778 54.1381 35.6962 51.4714 35.4433V33.2594H48.7588V35.4433C45.7243 35.7422 43.4254 36.5927 41.8852 37.9491C39.5634 39.972 38.4139 42.6157 38.4139 45.8801C38.4139 47.7192 38.8047 49.3514 39.6093 50.7996C40.3909 52.2479 41.5174 53.3743 42.9886 54.1789C44.9657 55.2824 46.8967 56.018 48.7817 56.3628V70.9605C46.9886 70.7766 45.4254 69.8571 44.1381 68.2249C43.2415 67.0755 42.5978 65.2594 42.253 62.7996L37.6323 63.6732C37.7932 66.041 38.4139 68.064 39.4484 69.7192C40.4829 71.3743 41.7243 72.5697 43.1726 73.3054C44.5978 74.041 46.4829 74.5468 48.7588 74.8456V79.4203H51.4714V74.7766C54.6898 74.6157 57.3105 73.4663 59.3105 71.3513ZM48.7817 51.9261C46.6898 51.3054 45.2185 50.4548 44.345 49.3973C43.4714 48.3399 43.0346 47.0295 43.0346 45.4663C43.0346 43.8801 43.5404 42.5238 44.5749 41.3743C45.6093 40.2249 47.0116 39.5123 48.7817 39.2364V51.9261ZM55.8852 68.6157C54.7128 69.9491 53.2415 70.7077 51.4714 70.9376V56.9835C53.9312 57.7881 55.5863 58.6847 56.4139 59.6962C57.2415 60.7077 57.6553 62.041 57.6553 63.7192C57.6323 65.6502 57.0576 67.3054 55.8852 68.6157V68.6157Z" fill="white"/>
</svg>
