<svg width="100" height="100" viewBox="0 0 100 100" fill="none" xmlns="http://www.w3.org/2000/svg">
<path d="M50 0H45.4906V23.7764H54.5065V9.26527C75.1657 11.5146 90.9781 28.9145 90.9781 50.0003C90.9781 72.5995 72.5937 90.9836 50 90.9836C27.4054 90.9836 9.02191 72.5995 9.02191 50.0003C9.02191 40.7509 12.0274 32.0233 17.7102 24.7634L19.2991 22.7392L12.1958 17.1803L10.6103 19.2048C3.66901 28.0675 0 38.7175 0 50C0 77.5687 22.4287 100 50 100C77.5687 100 100 77.5721 100 50C100 22.4287 77.5687 0 50 0Z" fill="white"/>
<path d="M42.8132 57.6605C44.4468 59.619 46.7421 60.8217 49.2704 61.0474C49.5624 61.0752 49.8541 61.0891 50.1408 61.0891C55.0191 61.0891 59.1879 57.2768 59.6257 52.4165C59.8549 49.8847 59.0834 47.4111 57.4519 45.4503C55.8184 43.4895 53.5248 42.2851 50.9896 42.0542C50.1562 41.9812 49.3109 42.0255 48.4127 42.202L20.8735 18.8638L41.1033 48.5932C40.8489 49.3334 40.6941 50.0242 40.6331 50.6967C40.4042 53.2279 41.1782 55.7023 42.8132 57.6605Z" fill="white"/>
</svg>
