<svg width="126" height="55" viewBox="0 0 126 55" fill="none" xmlns="http://www.w3.org/2000/svg">
<path d="M29.2867 0V0.955251L25.3492 1.8872L24.8133 2.0037L24.9298 2.53957L26.8636 10.7641L18.2198 12.791L17.6839 12.9075L17.8237 13.4434L19.9905 22.7396L20.1303 23.2755L20.6428 23.159L29.2867 21.132V29.1002H15.0045V0H29.2867Z" fill="#284CCB"/>
<path d="M35.2278 0.116455L37.2781 8.90011L46.4345 6.75662L48.6013 16.0528L39.4449 18.1963L41.4952 26.9567L31.7796 29.2167L29.7293 20.4563L20.5728 22.5998L18.4061 13.3036L27.5625 11.1601L25.5122 2.39974L35.2278 0.116455Z" fill="#C126CE"/>
<path d="M58.0141 28.0983C57.2219 27.9119 56.4997 27.6557 55.8007 27.3062C55.1017 26.9567 54.4727 26.5373 53.8902 26.0014C53.3077 25.4656 52.8184 24.8831 52.3991 24.2074C51.9797 23.5318 51.6535 22.7862 51.4205 21.9241C51.1875 21.0621 51.071 20.1301 51.071 19.1516C51.071 18.2895 51.1642 17.4741 51.3506 16.6819C51.537 15.8898 51.8166 15.1442 52.1661 14.4685C52.5156 13.7696 52.9582 13.1405 53.5174 12.5813C54.0766 12.0222 54.6824 11.5329 55.358 11.1368C56.0337 10.7407 56.8025 10.4145 57.6879 10.2048C58.5733 9.99516 59.4819 9.87866 60.4605 9.87866C61.7652 9.87866 63.0699 10.1582 64.398 10.7407C65.7027 11.3232 66.8443 12.1852 67.7996 13.3502L64.2815 16.379C64.0718 16.146 63.8388 15.9364 63.5825 15.7267C63.3262 15.517 63.0466 15.3306 62.7204 15.1442C62.3943 14.9578 62.0448 14.7947 61.6487 14.7015C61.2526 14.6083 60.8565 14.5384 60.4605 14.5384C60.0178 14.5384 59.5751 14.6083 59.1557 14.7248C58.7363 14.8413 58.3403 15.0277 57.9675 15.3073C57.5947 15.5636 57.2685 15.8898 57.0122 16.2392C56.7559 16.5887 56.523 17.0314 56.3599 17.544C56.1968 18.0565 56.1269 18.5924 56.1269 19.1982C56.1269 19.804 56.2201 20.3864 56.4298 20.9456C56.6395 21.5048 56.8957 21.994 57.2685 22.4134C57.6413 22.8328 58.084 23.159 58.6432 23.4153C59.2023 23.6716 59.8081 23.788 60.4605 23.788C61.1594 23.788 61.8584 23.625 62.5573 23.2755C63.2563 22.9493 63.8155 22.5066 64.2815 21.9474L67.7996 24.9763C66.9608 26.0014 65.9124 26.8169 64.6542 27.4693C63.3961 28.1216 61.9982 28.4245 60.4605 28.4245C59.5984 28.3779 58.8062 28.2847 58.0141 28.0983Z" fill="white"/>
<path d="M76.6531 15.4238V20.27C76.3968 20.2467 76.094 20.2467 75.6979 20.2467C74.8591 20.2467 74.2068 20.4564 73.7874 20.899C73.368 21.3417 73.135 21.9242 73.135 22.6698V28.0984H68.615V15.7034H73.135V17.4042H73.1816C73.6243 16.7752 74.1369 16.2859 74.7426 15.9597C75.3484 15.6335 75.9775 15.4471 76.6531 15.4471V15.4238Z" fill="white"/>
<path d="M89.8402 15.7034L83.4564 33.1309H79.0529L81.1498 27.213L76.4201 15.7034H81.0799L83.1768 21.5747H83.2234L85.2038 15.7034H89.8402Z" fill="white"/>
<path d="M99.7422 15.6569C100.208 15.7967 100.674 16.0063 101.07 16.2626C101.466 16.5189 101.839 16.8451 102.165 17.2412C102.492 17.6373 102.771 18.0566 103.004 18.5226C103.237 18.9886 103.423 19.5245 103.54 20.1069C103.656 20.6894 103.726 21.2719 103.726 21.9009C103.726 23.1591 103.493 24.2774 103.004 25.2793C102.515 26.2811 101.839 27.0267 100.954 27.5626C100.068 28.0984 99.0899 28.378 97.9482 28.378C96.6668 28.378 95.6417 27.9353 94.8728 27.05V33.131H90.3528V15.7035H94.8961V16.9616H94.9427C95.8047 15.9597 96.9231 15.4472 98.2744 15.4472C98.7637 15.4239 99.253 15.5171 99.7422 15.6569ZM98.5773 23.7182C98.9967 23.2523 99.2064 22.6465 99.2064 21.9009C99.2064 21.1554 98.9967 20.5729 98.5773 20.1069C98.1579 19.641 97.6454 19.408 96.993 19.408C96.3173 19.408 95.7815 19.641 95.3388 20.1069C94.8961 20.5729 94.6864 21.1787 94.6864 21.9009C94.6864 22.6465 94.8961 23.2523 95.3388 23.7182C95.7582 24.1842 96.3173 24.3939 96.993 24.3939C97.6221 24.4172 98.1579 24.1842 98.5773 23.7182Z" fill="white"/>
<path d="M107.477 28.1217C107.035 27.9586 106.639 27.7023 106.313 27.3761C105.986 27.0499 105.707 26.6073 105.52 26.0714C105.334 25.5355 105.241 24.9297 105.241 24.2308V19.3147H103.889V15.7034H105.241V11.7892L109.761 11.3232V15.7034H112.463V19.2914H109.761V23.2289C109.761 23.392 109.761 23.5551 109.784 23.6716C109.807 23.8114 109.831 23.9279 109.877 24.0677C109.924 24.2075 110.017 24.3007 110.134 24.3706C110.25 24.4405 110.39 24.4871 110.576 24.4871C110.902 24.4871 111.205 24.4172 111.485 24.2774L112.58 27.4227C112.044 27.7256 111.508 27.9586 110.972 28.0984C110.436 28.2615 109.761 28.3314 108.945 28.3314C108.409 28.378 107.92 28.2848 107.477 28.1217Z" fill="white"/>
<path d="M115.655 27.5625C114.63 27.0267 113.815 26.2578 113.232 25.2793C112.65 24.3007 112.37 23.1824 112.37 21.9242C112.37 20.6661 112.65 19.5478 113.232 18.5692C113.815 17.5907 114.607 16.8218 115.655 16.2859C116.68 15.75 117.869 15.4705 119.197 15.4705C120.525 15.4705 121.69 15.75 122.715 16.2859C123.74 16.8218 124.555 17.5907 125.138 18.5692C125.72 19.5478 126 20.6661 126 21.9242C126 23.1824 125.72 24.3007 125.138 25.2793C124.555 26.2578 123.763 27.0267 122.715 27.5625C121.666 28.0984 120.502 28.378 119.197 28.378C117.869 28.378 116.704 28.0984 115.655 27.5625ZM120.804 23.6716C121.224 23.2057 121.457 22.6232 121.457 21.9009C121.457 21.1787 121.247 20.5729 120.828 20.1302C120.408 19.6642 119.872 19.4546 119.197 19.4546C118.871 19.4546 118.568 19.5245 118.288 19.6409C118.009 19.7574 117.776 19.9438 117.566 20.1535C117.379 20.3632 117.216 20.6195 117.1 20.9224C116.983 21.2253 116.937 21.5514 116.937 21.9009C116.937 22.1805 116.983 22.4368 117.053 22.6931C117.123 22.9494 117.24 23.1824 117.356 23.3688C117.496 23.5784 117.659 23.7415 117.845 23.8813C118.032 24.0211 118.242 24.1376 118.474 24.2308C118.707 24.3007 118.94 24.3473 119.197 24.3473C119.826 24.3706 120.385 24.1376 120.804 23.6716Z" fill="white"/>
<path d="M0 31.1504H12.2319V35.5539H4.77626V38.3264H10.6243V42.6134H4.75296V45.1996H12.7677V49.5797H0V31.1504Z" fill="#C126CE"/>
<path d="M34.3657 42.1473V49.5796H29.7526V43.1958C29.7526 42.9861 29.7526 42.7997 29.7293 42.6366C29.706 42.4735 29.706 42.2871 29.6594 42.124C29.6361 41.9609 29.5895 41.7978 29.5429 41.658C29.4963 41.5182 29.4264 41.4017 29.3565 41.2619C29.2866 41.1455 29.1934 41.0523 29.0769 40.9824C28.9604 40.9125 28.8439 40.8426 28.7041 40.796C28.5643 40.7494 28.4012 40.7261 28.2382 40.7261C27.7489 40.7261 27.3295 40.9358 27.0266 41.3551C26.7237 41.7745 26.5606 42.3803 26.5606 43.2191V49.6029H21.9242V43.1958C21.9242 42.823 21.9009 42.5201 21.8543 42.2172C21.8077 41.9376 21.7378 41.6813 21.6213 41.4483C21.5048 41.2154 21.3417 41.029 21.1553 40.9125C20.9689 40.796 20.6893 40.7261 20.4098 40.7261C19.8739 40.7261 19.4545 40.9358 19.1283 41.3551C18.8021 41.7745 18.639 42.3803 18.639 43.2191V49.6029H13.9793V36.9051H18.6157V38.3496H18.639C19.0817 37.7904 19.5943 37.371 20.1768 37.0682C20.7592 36.7886 21.3883 36.6255 22.0407 36.6255C23.7182 36.6255 24.953 37.2313 25.6753 38.4195H25.7219C26.7237 37.2313 28.0984 36.6255 29.8225 36.6255C32.8513 36.6255 34.3657 38.4661 34.3657 42.1473Z" fill="#C126CE"/>
<path d="M48.112 44.3608H39.7944C39.8876 44.9433 40.1904 45.4092 40.6564 45.7121C41.1224 46.015 41.7282 46.1781 42.4271 46.1781C43.4756 46.1781 44.4541 45.7121 45.3628 44.7802L47.7626 47.4129C47.1801 48.1352 46.3879 48.7177 45.3861 49.1604C44.3842 49.603 43.2426 49.836 41.9379 49.836C40.6797 49.836 39.5381 49.5564 38.5362 48.9973C37.5344 48.4381 36.7189 47.6692 36.1598 46.6441C35.5773 45.6189 35.2977 44.4773 35.2977 43.1959C35.2977 41.9377 35.5773 40.7961 36.1365 39.7942C36.6956 38.7924 37.4878 38.0002 38.4896 37.4411C39.4915 36.8819 40.6331 36.6023 41.8913 36.6023C42.7999 36.6023 43.6387 36.7654 44.4308 37.0916C45.223 37.4178 45.8987 37.8604 46.4578 38.4196C47.017 38.9788 47.4597 39.6777 47.7859 40.4932C48.112 41.3087 48.2751 42.1707 48.2751 43.126C48.2285 43.6152 48.1819 44.0346 48.112 44.3608ZM40.4933 40.5864C40.1206 40.8893 39.8876 41.3087 39.7944 41.8445H43.7319C43.6853 41.5882 43.5921 41.3553 43.4756 41.1456C43.3591 40.9359 43.2193 40.7495 43.0562 40.6097C42.8931 40.4699 42.7067 40.3534 42.497 40.2835C42.2873 40.2136 42.0544 40.167 41.7981 40.167C41.3088 40.1437 40.8661 40.3068 40.4933 40.5864Z" fill="#C126CE"/>
<path d="M57.4782 36.6256V41.5649C57.2219 41.5416 56.8957 41.5416 56.4996 41.5416C55.6375 41.5416 54.9852 41.7746 54.5425 42.2173C54.0998 42.66 53.8668 43.2658 53.8668 44.0346V49.5797H49.2304V36.8819H53.8668V38.606H53.9134C54.3561 37.9536 54.892 37.4644 55.4978 37.1149C56.1035 36.7654 56.7559 36.6023 57.4549 36.6023H57.4782V36.6256Z" fill="#C126CE"/>
<path d="M71.0614 36.8818V47.739C71.0614 48.6244 70.9915 49.4165 70.8517 50.1388C70.7119 50.8611 70.4789 51.5134 70.1294 52.1192C69.7799 52.725 69.3606 53.2375 68.8247 53.6569C68.2888 54.0763 67.6364 54.4025 66.821 54.6355C66.0055 54.8685 65.0969 54.985 64.0484 54.985C62.9534 54.985 61.9981 54.8918 61.206 54.7287C60.4138 54.5656 59.5984 54.2627 58.7829 53.82L59.808 50.1854C60.274 50.465 60.8332 50.7213 61.5322 50.9077C62.2311 51.1173 62.8835 51.2105 63.466 51.2105C64.4445 51.2105 65.2134 51.0242 65.7492 50.6281C66.2851 50.232 66.5647 49.7427 66.5647 49.1602V48.0186H66.5181C65.7026 48.904 64.5843 49.3466 63.1631 49.3466C62.068 49.3466 61.0895 49.0671 60.2041 48.5312C59.3188 47.9953 58.6664 47.2497 58.1771 46.2945C57.7112 45.3625 57.4549 44.2908 57.4549 43.1259C57.4549 42.1939 57.5947 41.3318 57.8742 40.5164C58.1538 39.7009 58.5499 39.0253 59.0159 38.4428C59.4819 37.8603 60.0643 37.4409 60.74 37.1148C61.4157 36.7886 62.1379 36.6255 62.8835 36.6255C64.3047 36.6255 65.4697 37.1148 66.355 38.1399H66.4016V36.9051L71.0614 36.8818ZM66.0055 44.617C66.4249 44.1976 66.6346 43.6617 66.6346 42.9861C66.6346 42.3337 66.4249 41.7978 65.9822 41.3551C65.5396 40.9358 65.027 40.7261 64.3979 40.7261C63.7688 40.7261 63.233 40.9358 62.7903 41.3551C62.3476 41.7745 62.1379 42.3337 62.1379 42.9861C62.1379 43.6617 62.3476 44.1976 62.7903 44.617C63.233 45.0364 63.7455 45.246 64.3979 45.246C65.0503 45.246 65.5629 45.0364 66.0055 44.617Z" fill="#C126CE"/>
<path d="M84.9009 44.3608H76.5832C76.6764 44.9433 76.9793 45.4092 77.4452 45.7121C77.9112 46.015 78.517 46.1781 79.2159 46.1781C80.2644 46.1781 81.2429 45.7121 82.1283 44.7802L84.5281 47.4129C83.9456 48.1352 83.1534 48.7177 82.1516 49.1604C81.1497 49.603 80.0081 49.836 78.7034 49.836C77.4452 49.836 76.3036 49.5564 75.3018 48.9973C74.2999 48.4381 73.4844 47.6692 72.9253 46.6441C72.3428 45.6189 72.0632 44.4773 72.0632 43.1959C72.0632 41.9377 72.3428 40.7961 72.902 39.7942C73.4611 38.7924 74.2533 38.0002 75.2551 37.4411C76.257 36.8819 77.3986 36.6023 78.6568 36.6023C79.5654 36.6023 80.4042 36.7654 81.1963 37.0916C81.9885 37.4178 82.6642 37.8604 83.2233 38.4196C83.7825 38.9788 84.2252 39.6777 84.5514 40.4932C84.8776 41.3087 85.0406 42.1707 85.0406 43.126C85.0174 43.6152 84.9708 44.0346 84.9009 44.3608ZM77.2821 40.5864C76.9094 40.8893 76.6764 41.3087 76.5832 41.8445H80.544C80.4974 41.5882 80.4042 41.3553 80.2877 41.1456C80.1712 40.9359 80.0314 40.7495 79.8683 40.6097C79.7052 40.4699 79.5188 40.3534 79.3091 40.2835C79.0995 40.2136 78.8665 40.167 78.6102 40.167C78.0976 40.1437 77.6549 40.3068 77.2821 40.5864Z" fill="#C126CE"/>
<path d="M95.5251 36.7187C95.8979 36.7886 96.2707 36.9051 96.5969 37.0682C96.9463 37.2313 97.2492 37.4409 97.5055 37.7205C97.7618 38.0001 97.9948 38.3263 98.1812 38.6991C98.3676 39.0719 98.5307 39.5378 98.6239 40.0737C98.7171 40.6096 98.7637 41.2154 98.7637 41.891V49.5796H94.1272V43.0094C94.1272 42.4269 94.0573 41.9609 93.9408 41.6114C93.8243 41.2619 93.6379 41.0523 93.4049 40.9125C93.1719 40.7727 92.8691 40.7261 92.473 40.7261C91.8905 40.7261 91.4478 40.9358 91.1216 41.3318C90.7955 41.7512 90.6324 42.357 90.6324 43.1958V49.5796H86.0192V36.8818H90.6557V38.2797H90.679C91.1449 37.7438 91.6808 37.3245 92.3099 37.0449C92.9389 36.7653 93.5913 36.6255 94.2903 36.6255C94.733 36.6255 95.129 36.6488 95.5251 36.7187Z" fill="#C126CE"/>
<path d="M102.957 49.0207C101.932 48.4615 101.14 47.6926 100.581 46.6675C99.9985 45.6656 99.7189 44.524 99.7189 43.2193C99.7189 41.9378 100.022 40.7729 100.604 39.771C101.187 38.7692 102.002 37.977 103.074 37.4179C104.146 36.8587 105.334 36.5791 106.685 36.5791C107.78 36.5791 108.805 36.8121 109.807 37.2548C110.786 37.6974 111.601 38.3498 112.23 39.1886L109.155 41.798C108.503 41.0292 107.734 40.6564 106.802 40.6564C106.079 40.6564 105.497 40.8894 105.054 41.3554C104.612 41.8213 104.379 42.4038 104.379 43.1494C104.379 43.8949 104.612 44.5007 105.078 44.9667C105.544 45.4326 106.126 45.6656 106.848 45.6656C107.78 45.6656 108.549 45.3162 109.132 44.6405L112.277 47.3897C111.694 48.112 110.902 48.6945 109.877 49.1372C108.852 49.5798 107.687 49.8128 106.359 49.8128C105.101 49.8361 103.959 49.5565 102.957 49.0207Z" fill="#C126CE"/>
<path d="M125.627 36.8818L119.103 54.7054H114.607L116.75 48.6477L111.881 36.8818H116.657L118.801 42.8929H118.847L120.874 36.8818H125.627Z" fill="#C126CE"/>
</svg>
