<svg width="27" height="27" viewBox="0 0 27 27" fill="none" xmlns="http://www.w3.org/2000/svg">
<circle cx="13.0456" cy="13.0456" r="13.0456" fill="white"/>
<path d="M14 5V5.41409L11.8104 5.91715L11.4711 5.9951L11.5505 6.32807L12.6201 10.8146L7.82766 11.9157L7.48838 11.9935L7.56779 12.3266L8.78605 17.4373L8.86545 17.7704L9.20474 17.6924L13.9972 16.5914L14 16.6032V21H6V5H14Z" fill="#242424"/>
<path d="M16.9102 5L17.9964 9.8196L22.8481 8.64067L24 13.7513L19.1483 14.9303L20.2345 19.7499L15.0897 21L14.0035 16.1804L9.15179 17.3593L8 12.2488L12.8517 11.0697L11.7654 6.25022L16.9102 5Z" fill="#242424"/>
</svg>
