<svg width="17" height="15" viewBox="0 0 17 15" fill="none" xmlns="http://www.w3.org/2000/svg">
<path d="M13.0333 14.4231L12.6635 14.8602C12.7711 14.9546 12.9095 15.0043 13.0512 14.9997L13.0333 14.4231ZM11.8246 12.4475C11.6307 12.1975 11.2743 12.1548 11.0287 12.3522C10.7831 12.5496 10.7412 12.9124 10.9351 13.1626L11.8246 12.4475ZM12.2765 11.9751L12.0793 11.4342C12.0718 11.4371 12.0643 11.4401 12.057 11.4432L12.2765 11.9751ZM10.3067 12.5699L10.2116 12.0011L10.2023 12.0028L10.3067 12.5699ZM6.78836 12.5561L6.68093 13.1225L6.68438 13.1232L6.78836 12.5561ZM4.79144 11.9614L4.58491 12.4986L4.58546 12.4989L4.79144 11.9614ZM3.79967 11.4912L3.4846 11.9706C3.49704 11.9792 3.5098 11.9871 3.52284 11.9945L3.79967 11.4912ZM3.67746 11.422L3.99204 10.9421C3.97241 10.9287 3.95199 10.9167 3.93089 10.906L3.67746 11.422ZM3.62314 11.3806L4.02383 10.9726C3.98661 10.9347 3.94439 10.9023 3.89837 10.8762L3.62314 11.3806ZM6.06487 13.1348C6.25877 12.8846 6.21679 12.5218 5.97111 12.3244C5.72544 12.1271 5.36912 12.1698 5.17523 12.4199L6.06487 13.1348ZM3.96667 14.4231L3.94873 14.9997C4.093 15.0044 4.23357 14.9529 4.34175 14.8556L3.96667 14.4231ZM0.566667 11.8231H0C0 11.854 0.00243201 11.8848 0.00727261 11.9153L0.566667 11.8231ZM2.52281 2.02921L2.18281 1.56768C2.09603 1.63394 2.02977 1.72416 1.99187 1.82763L2.52281 2.02921ZM6.34001 0.577038L6.90413 0.522334C6.87688 0.231047 6.63976 0.00666035 6.35242 0.000256543L6.34001 0.577038ZM5.91176 2.08401C5.94143 2.40119 6.21806 2.63384 6.52961 2.60363C6.84115 2.57342 7.06967 2.29179 7.03999 1.9746L5.91176 2.08401ZM9.90766 2.01112C9.86779 2.32715 10.0871 2.61624 10.3975 2.65683C10.7079 2.69742 10.9919 2.47413 11.0318 2.15811L9.90766 2.01112ZM10.6599 0.57713L10.6475 0.000348838C10.3672 0.00661418 10.1336 0.220559 10.0978 0.50363L10.6599 0.57713ZM14.4771 2.02931L15.0081 1.82772C14.9701 1.72425 14.9039 1.63403 14.8171 1.56778L14.4771 2.02931ZM16.4333 11.8231L16.9927 11.9153C16.9976 11.8848 17 11.854 17 11.8231H16.4333ZM7.34526 9.00167L6.77859 8.99217V9.00167H7.34526ZM13.0333 14.4231C13.4031 13.9861 13.4031 13.9861 13.4031 13.9861C13.4031 13.9859 13.4031 13.9859 13.403 13.9859C13.4029 13.9858 13.4028 13.9857 13.4025 13.9855C13.402 13.985 13.4012 13.9843 13.4001 13.9833C13.3979 13.9814 13.3945 13.9784 13.3901 13.9745C13.3813 13.9668 13.3681 13.9551 13.3511 13.94C13.317 13.9099 13.2677 13.8659 13.2072 13.8116C13.0859 13.7027 12.9205 13.5523 12.7427 13.3862C12.3746 13.0422 11.9957 12.668 11.8246 12.4475L10.9351 13.1626C11.1716 13.4675 11.6194 13.9025 11.9762 14.2361C12.1609 14.4088 12.3323 14.5645 12.4574 14.6769C12.52 14.733 12.5713 14.7786 12.607 14.8102C12.6248 14.8262 12.6387 14.8385 12.6483 14.8469C12.6531 14.8511 12.6568 14.8544 12.6594 14.8566C12.6607 14.8578 12.6617 14.8586 12.6624 14.8593C12.6627 14.8595 12.663 14.8597 12.6632 14.86C12.6633 14.86 12.6633 14.8601 12.6634 14.8602C12.6634 14.8602 12.6634 14.8602 12.6635 14.8602C12.6635 14.8602 12.6635 14.8602 13.0333 14.4231ZM13.527 10.6774C13.0059 11.0268 12.5145 11.2698 12.0793 11.4342L12.4736 12.5161C12.9892 12.3212 13.5575 12.0386 14.1503 11.6411L13.527 10.6774ZM12.057 11.4432C11.4148 11.718 10.8044 11.8984 10.2116 12.0012L10.4019 13.1387C11.0859 13.0201 11.7796 12.8134 12.4959 12.5071L12.057 11.4432ZM10.2023 12.0028C8.97973 12.2363 7.85624 12.1722 6.89234 11.989L6.68438 13.1232C7.75806 13.3273 9.02541 13.4014 10.4112 13.1369L10.2023 12.0028ZM6.89578 11.9897C6.16274 11.8456 5.53063 11.6358 4.99743 11.424L4.58546 12.4989C5.16604 12.7295 5.86522 12.9623 6.68093 13.1225L6.89578 11.9897ZM4.99798 11.4242C4.70106 11.3059 4.3867 11.1646 4.0765 10.9878L3.52284 11.9945C3.89203 12.205 4.25687 12.3679 4.58491 12.4986L4.99798 11.4242ZM4.11475 11.0117C4.06042 10.9746 4.00899 10.9492 3.99214 10.9406C3.96807 10.9284 3.97863 10.933 3.99204 10.9421L3.36288 11.9019C3.41707 11.9387 3.4684 11.9641 3.48507 11.9725C3.50897 11.9847 3.49826 11.98 3.4846 11.9706L4.11475 11.0117ZM3.93089 10.906C3.95283 10.9171 3.97614 10.9321 3.99863 10.9503C4.01798 10.966 4.03162 10.9805 4.02383 10.9726L3.22245 11.7885C3.24864 11.8152 3.31404 11.882 3.42405 11.938L3.93089 10.906ZM3.89837 10.8762C3.78618 10.8128 3.70023 10.7596 3.64387 10.7233C3.61571 10.7052 3.59499 10.6914 3.58215 10.6827C3.57572 10.6783 3.57128 10.6752 3.56886 10.6736C3.56764 10.6727 3.56694 10.6722 3.56675 10.6721C3.56665 10.672 3.56668 10.672 3.56685 10.6721C3.56693 10.6722 3.56704 10.6723 3.56719 10.6725C3.56726 10.6725 3.56734 10.6725 3.56743 10.6726C3.56747 10.6726 3.56752 10.6727 3.56756 10.6727C3.56759 10.6727 3.56763 10.6727 3.56764 10.6727C3.56768 10.6728 3.56772 10.6728 3.24277 11.1454C2.91783 11.618 2.91788 11.6181 2.91791 11.6181C2.91793 11.6181 2.91797 11.6181 2.918 11.6181C2.91806 11.6183 2.91812 11.6183 2.91817 11.6183C2.9183 11.6184 2.91842 11.6185 2.91857 11.6186C2.91884 11.6188 2.91916 11.6191 2.9195 11.6193C2.92019 11.6198 2.92102 11.6203 2.92198 11.621C2.9239 11.6224 2.92635 11.624 2.92933 11.6261C2.93529 11.6303 2.94337 11.6359 2.9535 11.6427C2.97378 11.6565 3.0023 11.6755 3.03867 11.6989C3.11136 11.7456 3.2156 11.81 3.34791 11.8849L3.89837 10.8762ZM5.17523 12.4199C5.00226 12.6431 4.62091 13.0255 4.25309 13.3764C4.07512 13.5462 3.90933 13.7001 3.78795 13.8117C3.72732 13.8674 3.67793 13.9124 3.64383 13.9434C3.62678 13.9589 3.61357 13.9708 3.60468 13.9789C3.60024 13.9828 3.59688 13.9859 3.59468 13.9879C3.59357 13.9889 3.59276 13.9896 3.59225 13.9901C3.59199 13.9903 3.59179 13.9904 3.59168 13.9906C3.59162 13.9907 3.59159 13.9907 3.59157 13.9907C3.59157 13.9907 3.59157 13.9907 3.59156 13.9907C3.59157 13.9907 3.59158 13.9907 3.96667 14.4231C4.34175 14.8556 4.34178 14.8556 4.3418 14.8556C4.34181 14.8555 4.34185 14.8555 4.34188 14.8555C4.34194 14.8554 4.342 14.8554 4.34211 14.8552C4.3423 14.8551 4.34256 14.8549 4.3429 14.8545C4.34358 14.854 4.34455 14.853 4.34582 14.8519C4.34836 14.8496 4.35205 14.8462 4.35684 14.842C4.3664 14.8333 4.38036 14.8207 4.39817 14.8046C4.43379 14.7722 4.48492 14.7255 4.54747 14.6681C4.67243 14.5532 4.84359 14.3943 5.02802 14.2183C5.38502 13.8777 5.83037 13.4373 6.06487 13.1348L5.17523 12.4199ZM3.98461 13.8466C2.66353 13.8039 1.96947 13.2449 1.59249 12.7384C1.39691 12.4756 1.27794 12.214 1.20839 12.0189C1.17383 11.922 1.15214 11.8433 1.13959 11.7918C1.13333 11.7662 1.12939 11.7475 1.12729 11.7369C1.12624 11.7316 1.12566 11.7283 1.12547 11.7273C1.12538 11.7268 1.12539 11.7268 1.12549 11.7274C1.12554 11.7278 1.12561 11.7282 1.12571 11.7288C1.12575 11.729 1.12581 11.7294 1.12587 11.7297C1.1259 11.73 1.12595 11.7303 1.12596 11.7303C1.12601 11.7306 1.12606 11.731 0.566667 11.8231C0.00727261 11.9153 0.00732661 11.9156 0.00738234 11.916C0.00740305 11.9161 0.00746074 11.9164 0.00750242 11.9166C0.00758591 11.9172 0.0076764 11.9178 0.00777394 11.9184C0.00796907 11.9195 0.00819256 11.9209 0.00844561 11.9224C0.00895164 11.9254 0.009576 11.929 0.0103276 11.9333C0.0118308 11.9417 0.0138446 11.9525 0.0164421 11.9656C0.0216344 11.9918 0.0291756 12.027 0.0396557 12.0699C0.0605834 12.1557 0.0934274 12.2734 0.143058 12.4126C0.241917 12.6898 0.410021 13.0601 0.689156 13.4352C1.26162 14.2045 2.26757 14.9456 3.94873 14.9997L3.98461 13.8466ZM1.13333 11.8231C1.13333 9.66976 1.60827 7.27716 2.09275 5.40299C2.33387 4.47019 2.57505 3.67454 2.7557 3.11277C2.84599 2.83201 2.92105 2.61002 2.97329 2.45891C2.9994 2.38337 3.0198 2.32558 3.03354 2.28704C3.0404 2.26778 3.0456 2.25333 3.04901 2.24389C3.05072 2.23917 3.05198 2.2357 3.05277 2.23351C3.05317 2.23242 3.05346 2.23164 3.05362 2.23118C3.0537 2.23096 3.05376 2.23081 3.05378 2.23074C3.05379 2.23071 3.05379 2.23072 3.0538 2.23071C3.05379 2.23073 3.05377 2.23079 2.52281 2.02921C1.99187 1.82763 1.99183 1.82773 1.99179 1.82783C1.99177 1.8279 1.99172 1.82803 1.99166 1.82817C1.99157 1.82842 1.99145 1.82877 1.9913 1.82918C1.99098 1.83003 1.99056 1.83119 1.99002 1.83268C1.98894 1.83566 1.98739 1.83993 1.9854 1.84544C1.98141 1.85648 1.97562 1.87257 1.96816 1.89351C1.95323 1.93538 1.93161 1.99667 1.90424 2.07585C1.84949 2.23422 1.77173 2.46425 1.67863 2.75374C1.49251 3.33249 1.24464 4.15032 0.996735 5.10933C0.503139 7.01877 0 9.52312 0 11.8231H1.13333ZM2.86282 2.49075C3.76888 1.7989 4.64969 1.46485 5.29931 1.30347C5.62418 1.22276 5.89033 1.18548 6.07123 1.16832C6.1616 1.15975 6.23043 1.15622 6.27436 1.15479C6.29631 1.15407 6.31201 1.15389 6.32103 1.15385C6.32554 1.15383 6.32839 1.15384 6.3295 1.15385C6.33005 1.15386 6.33018 1.15386 6.32987 1.15386C6.32971 1.15385 6.32945 1.15385 6.32907 1.15384C6.32888 1.15384 6.32867 1.15384 6.32842 1.15383C6.3283 1.15383 6.32809 1.15383 6.32803 1.15383C6.32783 1.15382 6.3276 1.15382 6.34001 0.577038C6.35242 0.000256493 6.3522 0.000244989 6.35196 0.000244989C6.35187 0.000244989 6.35162 0.000233435 6.35145 0.000233435C6.35109 0.000221897 6.3507 0.000221866 6.35028 0.000210327C6.34945 0.000198789 6.34851 0.000175787 6.34746 0.000164248C6.34534 0.000127326 6.34277 9.26995e-05 6.33974 6.50073e-05C6.33369 9.62308e-06 6.32585 -2.26783e-05 6.31625 1.88599e-05C6.29705 0.000101936 6.27086 0.00047574 6.2381 0.00154881C6.17261 0.00368341 6.08076 0.00857566 5.96609 0.0194564C5.73692 0.0411947 5.41555 0.0868982 5.03064 0.182517C4.26069 0.3738 3.2329 0.76584 2.18281 1.56768L2.86282 2.49075ZM5.77591 0.631729L5.91176 2.08401L7.03999 1.9746L6.90413 0.522334L5.77591 0.631729ZM11.0318 2.15811L11.2219 0.650629L10.0978 0.50363L9.90766 2.01112L11.0318 2.15811ZM10.6599 0.57713C10.6723 1.15391 10.6721 1.15391 10.6719 1.15392C10.6718 1.15392 10.6716 1.15392 10.6715 1.15392C10.6713 1.15393 10.671 1.15393 10.6709 1.15395C10.6705 1.15395 10.6702 1.15396 10.6701 1.15396C10.6697 1.15396 10.6699 1.15396 10.6704 1.15396C10.6715 1.15395 10.6744 1.15392 10.6789 1.15395C10.6879 1.15398 10.7036 1.15416 10.7256 1.15488C10.7695 1.15631 10.8383 1.15983 10.9287 1.1684C11.1096 1.18556 11.3757 1.22283 11.7006 1.30353C12.3502 1.46491 13.231 1.79894 14.1371 2.49083L14.8171 1.56778C13.7671 0.765898 12.7392 0.373847 11.9692 0.182575C11.5844 0.086956 11.263 0.041264 11.0338 0.0195372C10.9191 0.00866808 10.8273 0.00376415 10.7618 0.00162955C10.729 0.000568019 10.7028 0.000198862 10.6836 0.000112324C10.674 7.19396e-05 10.6662 0.000104249 10.6601 0.000164248C10.6571 0.000187325 10.6545 0.000221928 10.6524 0.000256543C10.6514 0.000268082 10.6504 0.000291084 10.6496 0.000302622C10.6492 0.00031416 10.6488 0.00032573 10.6484 0.00032573C10.6483 0.00032573 10.648 0.000337284 10.6479 0.000337284C10.6477 0.000348823 10.6475 0.000348788 10.6599 0.57713ZM14.4771 2.02931C13.9461 2.23089 13.9461 2.23085 13.9461 2.23081C13.9461 2.23082 13.9461 2.23081 13.9461 2.23085C13.9461 2.23092 13.9462 2.23107 13.9462 2.23129C13.9465 2.23175 13.9467 2.23252 13.9471 2.23362C13.9479 2.23581 13.9492 2.23928 13.9509 2.244C13.9543 2.25344 13.9595 2.26788 13.9664 2.28715C13.9801 2.32568 14.0005 2.38348 14.0266 2.45902C14.0788 2.61011 14.154 2.8321 14.2442 3.11285C14.4248 3.67463 14.666 4.47026 14.9072 5.40305C15.3917 7.2772 15.8667 9.66976 15.8667 11.8231H17C17 9.52312 16.4968 7.01878 16.0032 5.10936C15.7553 4.15036 15.5074 3.33256 15.3213 2.75381C15.2281 2.46431 15.1504 2.23429 15.0957 2.07593C15.0683 1.99676 15.0467 1.93546 15.0317 1.89359C15.0243 1.87265 15.0185 1.85656 15.0145 1.84552C15.0125 1.84001 15.011 1.83575 15.0099 1.83277C15.0093 1.83128 15.009 1.83011 15.0086 1.82926C15.0085 1.82885 15.0083 1.8285 15.0083 1.82825C15.0082 1.82812 15.0082 1.82798 15.0082 1.82793C15.0081 1.82781 15.0081 1.82772 14.4771 2.02931ZM16.4333 11.8231C15.8739 11.731 15.874 11.7306 15.874 11.7303C15.874 11.7302 15.8741 11.73 15.8741 11.7297C15.8741 11.7294 15.8743 11.729 15.8743 11.7288C15.8744 11.7282 15.8745 11.7278 15.8745 11.7274C15.8746 11.7268 15.8746 11.7268 15.8745 11.7273C15.8744 11.7283 15.8738 11.7316 15.8727 11.7369C15.8706 11.7475 15.8667 11.7662 15.8604 11.7918C15.8479 11.8433 15.8262 11.922 15.7916 12.0189C15.7221 12.214 15.6031 12.4756 15.4074 12.7384C15.0305 13.2449 14.3364 13.8039 13.0154 13.8466L13.0512 14.9997C14.7324 14.9456 15.7384 14.2045 16.3108 13.4352C16.59 13.0601 16.758 12.6899 16.857 12.4126C16.9066 12.2734 16.9394 12.1557 16.9603 12.0699C16.9709 12.027 16.9784 11.9918 16.9836 11.9656C16.9862 11.9525 16.9882 11.9417 16.9897 11.9333C16.9904 11.929 16.991 11.9254 16.9915 11.9224C16.9918 11.9209 16.9921 11.9195 16.9922 11.9184C16.9923 11.9178 16.9924 11.9172 16.9925 11.9166C16.9925 11.9164 16.9926 11.9161 16.9926 11.916C16.9926 11.9156 16.9927 11.9153 16.4333 11.8231ZM5.95966 6.88966C4.82496 6.88966 4.00748 7.88999 4.00748 9.00167H5.14081C5.14081 8.42614 5.54577 8.0435 5.95966 8.0435V6.88966ZM4.00748 9.00167C4.00748 10.1172 4.84194 11.1138 5.95966 11.1138V9.95994C5.55591 9.95994 5.14081 9.5735 5.14081 9.00167H4.00748ZM5.95966 11.1138C7.09444 11.1138 7.91192 10.1134 7.91192 9.00167H6.77859C6.77859 9.57729 6.37363 9.95994 5.95966 9.95994V11.1138ZM7.91185 9.01117C7.9301 7.88292 7.08633 6.88966 5.95966 6.88966V8.0435C6.38155 8.0435 6.78771 8.43322 6.77866 8.99217L7.91185 9.01117ZM10.918 6.88966C9.78333 6.88966 8.96569 7.88991 8.96569 9.00167H10.099C10.099 8.42622 10.504 8.0435 10.918 8.0435V6.88966ZM8.96569 9.00167C8.96569 10.1173 9.80042 11.1138 10.918 11.1138V9.95994C10.5142 9.95994 10.099 9.57339 10.099 9.00167H8.96569ZM10.918 11.1138C12.0528 11.1138 12.8702 10.1134 12.8702 9.00167H11.7369C11.7369 9.57732 11.3319 9.95994 10.918 9.95994V11.1138ZM12.8702 9.00167C12.8702 7.88999 12.0528 6.88966 10.918 6.88966V8.0435C11.3319 8.0435 11.7369 8.42614 11.7369 9.00167H12.8702ZM4.23799 3.96812C5.87347 3.06004 7.20538 2.63635 8.50266 2.63569C9.7996 2.63504 11.1295 3.05719 12.761 3.96755L13.3057 2.95572C11.5799 1.99272 10.0583 1.48107 8.5021 1.48185C6.94626 1.48264 5.42346 1.99562 3.69535 2.95513L4.23799 3.96812Z" fill="#242424"/>
</svg>
