<svg width="8" height="17" viewBox="0 0 8 17" fill="none" xmlns="http://www.w3.org/2000/svg">
<path d="M0.255436 9.0542H1.99143V16.7258C1.99143 16.8773 2.10576 17 2.24687 17H5.19031C5.33141 17 5.44574 16.8773 5.44574 16.7258V9.09034H7.44141C7.57117 9.09034 7.68035 8.98582 7.69516 8.84746L7.99826 6.02315C8.00659 5.94545 7.98365 5.86763 7.93522 5.80934C7.88674 5.75099 7.81736 5.71759 7.74456 5.71759H5.44584V3.94718C5.44584 3.41349 5.71354 3.14286 6.24158 3.14286C6.31683 3.14286 7.74456 3.14286 7.74456 3.14286C7.88567 3.14286 8 3.02008 8 2.86867V0.276223C8 0.124758 7.88567 0.00202903 7.74456 0.00202903H5.67323C5.65862 0.00126129 5.62618 0 5.57836 0C5.21897 0 3.96973 0.0757322 2.98293 1.05022C1.88956 2.1301 2.04155 3.42309 2.07787 3.64727V5.71754H0.255436C0.114333 5.71754 0 5.84027 0 5.99173V8.77995C0 8.93142 0.114333 9.0542 0.255436 9.0542Z" fill="black"/>
</svg>
