<svg width="17" height="16" viewBox="0 0 17 16" fill="none" xmlns="http://www.w3.org/2000/svg">
<path d="M8.48531 0.534424C4.03795 0.534424 0.578888 3.99348 0.578888 8.44084C0.578888 13.6294 5.27332 15.8531 6.01455 15.8531C6.5087 15.8531 6.5087 15.606 6.5087 15.359V14.1236C4.77917 14.6177 4.03795 13.6294 3.79087 12.8882C3.79087 12.8882 3.79087 12.6411 3.29672 12.147C3.04964 11.8999 2.06134 11.4058 3.04964 11.4058C3.79087 11.4058 4.28502 12.3941 4.28502 12.3941C5.02625 13.3824 6.01455 13.1353 6.5087 12.8882C6.5087 12.3941 7.00285 11.8999 7.00285 11.8999C5.02625 11.6528 3.5438 10.9116 3.5438 8.19377C3.5438 7.20547 3.79087 6.46424 4.28502 5.97009C4.28502 5.97009 3.79087 4.98178 4.28502 3.74641C4.28502 3.74641 5.5204 3.74641 6.5087 4.73471C7.24993 4.24056 9.72069 4.24056 10.4619 4.73471C11.4502 3.74641 12.6856 3.74641 12.6856 3.74641C13.1797 5.47594 12.6856 5.97009 12.6856 5.97009C13.1797 6.46424 13.4268 7.20547 13.4268 8.19377C13.4268 10.9116 11.6973 11.6528 9.96776 11.8999C10.2148 12.147 10.4619 12.6411 10.4619 13.3824V15.359C10.4619 15.606 10.4619 15.8531 10.9561 15.8531C11.6973 15.8531 16.3917 13.6294 16.3917 8.44084C16.3917 3.99348 12.9327 0.534424 8.48531 0.534424Z" fill="#242424"/>
</svg>
