<svg width="19" height="18" viewBox="0 0 19 18" fill="none" xmlns="http://www.w3.org/2000/svg">
<path d="M13.6377 0H6.3623C3.40551 0 1 2.40551 1 5.3623V12.6377C1 15.5945 3.40551 18 6.3623 18H13.6377C16.5945 18 19 15.5945 19 12.6377V5.3623C19 2.40551 16.5945 0 13.6377 0ZM17.1892 12.6377C17.1892 14.5991 15.5991 16.1892 13.6377 16.1892H6.3623C4.40088 16.1892 2.8108 14.5991 2.8108 12.6377V5.3623C2.8108 3.40084 4.40088 1.8108 6.3623 1.8108H13.6377C15.5991 1.8108 17.1892 3.40084 17.1892 5.3623V12.6377Z" fill="black"/>
<path d="M9.99968 4.34454C7.43266 4.34454 5.34424 6.43297 5.34424 8.99995C5.34424 11.5669 7.43266 13.6554 9.99968 13.6554C12.5667 13.6554 14.6551 11.567 14.6551 8.99995C14.6551 6.43294 12.5667 4.34454 9.99968 4.34454ZM9.99968 11.8446C8.42861 11.8446 7.15504 10.571 7.15504 8.99998C7.15504 7.42892 8.42865 6.15534 9.99968 6.15534C11.5707 6.15534 12.8443 7.42892 12.8443 8.99998C12.8443 10.571 11.5707 11.8446 9.99968 11.8446Z" fill="black"/>
<path d="M14.6643 5.49508C15.2804 5.49508 15.7798 4.99565 15.7798 4.37958C15.7798 3.7635 15.2804 3.26407 14.6643 3.26407C14.0483 3.26407 13.5488 3.7635 13.5488 4.37958C13.5488 4.99565 14.0483 5.49508 14.6643 5.49508Z" fill="black"/>
</svg>
