<svg width="17" height="15" viewBox="0 0 17 15" fill="none" xmlns="http://www.w3.org/2000/svg">
<path d="M11.8619 8.32855C11.8619 8.8951 11.4026 9.35441 10.836 9.35441C10.2694 9.35441 9.81006 8.8951 9.81006 8.32855C9.81006 7.76192 10.2694 7.30261 10.836 7.30261C11.4026 7.30261 11.8619 7.76192 11.8619 8.32855Z" fill="black"/>
<path d="M5.81742 9.35441C6.38401 9.35441 6.84333 8.8951 6.84333 8.32855C6.84333 7.76192 6.38401 7.30261 5.81742 7.30261C5.25082 7.30261 4.7915 7.76192 4.7915 8.32855C4.7915 8.8951 5.25082 9.35441 5.81742 9.35441Z" fill="black"/>
<path d="M6.09606 10.5463C5.84774 10.3896 5.51945 10.464 5.36281 10.7123C5.20617 10.9607 5.28049 11.2889 5.52882 11.4455L5.7733 11.5998C7.33285 12.5835 9.31901 12.5835 10.8785 11.5998L11.123 11.4455C11.3714 11.2889 11.4457 10.9607 11.289 10.7123C11.1324 10.464 10.8041 10.3896 10.5558 10.5463L10.3113 10.7005C9.09828 11.4657 7.55357 11.4657 6.34055 10.7005L6.09606 10.5463Z" fill="black"/>
<path fill-rule="evenodd" clip-rule="evenodd" d="M13.971 0C13.3516 0 12.8114 0.339244 12.5261 0.842075L9.97418 0.318604C9.72638 0.267768 9.47709 0.398607 9.37814 0.63143C9.08696 1.31656 8.64998 2.35493 8.28551 3.24341C8.1565 3.55791 8.03601 3.85496 7.93408 4.11156C6.48356 4.16999 5.13934 4.54897 4.03988 5.16401C3.66082 4.52934 2.96713 4.10364 2.17307 4.10364C0.972914 4.10364 0 5.07655 0 6.27667C0 7.19486 0.569034 7.97909 1.37326 8.2977C1.28044 8.63694 1.23108 8.99014 1.23108 9.35447C1.23108 10.8724 2.08805 12.1977 3.37551 13.1231C4.6638 14.0491 6.41666 14.6052 8.32853 14.6052C10.2404 14.6052 11.9932 14.0491 13.2815 13.1231C14.569 12.1977 15.4259 10.8724 15.4259 9.35447C15.4259 8.99014 15.3766 8.63694 15.2837 8.2977C16.0877 7.97923 16.6571 7.19507 16.6571 6.27667C16.6571 5.07655 15.6842 4.10364 14.484 4.10364C13.6899 4.10364 12.9962 4.52934 12.6172 5.16402C11.6063 4.59854 10.3886 4.23261 9.07151 4.13189C9.1336 3.9784 9.20002 3.81562 9.2692 3.64695C9.56612 2.9231 9.91209 2.09773 10.187 1.4476L12.3262 1.88642C12.4366 2.69621 13.1309 3.32022 13.971 3.32022C14.8879 3.32022 15.6311 2.57696 15.6311 1.66011C15.6311 0.74326 14.8879 0 13.971 0ZM13.3741 1.66011C13.3741 1.33045 13.6414 1.06322 13.971 1.06322C14.3007 1.06322 14.5679 1.33045 14.5679 1.66011C14.5679 1.98977 14.3007 2.257 13.971 2.257C13.6414 2.257 13.3741 1.98977 13.3741 1.66011ZM8.32853 5.16685C8.4379 5.16685 8.54649 5.16889 8.6543 5.17291C8.65331 5.19335 8.65126 5.20849 8.65019 5.21575C8.64842 5.22769 8.64665 5.23601 8.64594 5.23918L8.64502 5.24335L8.64686 5.23661C8.65076 5.22341 8.65735 5.20272 8.66734 5.17339C10.244 5.23449 11.6451 5.71898 12.661 6.44912C13.7499 7.23179 14.3627 8.26602 14.3627 9.35447C14.3627 10.4428 13.7499 11.4771 12.661 12.2597C11.5729 13.0418 10.0429 13.542 8.32853 13.542C6.61417 13.542 5.08411 13.0418 3.99604 12.2597C2.90713 11.4771 2.29429 10.4428 2.29429 9.35447C2.29429 8.26602 2.90713 7.23179 3.99604 6.44912C5.08411 5.66709 6.61417 5.16685 8.32853 5.16685ZM1.06322 6.27667C1.06322 5.66375 1.56011 5.16685 2.17307 5.16685C2.59625 5.16685 2.96511 5.40393 3.15233 5.75362C2.58576 6.19941 2.11505 6.72669 1.78136 7.31564C1.36155 7.15729 1.06322 6.75129 1.06322 6.27667ZM14.8757 7.31564C14.542 6.72669 14.0713 6.19941 13.5047 5.75363C13.692 5.40394 14.0608 5.16685 14.484 5.16685C15.097 5.16685 15.5938 5.66375 15.5938 6.27667C15.5938 6.75114 15.2958 7.15722 14.8757 7.31564Z" fill="black"/>
</svg>
