<svg width="18" height="14" viewBox="0 0 18 14" fill="none" xmlns="http://www.w3.org/2000/svg">
<path d="M14.6815 0.704957C14.6815 0.704957 16.1443 0.134565 16.0224 1.5198C15.9818 2.0902 15.6161 4.08658 15.3316 6.24593L14.3564 12.6425C14.3564 12.6425 14.2752 13.5796 13.5438 13.7425C12.8123 13.9055 11.7153 13.1722 11.5121 13.0092C11.3495 12.887 8.4646 11.0535 7.44873 10.1572C7.16429 9.91275 6.83923 9.42383 7.48936 8.85344L11.7559 4.77922C12.2435 4.2903 12.7311 3.14951 10.6994 4.53476L5.01073 8.40529C5.01073 8.40529 4.3606 8.8127 3.14162 8.44603L0.500427 7.63118C0.500427 7.63118 -0.474778 7.02005 1.1912 6.40888C5.25455 4.49398 10.2525 2.53835 14.6815 0.704957Z" fill="#242424"/>
</svg>
