<svg width="16" height="18" viewBox="0 0 16 18" fill="none" xmlns="http://www.w3.org/2000/svg">
<path d="M8.40437 0.0151883C9.40864 0 10.4072 0.00900048 11.4045 0C11.465 1.14812 11.8874 2.31762 12.7472 3.12935C13.6053 3.96134 14.819 4.34217 16 4.47099V7.49121C14.8933 7.45577 13.7814 7.23076 12.7771 6.76499C12.3397 6.57148 11.9323 6.32227 11.5334 6.06745C11.5283 8.25907 11.5426 10.4479 11.5191 12.6305C11.4592 13.679 11.1053 14.7225 10.4814 15.5866C9.47771 17.025 7.73563 17.9627 5.94635 17.992C4.84885 18.0533 3.7525 17.7608 2.81729 17.2219C1.26743 16.3286 0.176832 14.6933 0.01799 12.9382C-0.00042639 12.563 -0.00675706 12.1883 0.00878181 11.8221C0.146905 10.395 0.869175 9.02973 1.99027 8.10099C3.26101 7.01925 5.04107 6.50397 6.70776 6.80886C6.7233 7.91986 6.67783 9.02973 6.67783 10.1407C5.91643 9.89997 5.02668 9.96747 4.36139 10.4192C3.87566 10.7269 3.50675 11.1983 3.31453 11.7316C3.15569 12.1118 3.20116 12.5343 3.21036 12.9382C3.3928 14.169 4.60368 15.2035 5.89628 15.0916C6.75322 15.0826 7.57448 14.5965 8.02108 13.8849C8.16553 13.6357 8.32725 13.3809 8.33589 13.0878C8.41128 11.7462 8.38135 10.4102 8.39056 9.06855C8.39689 6.04495 8.38135 3.02979 8.40495 0.0157508L8.40437 0.0151883Z" fill="black"/>
</svg>
