<svg width="17" height="14" viewBox="0 0 17 14" fill="none" xmlns="http://www.w3.org/2000/svg">
<path d="M16.3413 2.08273C16.0929 2.19291 15.8375 2.2859 15.5765 2.36139C15.8855 2.01198 16.121 1.60085 16.2648 1.15095C16.2971 1.0501 16.2637 0.939718 16.1808 0.873763C16.098 0.807758 15.983 0.799851 15.8918 0.85387C15.3376 1.18257 14.7397 1.41879 14.1127 1.55693C13.4812 0.93982 12.6234 0.588623 11.7367 0.588623C9.86489 0.588623 8.34207 2.11139 8.34207 3.98312C8.34207 4.13053 8.35141 4.27713 8.36987 4.42169C6.04718 4.21776 3.88781 3.07613 2.40498 1.2572C2.35214 1.19237 2.27073 1.15742 2.18738 1.16411C2.10398 1.17064 2.02905 1.21767 1.98691 1.28995C1.68616 1.806 1.52717 2.39623 1.52717 2.99676C1.52717 3.81469 1.81919 4.59074 2.33505 5.19713C2.1782 5.14281 2.02598 5.07491 1.88071 4.99427C1.80272 4.95086 1.70754 4.95152 1.63005 4.99595C1.55252 5.04038 1.50391 5.1221 1.50187 5.21141C1.50151 5.22646 1.50151 5.24151 1.50151 5.25676C1.50151 6.47766 2.15861 7.57685 3.16323 8.17596C3.07692 8.16733 2.99067 8.15484 2.90497 8.13846C2.81662 8.12158 2.72578 8.15254 2.6662 8.21992C2.60652 8.28726 2.58678 8.38111 2.61427 8.46681C2.98613 9.62777 3.94351 10.4817 5.10091 10.7421C4.14097 11.3433 3.04321 11.6582 1.89081 11.6582C1.65035 11.6582 1.40852 11.6441 1.17184 11.6161C1.05426 11.6021 0.941839 11.6716 0.901797 11.7834C0.861755 11.8952 0.904195 12.0199 1.00422 12.0841C2.48466 13.0333 4.19647 13.535 5.95449 13.535C9.41056 13.535 11.5726 11.9053 12.7777 10.5381C14.2804 8.83331 15.1422 6.57682 15.1422 4.34727C15.1422 4.25413 15.1408 4.16007 15.1379 4.06631C15.7308 3.61963 16.2413 3.07904 16.6566 2.45769C16.7197 2.36333 16.7129 2.23861 16.6398 2.15174C16.5668 2.06482 16.4452 2.03672 16.3413 2.08273Z" fill="#242424"/>
</svg>
