<svg width="18" height="10" viewBox="0 0 18 10" fill="none" xmlns="http://www.w3.org/2000/svg">
<path d="M16.0219 7.0098C16.0219 7.0098 17.4772 8.40651 17.8372 9.05282C17.8442 9.06215 17.8497 9.07248 17.8534 9.08343C18.0001 9.3222 18.0361 9.50936 17.9641 9.64754C17.8426 9.87581 17.4313 9.99038 17.2918 10H14.7196C14.5405 10 14.1679 9.95452 13.7143 9.65017C13.3678 9.4149 13.0231 9.02746 12.6892 8.64877C12.1906 8.08641 11.7595 7.59839 11.323 7.59839C11.2679 7.59828 11.2131 7.60715 11.161 7.62463C10.8307 7.72608 10.4113 8.18349 10.4113 9.40178C10.4113 9.7831 10.1017 10 9.88479 10H8.70669C8.30529 10 6.21549 9.86356 4.36239 7.96484C2.09168 5.6402 0.0522811 0.976911 0.0324811 0.935806C-0.0944191 0.634074 0.171981 0.469652 0.459982 0.469652H3.05738C3.40568 0.469652 3.51908 0.674305 3.59828 0.857967C3.69008 1.06874 4.03029 1.91184 4.58829 2.85902C5.49189 4.40003 6.04719 5.02711 6.49089 5.02711C6.57425 5.02735 6.6562 5.00623 6.72849 4.96589C7.30809 4.65629 7.20009 2.64474 7.17309 2.23019C7.17309 2.14973 7.17219 1.33199 6.87519 0.93668C6.66279 0.653315 6.30099 0.543117 6.08229 0.502886C6.14079 0.420675 6.26499 0.294735 6.42429 0.220395C6.82119 0.0279866 7.53849 0 8.25039 0H8.64549C9.41769 0.010495 9.61749 0.0585971 9.89829 0.127689C10.4635 0.258877 10.4743 0.614833 10.4248 1.82701C10.4104 2.17334 10.3951 2.56341 10.3951 3.02256C10.3951 3.12052 10.3906 3.22984 10.3906 3.34091C10.3735 3.96274 10.351 4.66329 10.8028 4.95102C10.8614 4.9865 10.9291 5.00528 10.9981 5.00525C11.1547 5.00525 11.6236 5.00525 12.8953 2.88438C13.4533 1.9477 13.8853 0.843099 13.915 0.760014C13.9402 0.713661 14.0158 0.583348 14.1076 0.530873C14.1729 0.49711 14.246 0.480243 14.32 0.481896H17.3755C17.7085 0.481896 17.9344 0.530873 17.9785 0.653315C18.0523 0.851846 17.9641 1.45793 16.5691 3.29106C16.3342 3.59629 16.1281 3.86042 15.9472 4.09131C14.6827 5.70404 14.6827 5.78538 16.0219 7.0098V7.0098Z" fill="black"/>
</svg>
