<svg width="18" height="13" viewBox="0 0 18 13" fill="none" xmlns="http://www.w3.org/2000/svg">
<path d="M16.941 1.06496C16.3047 0.308548 15.1298 0 12.8862 0H4.74173C2.44672 0 1.25199 0.328451 0.618063 1.13377C0 1.91896 0 3.07587 0 4.67707V7.72895C0 10.831 0.733329 12.406 4.74173 12.406H12.8862C14.8319 12.406 15.9101 12.1337 16.6076 11.4662C17.3229 10.7816 17.6281 9.66394 17.6281 7.72895V4.67707C17.6281 2.98847 17.5803 1.82473 16.941 1.06496ZM11.3173 6.62435L7.61892 8.55724C7.53623 8.60046 7.44582 8.6219 7.35552 8.6219C7.25327 8.6219 7.15126 8.59437 7.0609 8.53967C6.89076 8.43657 6.78687 8.25216 6.78687 8.05325V4.19986C6.78687 4.00129 6.89048 3.81705 7.06028 3.7139C7.23013 3.61074 7.44138 3.60369 7.61761 3.69524L11.316 5.61568C11.5041 5.71338 11.6223 5.90763 11.6226 6.11956C11.6228 6.33167 11.5052 6.5262 11.3173 6.62435Z" fill="black"/>
</svg>
