<svg width="42" height="32" viewBox="0 0 42 32" fill="none" xmlns="http://www.w3.org/2000/svg">
<path d="M34.3925 0.932936C34.3925 0.932936 37.8685 -0.422476 37.5788 2.86924C37.4823 4.22467 36.6133 8.96861 35.9374 14.0999L33.62 29.2999C33.62 29.2999 33.4269 31.5266 31.6889 31.9139C29.9508 32.3011 27.3439 30.5585 26.861 30.1712C26.4748 29.8808 19.6194 25.5241 17.2054 23.3941C16.5295 22.8132 15.757 21.6514 17.3019 20.296L27.4404 10.6145C28.5991 9.45272 29.7578 6.74189 24.9299 10.0336L11.412 19.2311C11.412 19.2311 9.86712 20.1992 6.97047 19.3279L0.694259 17.3916C0.694259 17.3916 -1.6231 15.9394 2.33572 14.4871C11.9914 9.93673 23.8679 5.28959 34.3925 0.932936Z" fill="#FBFBFB"/>
</svg>
