<svg width="611" height="1394" viewBox="0 0 611 1394" fill="none" xmlns="http://www.w3.org/2000/svg">
<g clip-path="url(#clip0_49_2)">
<path d="M623.845 1592.57C667.159 1377.81 584.118 1146.93 489.821 929.243C395.524 711.552 287.124 490.995 277.038 267.647C268.576 79.3844 333.417 -103.046 459.256 -244.638C588.844 -390.497 776.07 -489.428 945.873 -601.601C1115.68 -713.774 1276.81 -850.134 1326.15 -1033.71M613.649 1590.81C660.87 1378.98 582.902 1149.23 491.741 932.252C400.581 715.271 294.076 495.248 283.039 272.735C273.965 94.8974 327.782 -77.9006 436.646 -217.266C443.607 -226.116 450.641 -234.811 458.024 -243.383C521.957 -317.912 601.011 -380.784 686.902 -437.626C771.336 -493.682 861.324 -543.769 946.925 -597.988C1120.2 -707.127 1283.25 -845.156 1331.49 -1030.42M603.411 1589.17C654.653 1380.31 581.527 1151.61 493.661 935.26C405.794 718.914 301.144 499.541 289.039 277.821C278.773 99.307 329.577 -74.5469 435.95 -215.694C442.679 -224.625 449.639 -233.475 456.947 -242.204C519.622 -317.952 598.047 -382.341 685.014 -438.548C770.135 -493.973 861.207 -541.993 947.975 -594.377C1124.35 -700.873 1289.72 -840.293 1336.95 -1027.08M593.215 1587.41C648.48 1381.52 580.311 1153.91 495.739 938.194C411.166 722.483 308.369 503.76 295.081 282.793C283.623 103.602 331.415 -71.3076 435.181 -214.276C441.835 -223.364 448.605 -232.41 455.681 -241.22C517.098 -318.187 594.969 -383.939 682.979 -439.78C768.787 -494.576 861.017 -540.373 948.878 -591.076C1128.54 -694.734 1296 -835.626 1342.25 -1024.05M583.019 1585.66C642.149 1382.8 578.979 1156.16 497.659 941.203C416.34 726.242 315.984 507.985 301.082 287.881C288.863 107.903 333.212 -67.9531 434.486 -212.703C440.909 -221.872 447.604 -231.074 454.448 -239.965C514.566 -318.036 591.808 -385.306 680.819 -440.666C767.314 -494.832 860.703 -538.407 949.656 -587.429C1132.6 -688.249 1302.16 -830.614 1347.28 -1020.6M572.821 1583.9C635.974 1384.01 577.762 1158.46 499.62 944.096C421.479 729.73 323.134 512.048 307.049 292.696C293.794 111.967 335.015 -64.9856 433.757 -211.402C439.989 -220.766 446.569 -230.01 453.339 -239.056C512.198 -318.347 588.96 -386.823 678.898 -441.859C766.154 -495.238 860.702 -536.591 950.79 -584.048C1137.02 -682.029 1308.67 -825.866 1352.81 -1017.5M562.584 1582.26C629.643 1385.3 576.388 1160.84 501.541 947.105C426.693 733.374 330.319 516.382 313.05 297.784C298.761 116.303 336.812 -61.6308 433.063 -209.828C439.179 -219.234 445.568 -228.673 452.147 -237.916C509.749 -318.426 585.84 -388.305 676.937 -442.935C764.88 -495.685 860.587 -534.814 951.767 -580.591C1141.24 -675.619 1315.03 -821.043 1358.19 -1014.31M552.387 1580.5C623.469 1386.51 575.171 1163.13 503.577 950.154C431.982 737.173 337.503 520.716 319.166 302.911C303.801 120.794 338.723 -58.2359 432.367 -208.255C438.293 -217.857 444.566 -227.337 451.03 -236.621C507.373 -318.35 582.91 -389.591 675.008 -443.74C763.597 -495.745 860.504 -532.767 952.735 -576.748C1145.61 -668.897 1321.26 -815.875 1363.45 -1010.78M542.191 1578.75C617.295 1387.72 573.798 1165.51 505.538 953.047C437.279 740.587 344.654 524.779 325.092 307.843C308.577 124.933 340.446 -55.0373 431.598 -206.838C437.408 -216.48 443.491 -226.157 449.764 -235.637C504.85 -318.586 579.757 -391.345 672.973 -444.973C762.248 -496.347 860.43 -531.106 953.638 -573.447C1149.92 -662.718 1327.58 -811.323 1368.75 -1007.76M531.994 1576.99C611.005 1388.89 572.581 1167.81 507.5 955.94C442.418 744.075 351.879 528.998 331.134 312.814C313.584 129.153 342.283 -51.7984 430.944 -205.38C436.563 -215.219 442.53 -224.937 448.729 -234.573C502.515 -318.626 576.794 -392.903 671.127 -446.009C761.09 -496.753 860.389 -529.174 954.846 -569.91C1154.49 -656.186 1334.17 -806.42 1374.21 -1004.42M521.797 1575.24C604.83 1390.1 571.248 1170.06 509.577 958.874C447.905 747.684 359.103 533.216 337.216 317.671C318.475 133.332 344.161 -48.6749 430.215 -204.078C435.718 -213.958 441.495 -223.872 447.462 -233.589C500.106 -318.821 573.714 -394.501 669.09 -447.242C759.74 -497.356 860.313 -527.514 955.747 -566.609C1158.75 -649.892 1340.45 -801.753 1379.51 -1001.39M511.56 1573.59C598.499 1391.38 569.991 1172.48 511.456 961.998C452.921 751.518 366.131 537.625 343.176 322.873C323.4 137.783 346.032 -45.1648 429.479 -202.39C434.792 -212.466 440.453 -222.42 446.346 -232.294C497.732 -318.745 570.67 -395.827 667.162 -448.047C758.499 -497.532 860.306 -525.311 956.758 -562.882C1163.16 -643.285 1346.84 -796.66 1384.93 -997.939M501.364 1571.84C592.284 1392.71 568.659 1174.74 513.418 964.891C458.177 755.046 373.241 541.803 349.218 327.845C328.292 141.962 347.87 -41.9256 428.825 -200.932C434.023 -211.049 439.377 -221.24 445.195 -231.269C495.323 -318.94 567.707 -397.385 665.201 -449.123C757.225 -497.978 860.306 -523.494 957.735 -559.425C1167.61 -636.794 1353.2 -791.837 1390.19 -994.797M491.167 1570.08C586.109 1393.92 567.442 1177.03 515.495 967.825C463.548 758.615 380.507 545.906 355.26 332.817C333.257 146.297 349.707 -38.6865 428.056 -199.515C433.063 -209.828 438.301 -220.06 443.888 -230.171C492.758 -319.06 564.47 -398.908 663.123 -450.241C755.834 -498.465 860.149 -521.603 958.711 -555.969C1171.95 -630.343 1359.55 -787.015 1395.57 -991.614M480.97 1568.33C579.819 1395.09 566.109 1179.29 517.415 970.834C468.721 762.374 387.575 550.2 361.26 337.904C338.107 150.592 351.544 -35.4474 427.36 -197.942C432.135 -208.336 437.3 -218.724 442.812 -228.99C490.382 -318.984 561.466 -400.35 661.236 -451.161C754.634 -498.756 860.107 -519.671 959.762 -552.356C1176.44 -623.581 1366.03 -782.152 1401.02 -988.275M470.773 1566.57C573.645 1396.3 564.892 1181.59 519.376 973.727C473.86 765.862 394.684 554.378 367.227 342.72C342.882 154.731 353.307 -32.3644 426.632 -196.64C431.332 -207.19 436.265 -217.659 441.586 -228.122C487.899 -319.335 558.469 -402.178 659.241 -452.509C753.326 -499.474 860.032 -518.01 960.705 -549.171C1180.74 -617.402 1372.35 -777.6 1406.21 -985.289M460.536 1564.93C567.314 1397.58 563.635 1184.01 521.297 976.735C478.959 769.465 401.637 558.631 373.228 347.807C347.733 159.025 355.103 -29.0098 425.937 -195.067C430.406 -205.698 435.264 -216.323 440.469 -226.826C485.524 -319.259 555.424 -403.505 657.313 -453.314C752.085 -499.649 860.025 -515.807 961.715 -545.443C1185.23 -610.639 1378.74 -772.507 1411.63 -981.835M450.34 1563.17C561.14 1398.79 562.303 1186.26 523.333 979.785C484.364 773.306 408.821 562.965 379.345 352.935C352.658 163.476 357.015 -25.6148 425.242 -193.494C429.637 -204.281 434.263 -214.987 439.278 -225.687C483.075 -319.339 552.304 -404.987 655.352 -454.391C750.811 -500.096 859.984 -513.875 962.808 -541.946C1189.75 -603.992 1385.21 -767.643 1417.12 -978.612M440.143 1561.42C554.965 1400 561.044 1188.68 525.294 982.678C489.544 776.678 415.93 567.142 385.27 357.866C357.432 167.615 358.736 -22.4167 424.471 -192.077C428.634 -202.945 433.186 -213.807 438.085 -224.548C480.624 -319.419 549.183 -406.47 653.348 -455.353C749.378 -500.468 860.016 -511.787 963.743 -538.375C1194.12 -597.271 1391.53 -762.706 1422.34 -975.355M429.831 1559.62C548.56 1401.13 559.596 1190.89 527.14 985.53C494.684 780.166 422.808 571.239 391.196 362.797C362.283 171.91 360.458 -19.218 423.702 -190.659C427.791 -201.684 432.111 -212.627 436.82 -223.564C478.059 -319.539 546.146 -408.183 651.271 -456.469C747.988 -500.955 859.859 -509.896 964.604 -534.958C1198.42 -590.704 1397.65 -757.964 1427.61 -972.212M419.634 1557.86C542.385 1402.34 558.379 1193.19 529.217 988.464C500.055 783.735 430.033 575.458 397.279 367.653C367.099 175.933 362.336 -16.0944 422.974 -189.358C426.83 -200.463 431.076 -211.562 435.594 -222.695C475.575 -319.891 542.992 -409.937 649.16 -457.858C746.564 -501.714 859.668 -508.276 965.431 -531.814C1202.68 -584.41 1403.9 -753.569 1432.84 -969.342M409.396 1556.22C536.013 1403.74 557.006 1195.57 531.096 991.588C505.187 787.609 436.944 579.826 403.238 372.856C371.867 180.458 364.091 -12.6248 422.237 -187.669C425.904 -198.971 430.033 -210.111 434.436 -221.285C473.159 -319.699 539.906 -411.149 647.191 -458.548C745.323 -501.889 859.619 -505.957 966.516 -527.93C1207.2 -577.376 1410.36 -748.319 1438.17 -965.657M399.199 1554.47C529.838 1404.95 555.789 1197.87 533.057 994.481C510.326 791.097 444.053 584.004 409.28 377.828C376.717 184.753 365.929 -9.38575 421.583 -186.211C425.134 -197.554 429.114 -209.006 433.285 -220.261C470.75 -319.894 536.868 -412.862 645.271 -459.74C744.089 -502.451 859.619 -504.141 967.534 -524.589C1211.77 -570.845 1416.76 -743.612 1443.59 -962.59M389.003 1552.71C523.665 1406.16 554.457 1200.12 535.02 997.375C515.583 794.626 451.006 588.257 415.207 382.759C381.493 188.892 367.692 -6.30224 420.74 -184.95C424.1 -196.489 427.964 -207.981 432.061 -219.392C468.268 -320.245 533.715 -414.615 643.235 -460.972C742.625 -503.093 859.504 -502.364 968.437 -521.288C1216.06 -564.278 1423.04 -738.945 1448.89 -959.563M378.806 1550.95C517.374 1407.33 553.24 1202.42 537.055 1000.42C520.87 798.425 458.073 592.55 421.322 387.886C386.301 193.301 369.603 -2.90798 420.16 -183.337C423.404 -194.917 426.962 -206.646 430.943 -218.097C465.967 -320.014 530.826 -416.017 641.348 -461.894C741.424 -503.385 859.536 -500.277 969.487 -517.676C1220.55 -557.517 1429.47 -733.967 1454.23 -956.266M368.61 1549.2C511.2 1408.54 551.907 1204.68 539.017 1003.32C526.126 801.954 465.183 596.728 427.29 392.703C391.077 197.44 371.367 0.175496 419.432 -182.035C422.486 -193.811 425.928 -205.58 429.834 -217.188C463.6 -320.324 527.599 -417.927 639.428 -463.085C740.158 -504.218 859.611 -498.304 970.621 -514.294C1225.19 -550.829 1435.99 -729.219 1459.77 -953.157M358.372 1547.56C504.869 1409.83 550.649 1207.09 540.937 1006.33C531.224 805.556 472.135 600.981 433.29 397.789C395.885 201.85 373.162 3.52975 418.62 -180.502C421.558 -192.319 424.81 -204.285 428.526 -216.089C461.034 -320.444 524.519 -419.525 637.35 -464.203C738.652 -504.746 859.453 -496.413 971.482 -510.879C1229.45 -544.148 1442.27 -724.553 1465.03 -950.015M348.175 1545.8C498.694 1411.04 549.316 1209.35 542.973 1009.37C536.629 809.397 479.162 605.389 439.406 402.917C400.694 206.26 375.074 6.9247 418.041 -178.888C420.788 -190.902 423.925 -202.909 427.409 -214.793C458.658 -320.368 521.474 -420.851 635.421 -465.008C737.41 -504.921 859.404 -494.095 972.491 -507.151C1233.85 -537.155 1448.66 -719.459 1470.29 -946.487M337.98 1544.04C492.521 1412.25 548.059 1211.77 544.935 1012.27C541.811 812.77 485.842 609.677 445.333 407.849C405.04 210.508 376.796 10.1233 417.272 -177.471C419.904 -189.525 422.85 -201.728 426.259 -213.769C456.251 -320.563 518.396 -422.449 633.461 -466.085C736.136 -505.367 859.363 -492.163 973.469 -503.694C1238.34 -530.393 1455.02 -714.636 1475.67 -943.304M327.782 1542.29C486.23 1413.42 546.726 1214.02 546.896 1015.16C547.065 816.298 492.835 613.814 451.374 412.82C410.005 214.843 378.633 13.362 416.617 -176.014C419.059 -188.264 421.889 -200.508 425.108 -212.745C453.8 -320.643 515.432 -424.006 631.54 -467.277C734.902 -505.929 859.396 -490.075 974.561 -500.198C1242.85 -522.973 1461.49 -709.774 1481.05 -940.121M317.545 1540.65C479.974 1414.86 545.469 1216.44 548.932 1018.21C552.396 819.982 500.019 618.148 457.416 417.792C414.897 219.023 380.587 16.642 415.848 -174.596C418.058 -186.928 420.814 -199.327 423.917 -211.605C451.351 -320.723 512.354 -425.604 629.538 -468.238C733.587 -506.261 859.313 -488.028 975.497 -496.626C1247.14 -516.407 1467.69 -704.876 1486.39 -936.823M307.348 1538.89C473.683 1416.03 544.136 1218.7 550.852 1021.22C557.568 823.741 507.128 622.326 463.416 422.879C419.705 223.433 382.382 19.9961 415.153 -173.023C436.073 -295.972 495.9 -422.287 627.576 -469.315C732.312 -506.708 859.272 -486.096 976.473 -493.169C1251.55 -509.801 1474.04 -700.054 1491.77 -933.641M301.066 1539.67C462.543 1416.54 534.577 1221.7 544.504 1028.73C554.374 836.636 503.164 642.088 467.679 447.34C459.327 401.204 453.061 353.981 445.255 305.96C433.924 237.238 421.392 168.227 413.263 100.758C404.257 25.1955 400.903 -49.0347 407.341 -122.559C408.077 -131.514 409.087 -140.503 410.212 -149.451C420.225 -233.661 449.008 -320.376 507.636 -383.398C534.881 -412.779 568.789 -437.101 610.228 -453.334C652.14 -469.79 698.131 -476.902 746.167 -479.534C817.459 -483.359 892.675 -477.765 964.406 -482.086C1024.91 -485.667 1082.87 -497.409 1136.17 -516.882C1197.63 -539.465 1252.11 -572.022 1298.24 -611.135C1348.33 -653.274 1389.09 -703.222 1419.19 -758.723C1449.4 -814.183 1469.11 -875.27 1476.68 -937.76M294.901 1540.5C451.446 1416.93 525.093 1224.87 538.232 1036.39C551.18 849.531 499.358 661.775 472.017 471.958C465.478 426.586 463.027 379.273 456.132 330.532C446.141 260.984 431.109 190.577 420.142 123.021C407.9 47.7526 400.946 -25.5331 403.916 -98.8452C404.263 -107.807 404.842 -116.687 405.463 -125.683C411.511 -210.113 436.429 -298.053 492.5 -363.399C518.76 -394.034 551.882 -419.799 593.04 -437.427C634.711 -455.396 681.199 -463.89 730.07 -467.397C802.439 -472.403 879.326 -466.742 952.381 -471.117C1014.21 -474.754 1073.46 -486.435 1127.21 -507.177C1189.4 -531.061 1242.49 -566.308 1286.95 -607.305C1334.94 -651.604 1373.29 -703.179 1402.37 -760.204C1431.33 -817.27 1451.43 -879.781 1461.79 -942.068M288.619 1541.28C440.19 1417.4 515.451 1228.11 531.884 1043.9C548.019 862.697 495.675 681.117 476.239 496.534C471.553 451.812 472.761 404.483 466.817 354.908C458.092 284.376 440.636 212.73 426.788 145.204C411.467 70.1536 400.756 -2.11303 400.142 -75.2535C400.101 -84.2215 400.175 -93.1489 400.365 -102.036C402.176 -186.654 423.461 -275.737 476.974 -343.406C502.092 -375.22 534.7 -402.462 575.577 -421.487C617.082 -440.811 663.877 -450.885 713.659 -455.111C786.946 -461.222 865.546 -455.61 940.157 -459.959C1003.31 -463.651 1063.76 -475.428 1118.16 -497.241C1181.01 -522.583 1232.91 -560.324 1275.62 -603.36C1321.59 -649.665 1357.56 -702.979 1385.47 -761.455C1413.26 -819.971 1433.66 -884.061 1446.7 -946.188M282.338 1542.06C428.934 1417.87 505.851 1231.23 525.536 1051.41C544.825 875.592 492.117 700.113 480.502 520.996C477.637 476.652 482.809 429.545 477.619 379.325C470.276 307.85 450.237 235.04 433.551 167.427C414.994 92.6702 400.84 21.2732 396.601 -51.5803C396.129 -60.4397 395.814 -69.3736 395.499 -78.3075C393.23 -163.187 410.65 -253.496 461.68 -323.332C485.813 -356.399 517.635 -385.085 558.346 -405.466C599.727 -426.26 646.902 -437.758 697.636 -442.818C771.999 -450.11 852.156 -444.471 928.364 -448.91C992.845 -452.656 1054.5 -464.529 1109.43 -487.454C1173.04 -514.213 1223.64 -554.488 1264.6 -599.563C1308.44 -647.914 1342.11 -702.814 1368.88 -762.855C1395.54 -822.936 1416.2 -888.49 1432.04 -950.415M276.056 1542.85C417.678 1418.33 496.209 1234.47 519.147 1059.03C541.39 888.792 488.757 718.918 484.723 545.572C483.795 501.648 492.658 454.796 488.42 403.742C482.418 331.439 459.954 257.39 440.354 189.534C418.718 114.997 400.807 44.6186 392.984 -28.0633C392.008 -36.9698 391.304 -45.9102 390.716 -54.8102C384.25 -139.993 398.037 -231.444 446.469 -303.489C469.501 -337.85 500.652 -367.938 541.082 -389.715C582.339 -411.981 629.779 -424.943 681.423 -430.722C756.704 -439.119 838.69 -433.488 916.223 -437.982C982.028 -441.784 1044.97 -453.596 1100.35 -477.788C1164.58 -505.89 1214.02 -548.775 1253.12 -595.93C1294.94 -646.286 1326.24 -702.926 1351.72 -764.457C1377.2 -825.988 1398.17 -893.122 1416.81 -954.846M269.774 1543.63C406.422 1418.8 486.525 1237.83 512.799 1066.54C538.154 901.801 485.637 737.419 488.985 570.033C489.92 526.372 502.548 479.931 499.22 428.158C494.485 354.871 469.596 279.583 447 211.716C422.36 137.553 400.616 68.0382 389.326 -4.43146C387.919 -13.2292 386.826 -22.1761 385.734 -31.1232C375.188 -116.568 385.068 -209.128 431.058 -283.456C453.105 -319.07 483.586 -350.562 523.734 -373.735C564.867 -397.471 612.688 -411.857 665.168 -418.511C741.525 -428.088 825.067 -422.431 904.156 -426.899C971.285 -430.756 1035.43 -442.664 1091.35 -467.968C1156.34 -497.488 1204.44 -542.791 1241.84 -592.1C1281.64 -644.462 1310.55 -702.843 1334.9 -765.939C1359.25 -829.035 1380.48 -897.634 1401.92 -959.155M263.492 1544.41C395.166 1419.27 476.767 1241.02 506.41 1074.16C534.72 915.001 482.948 755.811 493.207 594.61C496.003 551.212 512.282 505.142 509.906 452.535C506.552 378.304 479.197 301.893 453.647 233.899C425.886 160.07 400.468 91.3433 385.553 19.1605C383.757 10.3562 382.118 1.47719 380.636 -7.47642C365.894 -93.2233 372.066 -187.083 415.532 -263.463C436.437 -300.256 466.289 -333.266 506.272 -357.795C547.165 -383.042 595.366 -398.852 648.756 -406.225C726.148 -416.867 811.246 -411.184 891.857 -415.896C960.311 -419.808 1025.63 -431.697 1082.11 -458.228C1147.76 -489.205 1194.66 -537.003 1230.27 -588.236C1268.05 -642.603 1294.55 -702.609 1317.77 -767.27C1340.98 -831.932 1362.48 -901.995 1386.6 -963.355M257.211 1545.2C383.952 1419.62 467.043 1244.49 500.062 1081.67C531.327 928.086 509.64 774.117 497.47 619.071C510.157 577.193 522.173 530.278 520.707 476.951C518.579 401.853 488.956 324.127 460.451 256.006C429.612 182.396 400.436 114.689 382.053 42.7184C379.868 33.9076 377.84 25.022 375.812 16.1365C356.832 -69.7975 359.297 -164.957 400.279 -243.504C420.084 -281.592 449.266 -316.004 488.967 -341.929C529.694 -368.532 578.317 -385.881 632.502 -394.014C710.929 -405.721 797.624 -400.126 879.791 -404.813C949.685 -408.739 1016.21 -420.723 1073.18 -448.252C1139.56 -480.531 1185.19 -530.977 1219.06 -584.25C1254.82 -640.622 1278.94 -702.369 1300.98 -768.48C1322.91 -834.632 1344.83 -906.234 1371.74 -967.393M251.044 1546.02C372.812 1420.13 457.359 1247.85 493.788 1089.33C527.851 941.401 509.971 793.178 501.881 643.844C517.473 602.594 532.212 555.725 531.698 501.564C530.952 425.523 498.904 346.558 467.403 278.425C433.601 205.074 400.552 138.346 378.585 66.5469C375.853 57.8042 373.552 48.9527 371.136 40.0607C347.844 -46.2165 346.559 -142.56 385.175 -223.234C403.995 -262.575 432.506 -298.39 471.925 -325.711C512.529 -353.785 561.417 -372.598 616.553 -381.566C695.94 -394.493 784.422 -388.792 868.03 -393.492C939.248 -397.474 1006.94 -409.438 1064.48 -438.194C1131.51 -471.931 1175.92 -524.756 1208.08 -580.183C1241.78 -638.445 1263.57 -702.048 1284.36 -769.765C1305.14 -837.482 1327.33 -910.548 1357.04 -971.506M244.762 1546.8C361.556 1420.6 447.477 1251.39 487.44 1096.84C524.3 954.561 510.343 812.124 506.144 668.306C524.6 627.799 542.103 580.86 542.383 525.94C542.862 449.03 508.505 368.867 474.049 300.608C437.127 227.591 400.478 161.806 374.968 90.0639C371.848 81.3147 369.042 72.4161 366.236 63.5175C338.749 -23.0622 333.715 -120.589 369.732 -203.472C387.451 -244.107 415.291 -281.325 454.43 -310.042C494.793 -339.628 544.177 -359.824 600.224 -369.511C680.645 -383.503 770.725 -377.89 855.814 -382.721C928.356 -386.757 997.257 -398.817 1055.33 -428.685C1123.13 -463.839 1166.34 -519.158 1196.52 -576.706C1228.2 -636.973 1247.58 -702.201 1267.23 -771.484C1286.85 -840.651 1309.34 -915.296 1341.85 -976.052M238.481 1547.59C350.3 1421.07 437.48 1254.9 481.093 1104.35C520.635 967.68 510.601 831.03 510.407 692.767C531.768 652.889 551.994 605.996 553.226 550.242C555.087 472.389 518.305 390.987 480.894 322.6C441.009 249.843 400.528 184.922 371.394 113.466C367.885 104.71 364.533 95.8797 361.338 86.9746C329.497 0.1671 320.755 -98.6594 354.405 -183.669C371.023 -225.598 398.193 -264.219 437.166 -294.292C477.405 -325.348 527.17 -346.968 584.053 -357.53C665.509 -372.587 757.186 -367.063 843.831 -371.867C917.697 -375.959 987.922 -388.074 1046.41 -419.094C1114.86 -455.706 1156.84 -513.404 1185.28 -572.991C1215.05 -635.223 1231.93 -702.232 1250.41 -772.964C1268.89 -843.697 1291.65 -919.806 1326.8 -980.286M232.199 1548.37C339.044 1421.53 447.262 1263.26 474.703 1111.97C499.232 976.789 510.932 850.091 514.629 717.344C538.778 678.054 561.727 631.207 563.986 574.774C567.071 496.052 528.137 413.377 487.615 344.938C444.767 272.44 400.412 208.497 367.81 137.254C363.871 128.607 360.171 119.655 356.43 110.818C320.393 23.7077 310.724 -75.4433 339.069 -163.48C353.195 -207.19 381.243 -246.801 419.893 -278.155C460.008 -310.682 510.038 -333.767 567.831 -345.047C650.205 -361.21 743.596 -355.735 831.681 -360.553C906.871 -364.7 978.263 -376.795 1037.32 -409.043C1106.5 -446.957 1147.33 -507.263 1173.9 -568.93C1201.66 -633.167 1216.17 -701.918 1233.47 -774.1C1250.82 -846.397 1273.84 -923.971 1311.79 -984.249M225.876 1549.27C327.863 1422.16 438.216 1267.74 468.43 1119.63C494.912 989.549 511.263 869.152 518.966 741.961C546.02 703.3 571.693 656.498 574.787 599.19C579.097 519.601 537.896 435.612 494.419 367.046C448.608 294.807 400.38 231.843 364.194 160.771C359.75 152.077 355.62 143.233 351.49 134.39C311.099 47.052 294.942 -54.373 323.7 -143.563C338.116 -188.079 364.103 -229.58 402.472 -262.33C442.346 -296.369 492.873 -320.836 551.502 -332.992C634.953 -350.335 730.015 -344.793 819.54 -349.626C896.054 -353.827 968.655 -366.019 1028.24 -399.378C1098.08 -438.75 1137.67 -501.435 1162.54 -565.257C1188.24 -631.384 1200.37 -701.875 1216.58 -775.737C1232.75 -849.484 1256.08 -928.638 1296.82 -988.714M219.595 1550.05C316.607 1422.62 429.055 1272.19 462.041 1127.26C490.518 1002.15 511.595 888.213 523.188 766.537C553.147 728.505 581.542 681.75 585.547 623.723C591.239 543.19 547.613 457.962 501.024 389.343C452.25 317.364 400.149 255.378 360.496 184.519C355.621 175.933 351.101 167.083 346.624 158.118C302.037 70.4774 282.015 -32.1719 308.406 -123.488C321.722 -169.299 347.038 -212.203 385.241 -246.309C424.992 -281.818 475.783 -307.75 535.323 -320.625C619.807 -339.032 716.426 -333.464 807.589 -338.502C885.428 -342.758 959.311 -354.889 1019.47 -389.476C1090.08 -430.265 1126.97 -495.971 1151.48 -561.345C1176.78 -628.909 1184.92 -701.709 1199.84 -777.062C1214.87 -852.374 1238.35 -933.033 1282.01 -992.867M213.312 1550.84C305.392 1422.98 419.578 1276.78 455.693 1134.76C486.28 1014.68 511.851 907.118 527.45 790.998C560.315 753.595 591.317 706.844 596.389 648.024C603.306 566.622 557.528 480.121 507.827 411.451C455.974 339.69 400.157 278.608 356.879 208.036C351.615 199.443 346.591 190.546 341.683 181.69C292.743 93.8214 269.012 -10.1272 293.037 -103.571C305.136 -150.716 330.013 -194.941 367.935 -230.443C407.445 -267.465 458.692 -294.664 519.109 -308.529C604.628 -328.001 702.844 -322.523 795.448 -327.574C874.611 -331.886 949.702 -344.112 1010.39 -379.811C1081.61 -421.943 1118.82 -489.615 1140.12 -557.671C1161.89 -627.768 1169.16 -701.781 1182.9 -778.584C1196.65 -855.387 1220.55 -937.585 1266.89 -997.257M207.147 1551.66C294.253 1423.49 386.779 1272.95 449.42 1142.43C501.228 1034.45 512.299 926.22 531.747 815.731C567.4 778.915 601.241 732.252 607.224 672.712C615.407 590.327 567.32 502.627 514.664 433.83C459.849 362.328 400.274 302.266 353.412 231.865C347.643 223.225 342.305 214.477 336.892 205.574C283.599 117.478 256.202 12.1145 277.818 -83.3409C288.816 -131.78 313.023 -177.408 350.663 -214.306C390.05 -252.799 441.677 -281.422 503.004 -296.006C589.558 -316.543 689.487 -311.113 783.531 -316.179C864.018 -320.546 940.318 -332.868 1001.54 -369.679C1073.41 -413.268 1109.54 -483.394 1128.82 -553.455C1148.69 -625.517 1153.43 -701.195 1166.08 -779.678C1178.69 -858.046 1202.86 -941.709 1251.99 -1001.18M200.866 1552.44C282.997 1423.95 376.352 1276.56 443.073 1149.93C497.016 1047.64 512.557 945.125 536.01 840.192C574.568 804.005 611.132 757.387 617.951 696.973C627.359 613.719 577.12 524.747 521.352 455.897C463.574 384.655 400.126 325.571 349.68 255.341C343.481 246.811 337.679 237.9 331.836 229.105C274.189 140.782 242.969 34.0786 262.333 -63.4633C272.231 -113.197 295.809 -160.343 333.242 -198.481C372.388 -238.485 424.396 -268.532 486.676 -283.95C574.148 -305.593 675.79 -300.211 771.315 -305.407C853.127 -309.829 930.709 -322.091 992.384 -360.169C1065.02 -405.175 1099.92 -477.68 1117.39 -549.936C1135.31 -623.847 1137.59 -701.423 1149.07 -781.356C1160.55 -861.289 1184.98 -946.416 1236.91 -1005.68M194.584 1553.23C271.741 1424.42 365.65 1280.2 436.683 1157.56C492.646 1060.9 512.888 964.186 540.231 864.769C581.653 829.326 620.981 782.638 628.71 721.504C639.501 637.308 586.878 546.981 528.073 478.235C467.373 407.137 400.01 349.146 346.097 279.129C339.509 270.592 333.276 261.791 327.044 252.989C265.044 164.437 230.116 56.435 247.113 -43.2339C255.794 -94.3021 278.818 -142.81 316.085 -182.304C355.107 -223.779 407.496 -255.249 470.57 -271.427C559.076 -294.135 662.316 -288.842 759.397 -294.012C842.649 -298.448 921.324 -310.846 983.486 -349.922C1056.74 -396.27 1090.6 -471.343 1106.2 -545.68C1122.11 -621.596 1122.02 -700.912 1132.32 -782.295C1142.62 -863.678 1167.36 -950.384 1222.09 -1009.45M188.302 1554.01C260.485 1424.89 354.99 1283.74 430.335 1165.07C488.044 1074.08 513.145 983.092 544.494 889.23C588.821 854.416 630.756 807.733 639.553 745.806C651.568 660.741 596.677 569.101 534.918 500.227C471.371 429.429 400.06 372.261 342.522 302.531C335.545 293.987 328.766 285.254 322.186 276.33C255.833 187.551 217.081 78.2089 231.827 -23.5465C239.407 -75.9088 261.761 -125.819 298.747 -166.71C337.529 -209.696 390.414 -242.55 454.282 -259.487C543.865 -283.375 648.66 -278.056 747.181 -283.24C831.757 -287.731 911.599 -300.11 974.449 -340.372C1048.47 -388.138 1081.14 -465.705 1094.88 -542.121C1108.88 -620.002 1106.26 -700.984 1115.31 -783.973C1124.48 -866.921 1149.48 -955.091 1206.89 -1014M182.02 1554.79C249.229 1425.36 344.098 1287.19 423.987 1172.57C483.484 1087.15 513.517 1002.04 548.756 913.691C595.872 879.465 640.647 832.869 650.237 770.182C663.519 684.133 606.477 591.22 541.564 522.409C475.054 451.871 399.87 395.681 338.864 326.163C331.34 317.688 324.214 308.832 317.204 300.018C246.497 211.01 204.037 100.369 216.416 -3.51342C222.78 -57.2104 244.578 -108.483 281.399 -150.729C320.057 -195.186 373.166 -229.389 438.027 -247.276C528.644 -272.229 635.153 -266.958 735.156 -272.272C821.056 -276.818 902.222 -289.252 965.485 -330.667C1040.16 -379.89 1071.72 -459.795 1083.63 -538.406C1095.73 -618.252 1090.62 -701.015 1098.53 -785.569C1106.57 -870.082 1131.83 -959.717 1192.04 -1018.42M175.738 1555.58C237.974 1425.82 333.091 1290.6 417.599 1180.2C478.809 1100.17 513.733 1021.06 552.978 938.268C603 904.67 650.381 858.08 661.039 794.599C675.546 707.682 616.235 613.455 548.211 544.592C478.779 474.197 399.797 419.142 335.091 349.755C327.178 341.273 319.622 332.527 312.107 323.665C237.162 234.47 190.763 122.448 200.891 16.4795C206.112 -38.3962 227.439 -91.2616 263.937 -134.789C302.355 -180.757 355.96 -216.343 421.616 -234.99C513.268 -261.007 621.373 -255.826 722.932 -261.114C810.157 -265.715 892.49 -278.129 956.324 -320.771C1031.73 -371.296 1062.13 -453.81 1072.03 -534.427C1082.23 -616.237 1074.62 -700.782 1081.36 -786.785C1088.1 -872.789 1113.79 -963.963 1176.8 -1022.47M169.456 1556.36C226.759 1426.18 321.893 1293.81 411.25 1187.7C474.017 1113.16 514.106 1040 557.24 962.729C610.167 929.76 660.271 883.215 671.84 819.015C687.613 731.115 626.151 635.614 555.014 566.699C482.661 496.449 399.764 442.487 331.59 373.313C323.289 364.824 315.186 356.146 307.398 347.318C228.1 257.895 177.993 144.574 185.753 36.4784C189.758 -19.7319 210.531 -73.9593 246.747 -118.882C285.041 -166.322 339.026 -203.332 405.634 -222.813C498.32 -249.895 607.982 -244.688 711.022 -250.105C799.571 -254.761 883.112 -267.271 947.476 -311.025C1023.53 -363.008 1052.82 -447.86 1060.9 -530.672C1069.19 -614.446 1059.05 -700.657 1064.66 -788.226C1070.27 -875.795 1096.22 -968.433 1161.98 -1026.62M163.291 1557.18C215.619 1426.69 310.737 1296.91 404.977 1195.37C469.225 1126.14 514.438 1059.07 561.537 987.462C617.368 955.121 670.195 908.622 682.716 843.588C699.83 754.859 635.984 658.005 561.851 589.078C486.535 519.087 399.806 465.989 328.007 397.101C319.275 388.721 310.825 379.921 302.532 371.046C218.84 281.511 164.95 166.735 170.46 56.5525C173.363 -0.951943 193.465 -56.5824 229.516 -102.861C267.57 -151.812 322.011 -190.09 389.454 -210.446C483.134 -238.478 594.55 -233.434 699.072 -238.981C788.945 -243.692 873.81 -256.257 938.588 -301.163C1015.42 -354.564 1043.51 -441.909 1049.73 -526.801C1056.11 -612.541 1043.48 -700.532 1047.92 -789.551C1052.35 -878.57 1078.61 -972.788 1147.05 -1030.81M157.008 1557.97C204.363 1427.15 299.273 1299.77 398.629 1202.87C464.284 1138.81 514.81 1078.01 565.799 1011.92C624.419 980.17 679.854 933.677 693.401 867.964C711.507 778.286 645.783 680.124 568.538 611.145C490.3 541.298 399.657 489.294 324.39 420.618C315.153 412.191 306.273 403.499 297.591 394.618C209.545 304.855 151.79 188.854 155.09 76.4702C156.777 17.6312 176.325 -39.3613 212.094 -87.0363C250.024 -137.458 304.845 -177.159 373.125 -198.391C467.839 -227.487 580.852 -222.533 686.814 -228.094C778.011 -232.86 864.044 -245.405 929.393 -291.539C1006.83 -346.282 1033.9 -436.196 1038.25 -523.168C1042.69 -610.757 1027.49 -700.685 1030.79 -791.27C1034.09 -881.854 1060.62 -977.536 1131.86 -1035.36M150.728 1558.75C193.224 1427.66 287.737 1302.47 392.241 1210.5C459.344 1151.48 515.026 1097.03 570.137 1036.54C631.622 1005.53 689.82 958.969 704.319 892.421C723.808 801.8 655.699 702.285 575.417 633.409C494.258 563.706 399.7 512.795 320.85 444.291C311.183 435.973 301.913 427.275 292.726 418.346C200.327 328.356 138.748 211.015 139.797 96.5445C140.342 36.5267 159.261 -21.9838 194.864 -71.0144C232.554 -122.948 287.756 -164.073 356.946 -186.023C452.694 -216.185 567.305 -211.319 674.823 -216.854C767.344 -221.676 854.585 -234.316 920.58 -281.522C998.79 -337.682 1024.66 -430.089 1027.11 -519.026C1029.69 -608.694 1011.92 -700.174 1014.08 -792.323C1016.25 -884.473 1043.04 -981.619 1117.08 -1039.24M144.445 1559.53C181.967 1428.13 276.05 1304.86 385.892 1218.01C454.37 1163.88 507.511 1106.34 574.399 1061C633.351 1021.06 699.71 984.104 715.119 916.838C735.833 825.348 665.614 724.444 582.179 655.631C498.056 586.188 399.666 536.14 317.307 467.964C307.251 459.639 297.476 450.894 287.975 442.114C191.181 352.011 125.82 233.215 124.618 116.659C123.946 55.3061 142.236 -4.72256 177.748 -54.9529C215.198 -108.398 270.855 -150.791 340.922 -173.731C437.705 -204.957 553.914 -200.181 662.987 -205.69C756.833 -210.566 845.356 -223.147 911.806 -271.62C990.67 -329.238 1015.46 -424.099 1016.05 -515.115C1016.61 -606.789 996.464 -700.009 997.455 -793.608C998.447 -887.208 1025.54 -985.934 1102.38 -1043.35M138.163 1560.32C170.712 1428.6 264.488 1306.91 379.544 1225.51C449.321 1176.13 509.953 1126.79 578.662 1085.46C641.694 1047.6 709.485 1009.2 725.846 941.099C747.826 848.625 675.298 746.523 588.908 677.583C501.864 608.284 399.675 559.37 313.616 491.325C303.171 482.994 292.966 474.357 282.96 465.531C181.813 375.2 112.744 255.105 109.174 136.421C107.286 73.7336 125.137 12.3834 160.252 -39.2838C197.462 -94.2399 253.616 -138.016 324.477 -161.716C422.295 -194.007 540.216 -189.279 650.656 -194.959C745.825 -199.89 835.557 -212.566 902.495 -262.036C982.088 -320.956 1005.69 -418.311 1004.34 -511.563C1003 -605.201 980.358 -700.203 980.216 -795.367C980.073 -890.531 1007.43 -990.722 1086.95 -1047.98M131.882 1561.1C159.497 1428.95 252.736 1308.76 373.155 1233.14C444.389 1188.42 512.155 1147.54 582.883 1110.04C650.029 1074.53 719.334 1034.45 736.605 965.63C759.81 872.289 685.172 768.798 595.629 699.921C505.663 630.766 399.559 582.946 310.033 515.113C299.042 506.85 288.448 498.207 278.094 489.259C172.668 398.855 99.6596 277.38 93.7643 156.454C90.7338 92.5878 107.955 29.7196 142.905 -23.3032C179.991 -79.7302 236.409 -124.971 308.297 -149.349C407.075 -182.861 526.668 -178.066 638.664 -183.72C735.157 -188.706 826.098 -201.478 893.566 -252.06C973.812 -312.437 996.338 -412.245 993.125 -507.577C989.878 -603.18 964.708 -699.848 963.431 -796.577C962.155 -893.307 989.779 -994.962 1072.09 -1052.02M125.558 1562C148.2 1429.53 241.025 1310.5 366.766 1240.76C439.423 1200.43 514.001 1168.56 587.105 1134.62C658.165 1101.64 729.183 1059.7 747.406 990.047C771.993 895.762 695.17 790.727 602.275 722.103C509.471 652.862 399.37 606.366 306.259 538.705C294.879 530.435 283.739 521.86 272.996 512.905C163.018 422.464 86.3848 299.459 78.2383 176.446C73.9912 111.246 90.6583 47.0156 125.443 -7.36283C162.288 -65.3013 219.203 -111.925 291.927 -137.178C391.739 -171.755 512.888 -166.934 626.365 -172.717C724.258 -177.603 816.406 -190.47 884.329 -242.32C965.345 -304.115 986.837 -406.491 981.604 -503.828C976.57 -601.355 948.792 -699.845 946.225 -798.065C943.657 -896.285 971.587 -999.519 1056.82 -1056.33M119.393 1562.82C137.06 1430.04 229.596 1311.81 360.493 1248.42C434.69 1212.53 515.648 1189.77 591.443 1159.23C666.451 1129.07 739.149 1084.99 758.282 1014.62C784.094 919.467 705.003 813.118 609.154 744.367C513.386 675.385 399.453 629.753 302.834 562.418C291.065 554.142 279.535 545.561 268.246 536.674C154.031 446.046 73.3007 321.735 63.0603 196.561C57.5551 130.141 73.7092 64.4334 108.212 8.65878C144.933 -50.7505 202.229 -98.7978 275.747 -124.811C376.594 -160.453 499.341 -155.721 614.415 -161.593C713.631 -166.533 806.989 -179.496 875.557 -232.418C957.185 -295.555 977.601 -400.385 970.506 -499.802C963.568 -599.293 933.299 -699.564 929.556 -799.234C925.855 -899.019 954.05 -1003.72 1042.08 -1060.33M113.111 1563.61C125.804 1430.51 218.017 1312.82 354.145 1255.93C430.08 1224.28 516.907 1210.97 595.664 1183.81C674.421 1156.65 748.882 1110.2 768.926 1039.11C796.004 942.974 714.604 835.427 615.758 766.664C516.913 697.901 399.222 653.288 299.019 586.125C161.911 494.223 61.3503 356.475 47.65 216.594C33.9497 76.7131 115.063 -60.5681 259.493 -112.6C449.218 -181.07 717.39 -105.786 866.436 -222.637C948.834 -287.192 967.942 -394.556 959.101 -496.012C950.144 -597.509 917.458 -699.405 912.623 -800.756C907.787 -902.106 936.247 -1008.27 1026.95 -1064.72" stroke="url(#paint0_linear_49_2)" stroke-opacity="0.6" stroke-width="0.5" stroke-miterlimit="10"/>
</g>
<defs>
<linearGradient id="paint0_linear_49_2" x1="577.905" y1="1221.57" x2="1389.89" y2="-1065.37" gradientUnits="userSpaceOnUse">
<stop stop-color="#2973FF"/>
<stop offset="0.48974" stop-color="#8846D3"/>
<stop offset="1" stop-color="#FF22AC"/>
</linearGradient>
<clipPath id="clip0_49_2">
<rect width="611" height="1394" fill="white"/>
</clipPath>
</defs>
</svg>
