<svg width="766" height="1565" viewBox="0 0 766 1565" fill="none" xmlns="http://www.w3.org/2000/svg">
<path d="M352.53 11.413C340.055 137.48 400.849 265.955 467.33 386.223C533.811 506.492 608.532 627.643 627.123 755.752C642.772 863.739 616.116 972.356 552.194 1060.77C486.37 1151.84 384.853 1219.02 294.07 1292.87C203.288 1366.73 118.855 1454.05 101.141 1562.48M358.469 11.8698C343.589 136.464 401.413 264.565 466.058 384.595C530.702 504.625 604.307 625.571 623.395 753.148C638.796 855.096 617.9 957.564 563.568 1043.77C560.091 1049.25 556.562 1054.64 552.827 1059.98C520.5 1106.39 478.846 1146.91 432.932 1184.32C387.807 1221.21 339.16 1254.96 293.261 1290.85C200.314 1363.15 114.888 1451.53 97.8955 1560.88M364.425 12.2581C347.072 135.362 402.064 263.123 464.786 382.967C527.508 502.81 600.014 623.483 619.668 750.545C635.79 852.818 616.679 955.73 563.876 1042.83C560.536 1048.34 557.059 1053.81 553.376 1059.24C521.839 1106.28 480.632 1147.64 434.066 1184.75C388.511 1221.31 339.125 1253.93 292.452 1288.83C197.582 1359.77 110.903 1449.08 94.5816 1559.25M370.363 12.7149C350.537 134.329 402.628 261.733 463.428 381.389C524.228 501.046 595.635 621.446 615.923 748.009C632.767 850.608 615.441 953.964 564.235 1041.97C560.947 1047.56 557.59 1053.14 554.044 1058.6C523.297 1106.28 482.487 1148.4 435.302 1185.35C389.318 1221.59 339.14 1252.99 291.746 1286.97C194.832 1356.46 107.039 1446.74 91.3702 1557.79M376.302 13.1716C354.088 133.244 403.261 260.36 462.156 379.761C521.05 499.162 591.033 619.426 612.196 745.405C629.52 848.415 614.22 952.13 564.543 1041.02C561.392 1046.65 558.087 1052.32 554.678 1057.81C524.739 1106.06 484.375 1149.01 436.589 1185.74C390.176 1221.65 339.207 1251.84 291.091 1284.92C192.132 1352.95 103.225 1444.18 88.2958 1556.08M382.241 13.6285C357.554 132.211 403.826 258.969 460.867 378.201C517.908 497.433 586.706 617.475 608.503 742.956C626.463 846.343 613.017 950.518 564.886 1040.23C561.855 1045.97 558.618 1051.65 555.262 1057.23C526.112 1106.11 486.092 1149.73 437.758 1186.33C390.863 1221.82 339.103 1250.79 290.248 1283.03C189.246 1349.61 99.2241 1441.8 84.9478 1554.59M388.196 14.0166C361.105 131.126 404.477 257.527 459.595 376.572C514.713 495.617 582.344 615.37 604.776 740.352C623.371 844.116 611.796 948.684 565.193 1039.29C562.231 1045.04 559.115 1050.83 555.878 1056.51C527.519 1106.02 487.964 1150.41 438.942 1186.84C391.618 1222.01 339.068 1249.76 289.491 1281.09C186.461 1346.14 95.3078 1439.37 81.6848 1553.05M394.135 14.4734C364.571 130.093 405.041 256.137 458.254 374.927C511.467 493.717 577.982 613.264 600.98 737.731C620.227 841.803 610.507 946.832 565.501 1038.35C562.659 1044.2 559.612 1050 556.444 1055.7C528.875 1105.85 489.715 1151 440.093 1187.2C392.356 1221.98 338.998 1248.58 288.716 1278.93C183.573 1342.51 91.4432 1436.73 78.4735 1551.31M400.074 14.9301C368.036 129.06 405.691 254.695 456.965 373.367C508.239 492.039 573.655 611.313 597.303 735.213C617.255 839.678 609.337 945.083 565.86 1037.49C563.087 1043.36 560.16 1049.26 557.112 1055.07C530.333 1105.85 491.621 1151.83 441.329 1187.8C393.163 1222.25 338.945 1247.62 288.009 1277.08C180.754 1339.18 87.5613 1434.46 75.262 1549.85M406.012 15.387C371.57 128.044 406.256 253.305 455.676 371.807C505.096 490.309 569.276 609.276 593.559 732.678C614.147 837.52 608.1 943.317 566.151 1036.61C563.498 1042.59 560.639 1048.51 557.643 1054.4C531.672 1105.74 493.407 1152.57 442.445 1188.3C393.85 1222.42 338.858 1246.5 287.115 1275.11C177.764 1335.67 83.5081 1431.99 71.9478 1548.22M411.951 15.8439C375.036 127.011 406.89 251.932 454.319 370.23C501.747 488.529 564.897 607.239 589.798 730.211C611.107 835.379 606.845 941.62 566.493 1035.82C563.909 1041.81 561.171 1047.84 558.312 1053.76C533.062 1105.72 495.262 1153.32 443.682 1188.89C394.657 1222.7 338.805 1245.54 286.409 1273.25C174.962 1332.28 79.6441 1429.64 68.7371 1546.77M417.907 16.232C378.587 125.926 407.471 250.472 453.063 368.533C498.655 486.593 560.621 605.082 586.087 727.539C608.031 833.083 605.572 939.7 566.818 1034.81C564.354 1040.9 561.684 1046.95 558.877 1052.95C534.418 1105.55 497.081 1153.92 444.832 1189.25C395.378 1222.73 338.683 1244.27 285.617 1271.16C172.057 1328.71 75.6933 1427.06 65.4395 1545.07M423.845 16.6888C382.07 124.824 408.104 249.099 451.774 366.973C495.444 484.847 556.31 603.062 582.342 725.004C604.991 830.942 604.334 937.934 567.108 1033.93C564.713 1040.05 562.232 1046.21 559.477 1052.3C535.808 1105.53 498.867 1154.66 446.016 1189.77C396.133 1222.92 338.579 1243.22 284.859 1269.22C169.135 1325.21 71.7771 1424.62 62.2453 1543.55M429.784 17.1456C385.535 123.791 408.669 247.709 450.417 365.396C492.164 483.083 551.915 601.094 578.598 722.469C601.899 828.715 603.097 936.168 567.468 1033.08C565.193 1039.29 562.781 1045.47 560.163 1051.6C537.284 1105.46 500.807 1155.36 447.27 1190.3C396.957 1223.12 338.56 1242.13 284.102 1267.29C166.282 1321.73 67.8613 1422.19 58.9827 1542.01M435.723 17.6024C389.069 122.775 409.303 246.336 449.145 363.767C488.987 481.199 547.622 599.005 574.871 719.865C598.876 826.505 601.859 934.403 567.776 1032.13C565.638 1038.38 563.278 1044.64 560.711 1050.86C538.639 1105.29 502.61 1156.03 448.404 1190.72C397.661 1223.22 338.473 1241.01 283.293 1265.26C163.326 1318.08 63.8767 1419.74 55.6685 1540.38M441.662 18.0592C392.535 121.742 409.867 244.945 447.856 362.207C485.844 479.47 543.312 596.985 571.178 717.415C595.904 824.38 600.673 932.722 568.118 1031.34C566.032 1037.68 563.809 1043.97 561.363 1050.29C540.081 1105.35 504.431 1156.92 449.623 1191.39C398.451 1223.57 338.421 1240.05 282.57 1263.48C160.507 1314.76 59.9954 1417.47 52.5262 1538.95M447.617 18.4473C396.086 120.657 410.449 243.486 446.583 360.579C482.718 477.672 539.087 594.914 567.45 714.811C592.881 822.17 599.452 930.888 568.426 1030.4C566.477 1036.77 564.305 1043.15 561.928 1049.48C541.437 1105.18 506.25 1157.51 450.773 1191.75C399.171 1223.6 338.299 1238.78 281.777 1261.39C157.55 1311.11 56.0445 1414.88 49.2286 1537.25M453.556 18.9041C399.551 119.624 411.082 242.113 445.242 358.933C479.403 475.753 534.725 592.808 563.654 712.19C589.806 819.875 598.162 929.036 568.733 1029.45C566.836 1035.91 564.802 1042.33 562.544 1048.76C542.844 1105.09 508.122 1158.2 451.958 1192.27C399.927 1223.79 338.211 1237.67 280.951 1259.43C154.577 1307.52 52.0597 1412.43 45.897 1535.69M459.495 19.361C403.017 118.59 411.664 240.654 443.954 357.373C476.244 474.093 530.415 590.788 559.979 709.672C586.835 817.75 596.993 927.288 569.093 1028.6C567.333 1035.08 565.351 1041.59 563.162 1048.04C544.251 1105.01 509.994 1158.88 453.16 1192.71C400.768 1223.92 338.073 1236.47 280.211 1257.43C151.689 1303.89 48.1612 1409.93 42.7205 1534.1M465.502 19.8349C406.62 117.591 412.366 239.298 442.733 355.831C473.1 472.363 526.242 588.803 556.303 707.154C583.811 815.54 595.824 925.539 569.452 1027.74C567.744 1034.31 565.899 1040.85 563.83 1047.41C545.727 1104.94 511.831 1159.7 454.413 1193.24C401.592 1224.13 338.054 1235.37 279.522 1255.5C148.853 1300.34 44.3823 1407.53 39.5262 1532.58M471.441 20.2918C410.086 116.558 412.931 237.908 441.376 354.254C469.821 470.6 521.863 586.766 552.541 704.688C580.822 813.485 594.569 923.842 569.795 1026.95C568.224 1033.56 566.43 1040.18 564.482 1046.84C547.169 1105 513.737 1160.54 455.702 1193.93C402.451 1224.49 338.071 1234.42 278.868 1253.74C146.052 1296.95 40.5527 1405.34 36.3669 1531.21M477.397 20.6798C413.654 115.405 413.581 236.466 440.12 352.556C466.66 468.647 517.656 584.625 548.831 702.015C577.833 811.137 593.365 921.939 570.119 1025.94C568.669 1032.65 566.944 1039.29 565.064 1045.96C548.541 1104.76 515.574 1161.07 456.869 1194.22C403.172 1224.52 337.966 1233.09 278.024 1251.56C143.06 1293.14 36.5503 1402.67 33.1035 1529.38M483.336 21.1366C417.119 114.372 414.146 235.075 438.832 350.996C463.517 466.918 513.346 582.606 545.086 699.48C574.81 808.928 592.127 920.173 570.41 1025.06C569.028 1031.79 567.406 1038.6 565.664 1045.31C549.932 1104.74 517.411 1161.89 458.037 1194.8C403.91 1224.78 337.862 1232.04 277.249 1249.69C140.07 1289.63 32.6174 1400.3 29.8239 1527.9M489.274 21.5934C420.584 113.338 414.779 233.702 437.542 349.436C460.306 465.171 509.121 580.534 541.41 696.962C571.838 806.803 590.941 918.492 570.821 1024.29C569.559 1031.12 568.006 1037.95 566.315 1044.74C551.373 1104.81 519.317 1162.73 459.273 1195.4C404.785 1225.07 337.826 1231.01 276.543 1247.84C137.233 1286.08 28.7527 1397.96 26.6125 1526.45M495.213 22.0503C424.119 112.322 415.344 232.312 436.202 347.791C457.06 463.27 504.828 578.446 537.614 694.341C568.832 804.525 589.652 916.641 571.06 1023.33C569.867 1030.17 568.503 1037.12 566.881 1043.94C552.677 1104.55 521.052 1163.38 460.406 1195.82C405.489 1225.17 337.687 1229.81 275.734 1245.81C134.277 1282.43 24.7855 1395.44 23.3672 1524.84M501.152 22.5071C427.584 111.289 415.977 230.938 434.913 346.231C453.848 461.524 500.518 576.426 533.921 691.891C565.86 802.4 588.465 914.961 571.402 1022.54C570.33 1029.49 569.034 1036.45 567.464 1043.35C554.05 1104.6 523.009 1164.31 461.574 1196.41C406.262 1225.58 337.531 1228.68 274.891 1243.93C131.235 1278.83 20.7836 1393.06 20.0186 1523.35M507.108 22.8953C431.136 110.205 416.559 229.48 433.641 344.603C450.723 459.726 496.293 574.355 530.194 689.288C562.854 800.122 587.245 913.126 571.779 1021.61C570.775 1028.58 569.6 1035.65 568.15 1042.65C555.526 1104.53 524.864 1165.06 462.828 1196.94C407.155 1225.8 337.513 1227.58 274.202 1242.01C128.416 1275.21 16.9194 1390.71 16.8247 1521.83M513.046 23.3521C434.601 109.171 417.192 228.106 432.3 342.957C447.408 457.808 492.017 572.197 526.398 686.667C559.848 797.843 585.955 911.275 572.018 1020.65C571.134 1027.72 570.028 1034.81 568.715 1041.84C556.882 1104.36 526.684 1165.66 463.978 1197.3C407.876 1225.84 337.408 1226.24 273.41 1239.92C125.494 1271.42 12.969 1388.13 13.6134 1520.08M518.984 23.8088C438.066 108.138 417.773 226.647 431.01 341.397C444.248 456.147 487.947 570.091 522.722 684.149C557.116 795.633 584.786 909.526 572.377 1019.79C571.562 1026.88 570.575 1034.07 569.314 1041.19C558.272 1104.34 528.538 1166.41 465.162 1197.81C408.631 1226.03 337.321 1225.13 272.652 1237.98C122.537 1267.77 9.05241 1385.69 10.35 1518.54M524.924 24.2657C441.601 107.122 418.407 225.274 429.722 339.837C441.037 454.4 483.706 568.089 518.978 681.613C554.024 793.406 583.548 907.76 572.668 1018.92C571.973 1026.11 571.056 1033.31 569.915 1040.54C559.679 1104.25 530.324 1167.15 466.331 1198.39C409.37 1226.28 337.182 1223.92 271.827 1236.02C119.529 1263.74 5.06825 1383.25 7.08783 1517M530.879 24.6538C445.1 105.951 418.988 223.815 428.381 338.191C437.773 452.568 479.344 565.983 515.233 679.078C550.984 791.264 582.241 905.977 573.027 1018.06C572.47 1025.28 571.603 1032.57 570.531 1039.82C561.086 1104.17 532.178 1167.9 467.532 1198.84C410.142 1226.4 337.112 1222.74 271.086 1234.02C116.693 1260.19 1.23762 1380.76 3.8418 1515.39M536.818 25.1106C448.635 104.935 419.622 222.442 427.109 336.563C434.596 450.684 475.034 563.963 511.506 676.474C547.978 788.986 581.021 904.143 573.335 1017.11C568.413 1089.08 541.408 1165.09 468.717 1199.35C410.897 1226.59 337.025 1221.63 270.328 1232.08C113.788 1256.63 -2.67813 1378.33 0.579309 1513.85M540.37 24.3176C454.984 104.036 424.922 220.188 430.313 331.893C435.685 443.082 476.169 552.364 507.662 662.616C515.091 688.738 521.388 715.599 528.613 742.837C539.045 781.807 550.18 820.878 558.706 859.301C568.199 902.338 574.378 944.915 574.912 987.619C575.004 992.818 574.942 998.05 574.811 1003.27C573.911 1052.32 562.408 1103.84 532.457 1143.33C518.544 1161.74 500.526 1177.59 477.732 1189.2C454.681 1200.96 428.757 1207.56 401.405 1211.69C360.807 1217.77 317.422 1218.64 276.601 1225.04C242.163 1230.39 209.653 1240.31 180.255 1254.43C146.362 1270.78 117.042 1292.5 92.8744 1317.54C66.6154 1344.54 46.145 1375.53 32.0966 1409.14C17.9795 1442.73 10.1985 1478.99 9.45428 1515.4M543.852 23.5074C461.315 103.206 430.171 217.849 433.464 327.137C436.774 435.48 477.219 540.816 503.765 648.671C510.113 674.451 514.231 701.572 520.976 729.274C530.687 768.793 543.334 808.533 553.49 846.851C564.818 889.543 573.005 931.38 575.512 973.772C575.827 978.954 576.005 984.101 576.166 989.316C577.549 1038.28 568.328 1090.29 539.975 1130.99C526.698 1150.06 509.214 1166.71 486.661 1179.1C463.833 1191.72 437.705 1199.14 409.925 1203.82C368.778 1210.64 324.432 1211.57 282.856 1218.06C247.663 1223.52 214.415 1233.48 184.829 1248.35C150.594 1265.49 122.22 1288.69 99.1175 1314.72C74.1814 1342.85 55.188 1374.65 41.8099 1409.08C28.5004 1443.53 20.5832 1480.63 18.2257 1517.07M547.404 22.7143C467.733 102.324 435.505 215.459 436.668 322.467C437.828 427.724 478.217 529.474 499.938 634.744C505.187 660.251 507.211 687.58 513.459 715.814C522.502 755.969 536.608 796.29 548.411 834.434C561.49 876.833 571.77 917.879 576.319 959.977C576.857 965.141 577.327 970.288 577.728 975.417C581.547 1024.26 574.473 1076.73 547.717 1118.63C535.162 1138.32 518.056 1155.79 495.744 1168.97C473.089 1182.36 446.876 1190.71 418.616 1195.85C377.007 1203.36 331.683 1204.41 289.215 1210.97C253.267 1216.53 219.332 1226.61 189.438 1242.13C154.913 1260.15 127.363 1284.72 105.378 1311.83C81.7132 1341.01 64.1797 1373.68 51.5577 1408.88C39.0044 1444.1 31.0026 1482.13 27.1006 1518.63M550.955 21.9211C474.15 101.442 440.822 213.137 439.871 317.796C438.917 420.122 479.164 518.338 496.093 620.885C500.278 646.273 500.02 673.69 505.874 702.336C514.179 743.11 529.831 783.961 543.264 822.001C558.179 864.054 570.38 904.412 576.988 946.148C577.766 951.225 578.459 956.355 579.152 961.484C585.322 1010.25 580.531 1063.22 555.322 1106.23C543.402 1126.59 526.829 1144.85 504.69 1158.8C482.191 1173.03 455.841 1182.22 427.084 1187.9C384.927 1196.15 338.71 1197.26 295.333 1203.96C258.63 1209.63 224.009 1219.83 193.875 1236.02C158.991 1254.9 132.336 1280.85 111.467 1309.05C89.1422 1339.28 73.0169 1372.74 61.1339 1408.78C49.3196 1444.84 41.2501 1483.73 35.7349 1520.26M554.507 21.1281C480.568 100.56 446.157 210.746 443.092 313.057C440.126 412.332 480.009 507.322 492.266 606.957C495.318 632.209 492.932 659.68 498.289 688.859C505.874 730.182 522.985 771.615 538.1 809.636C554.765 851.396 569.059 890.962 577.709 932.404C578.779 937.481 579.695 942.593 580.542 947.688C589.132 996.405 586.487 1049.84 562.892 1093.97C551.677 1115.02 535.568 1134.05 513.671 1148.79C491.327 1163.86 464.91 1173.91 435.673 1180.05C393.053 1188.98 345.79 1190.2 301.657 1197.01C264.199 1202.78 228.84 1213.01 198.519 1229.96C163.361 1249.64 137.514 1277.04 117.831 1306.33C96.7774 1337.61 82.112 1371.94 71.0538 1408.77C59.9955 1445.6 51.8414 1485.42 44.713 1521.99M558.059 20.3351C486.986 99.6781 451.509 208.287 446.296 308.387C441.232 404.661 480.734 496.495 488.422 593.099C490.393 618.3 485.827 645.739 490.704 675.382C497.621 717.341 516.191 759.355 533.023 797.22C551.386 838.6 567.824 877.461 578.447 918.592C579.758 923.583 580.897 928.678 582.036 933.772C592.977 982.418 592.632 1036.27 570.566 1081.59C559.987 1103.31 544.342 1123.11 522.686 1138.64C500.498 1154.55 473.944 1165.44 444.279 1172.13C401.111 1181.8 352.955 1183.09 307.93 1189.97C269.717 1195.84 233.672 1206.19 203.111 1223.81C167.593 1244.35 142.658 1273.07 124.075 1303.51C104.293 1335.84 91.0871 1371.04 80.7679 1408.71C70.4487 1446.38 62.227 1487.05 53.4854 1523.66M561.61 19.542C493.403 98.7961 456.912 205.913 449.516 303.648C442.441 396.871 481.218 485.754 484.595 579.171C485.484 604.322 478.807 631.747 483.187 661.921C489.367 704.499 509.414 747.027 527.944 784.804C548.075 825.822 566.572 864.028 579.254 904.797C580.787 909.771 582.235 914.796 583.597 919.873C596.958 968.465 598.811 1022.87 578.308 1069.23C568.45 1091.56 553.253 1112.2 531.769 1128.51C509.805 1145.28 483.115 1157.01 452.97 1164.16C409.271 1174.5 360.223 1175.86 314.34 1182.96C275.372 1188.94 238.658 1199.34 207.84 1217.7C172.032 1239.12 147.922 1269.2 130.473 1300.65C111.962 1334.03 100.233 1370.03 90.653 1408.54C81.0728 1447.06 72.7836 1488.59 62.4974 1525.24M565.162 18.7488C499.803 97.9827 462.28 203.385 452.719 298.978C443.632 389.149 464.885 476.661 480.75 565.312C475.889 590.127 471.702 617.806 475.602 648.444C481.13 691.588 502.55 734.75 522.78 772.439C544.661 813.164 565.25 850.578 579.906 891.036C581.662 895.992 583.333 901 585.004 906.009C600.802 954.478 604.852 1009.43 585.895 1056.9C576.742 1079.92 562.009 1101.33 540.766 1118.43C518.975 1135.97 492.132 1148.61 461.575 1156.24C417.345 1167.25 367.388 1168.75 320.612 1175.92C280.821 1181.98 243.42 1192.51 212.38 1211.47C176.23 1233.67 152.997 1265.22 136.664 1297.75C119.425 1332.16 109.156 1369.05 100.332 1408.33C91.5765 1447.63 83.1339 1490.07 71.2345 1526.76M568.645 17.9388C506.153 97.0838 467.632 200.926 455.872 294.222C444.859 381.29 463.602 465.699 476.803 551.282C470.243 575.893 464.494 603.693 467.896 634.864C472.687 678.627 495.567 722.37 517.513 759.903C541.075 800.317 563.827 836.957 580.524 877.121C582.589 882.008 584.415 886.982 586.309 891.973C604.595 940.405 610.859 995.833 593.38 1044.41C584.863 1068.09 570.594 1090.27 549.592 1108.16C527.957 1126.54 501.046 1140.04 469.992 1148.2C425.282 1159.97 374.295 1161.5 326.696 1168.76C286.15 1174.93 248.08 1185.5 216.783 1205.2C180.342 1228.28 157.952 1261.13 142.719 1294.81C126.768 1330.2 117.942 1368.02 109.926 1408.16C101.909 1448.3 93.3992 1491.6 79.8866 1528.33M572.197 17.1458C512.57 96.2018 473.087 198.347 459.075 289.552C446.136 373.516 462.301 454.806 472.958 537.423C464.716 561.761 457.389 589.752 460.38 621.404C464.519 665.734 488.79 710.041 512.435 747.487C537.764 787.538 562.523 823.439 581.245 863.377C583.533 868.247 585.65 873.221 587.768 878.194C608.474 926.572 616.953 982.478 601.088 1032.18C593.275 1056.55 579.471 1079.51 558.71 1098.18C537.299 1117.42 510.183 1131.74 478.65 1140.37C433.408 1152.81 381.512 1154.48 333.072 1161.89C291.77 1168.16 253.014 1178.86 221.478 1199.22C184.678 1223.16 163.113 1257.38 149.135 1292.17C134.455 1328.61 127.106 1367.24 119.828 1408.22C112.568 1449.13 103.973 1493.36 88.8476 1530.12M575.748 16.3525C518.988 95.3197 478.609 195.784 462.279 284.882C447.482 365.759 461.069 443.93 469.114 523.564C459.172 547.698 450.283 575.811 452.777 607.995C456.18 652.943 481.91 697.833 507.254 735.191C534.265 774.932 561.167 810.126 581.948 849.702C584.46 854.555 586.886 859.459 589.226 864.415C612.438 912.687 623.114 969.14 608.727 1019.94C601.618 1045 588.278 1068.72 567.691 1088.17C546.435 1108.25 519.183 1123.41 487.221 1132.59C441.448 1145.69 388.642 1147.5 339.31 1154.98C297.254 1161.36 257.742 1172.16 226.036 1193.21C188.945 1218.03 168.222 1253.55 155.361 1289.42C141.884 1326.89 136.063 1366.41 129.542 1408.16C123.021 1449.91 114.358 1494.99 97.7051 1531.74M579.3 15.5595C525.405 94.4378 472.529 191.502 465.499 280.143C459.213 359.347 459.785 432.968 465.287 509.637C453.715 533.584 443.264 561.819 445.209 594.449C447.96 639.964 474.996 685.47 502.124 722.689C530.817 762.119 559.881 796.539 582.635 835.804C585.387 840.571 588.019 845.526 590.668 850.413C616.299 898.631 627.525 955.221 616.349 1007.48C610.769 1033.42 596.983 1057.77 576.654 1077.93C555.553 1098.85 528.234 1114.87 495.792 1124.52C449.557 1138.31 395.773 1140.24 345.617 1147.81C302.806 1154.29 262.625 1165.14 230.662 1186.93C193.229 1212.53 173.315 1249.49 161.639 1286.46C149.433 1324.98 145.072 1365.37 139.307 1407.89C133.525 1450.48 124.795 1496.42 106.529 1533.21M582.868 14.6978C531.771 93.4701 477.451 188.425 468.651 275.387C460.955 351.762 458.502 422.006 461.391 495.692C448.119 519.435 436.107 547.792 437.624 580.972C439.723 627.054 468.133 673.193 496.96 710.324C527.334 749.444 558.559 783.089 583.356 822.061C586.399 826.827 589.272 831.696 592.144 836.566C620.281 884.678 635.352 942.224 624.005 995.166C618.305 1021.59 605.808 1046.91 585.72 1067.87C564.844 1089.65 537.319 1106.49 504.449 1116.68C457.666 1131.21 402.921 1133.19 351.942 1140.85C308.375 1147.43 267.508 1158.41 235.305 1180.87C197.581 1207.35 178.51 1245.61 167.934 1283.73C157.016 1323.22 154.116 1364.49 149.072 1407.92C144.046 1451.28 135.232 1498.14 115.352 1534.97M586.42 13.9047C538.189 92.5881 482.441 185.366 471.872 270.648C462.747 344.262 457.218 411.044 457.563 481.765C442.593 505.304 429.018 533.782 430.056 567.426C431.418 614.126 461.287 660.847 491.898 697.839C523.954 736.648 557.341 769.519 584.111 808.18C587.394 812.86 590.49 817.712 593.568 822.633C624.125 870.691 641.479 928.732 631.609 982.771C626.614 1009.88 614.582 1035.98 594.666 1057.7C573.945 1080.32 546.353 1098.02 513.003 1108.68C465.689 1123.88 410.051 1125.93 358.145 1133.79C313.824 1140.48 272.219 1151.49 239.76 1174.69C201.676 1202.02 184.323 1241.88 174.04 1280.87C163.432 1321.17 162.953 1363.55 158.734 1407.77C154.447 1451.97 145.634 1499.71 124.072 1536.55M589.972 13.1117C544.589 91.7749 487.603 182.203 475.076 265.978C464.454 336.814 455.986 400.167 453.719 467.906C437.049 491.241 421.982 519.858 422.454 554.018C423.164 601.285 454.338 648.622 486.735 685.474C520.541 723.99 556.003 756.138 584.832 794.436C588.339 799.099 591.726 803.951 595.044 808.786C628.107 856.738 647.658 915.326 639.266 970.461C635.044 998.277 623.339 1025.11 603.664 1047.62C583.167 1071.1 555.388 1089.55 521.592 1100.83C473.746 1116.7 417.199 1118.89 364.47 1126.84C319.393 1133.63 277.102 1144.76 244.403 1168.62C206.047 1196.77 188.626 1237.78 180.336 1278.14C171.892 1319.7 171.98 1362.73 168.517 1407.72C165.055 1452.71 156.088 1501.36 132.982 1538.26M593.454 12.3015C550.938 90.8758 506.602 182.629 478.227 261.222C454.761 326.239 454.634 389.188 449.84 453.893C431.539 477.041 414.842 505.763 414.833 540.386C414.876 588.288 447.44 636.19 481.536 672.955C517.023 711.16 554.579 742.517 585.449 780.521C589.248 785.183 592.806 789.932 596.416 794.767C631.984 842.614 653.717 901.816 646.818 957.979C643.301 986.481 632.06 1014.08 612.627 1037.39C592.286 1061.7 564.37 1081 530.094 1092.74C481.717 1109.28 424.192 1111.59 370.639 1119.62C324.807 1126.52 281.83 1137.77 248.892 1162.31C210.244 1191.33 193.581 1233.69 186.561 1275.1C179.32 1317.69 180.954 1361.54 178.213 1407.44C175.49 1453.27 166.455 1502.78 141.736 1539.71M597.006 11.5083C557.355 89.9937 512.365 179.98 481.431 256.552C456.416 318.413 453.401 378.312 445.995 440.034C425.995 462.978 407.736 491.822 407.3 526.994C406.69 575.464 440.56 623.982 476.44 660.608C513.609 698.502 553.326 729.084 586.239 766.794C590.277 771.371 594.111 776.188 597.961 780.936C636.034 828.677 660.033 888.444 654.543 945.686C651.73 974.874 640.936 1003.31 621.693 1027.32C601.576 1052.5 573.524 1072.63 538.751 1084.9C489.912 1102.13 431.409 1104.56 377.015 1112.75C330.428 1119.75 286.713 1131.04 253.587 1156.33C214.58 1186.21 198.759 1229.87 192.908 1272.45C186.886 1316 190.031 1360.81 188.047 1407.48C186.063 1454.15 176.961 1504.51 150.628 1541.48M600.557 10.7153C563.773 89.1118 518.283 177.297 484.651 251.813C458.157 310.536 452.118 367.35 442.168 426.107C420.486 448.778 400.648 477.812 399.732 513.448C398.385 562.536 433.697 611.705 471.311 648.106C510.144 685.758 552.039 715.497 586.925 752.896C591.187 757.455 595.26 762.186 599.334 766.917C639.913 814.553 666.109 874.866 662.096 933.205C660.057 963.095 649.659 992.29 630.588 1017.07C610.626 1043.08 582.437 1064.06 547.254 1076.81C497.883 1094.71 438.471 1097.28 383.184 1105.54C335.774 1112.63 291.441 1124.05 258.092 1149.94C218.812 1180.63 203.731 1225.72 199.065 1269.39C194.315 1313.98 198.92 1359.67 197.692 1407.11C196.464 1454.55 187.277 1505.84 159.331 1542.85M604.109 9.92227C570.191 88.2299 524.183 174.683 487.855 247.143C460.035 302.693 450.886 356.474 438.324 412.248C414.943 434.715 393.612 463.888 392.129 500.04C390.131 549.695 426.817 599.496 466.13 635.81C506.576 673.134 550.684 702.185 587.629 739.221C592.114 743.763 596.496 748.425 600.776 753.207C643.86 800.737 672.322 861.614 669.719 921.032C668.384 951.608 658.449 981.575 639.62 1007.14C619.882 1034.01 591.489 1055.82 555.894 1069.05C505.975 1087.69 445.67 1090.32 389.56 1098.67C341.395 1105.86 296.392 1117.34 262.719 1143.95C223.079 1175.49 208.823 1221.95 205.344 1266.72C201.796 1312.34 207.946 1358.85 207.526 1407.15C207.037 1455.43 197.782 1507.58 168.292 1544.64M607.661 9.12919C576.609 87.3479 530.221 172.103 491.059 242.472C461.897 294.919 449.586 345.58 434.48 398.389C409.468 420.669 386.507 449.947 384.613 486.579C381.947 536.87 419.938 587.288 461.052 623.393C503.179 660.407 549.449 688.683 588.367 725.409C593.161 729.882 597.749 734.595 602.269 739.291C647.859 786.716 678.518 848.139 677.392 908.654C676.83 939.932 667.292 970.653 648.635 996.993C629.053 1024.71 600.609 1047.3 564.5 1061.13C514.05 1080.44 452.767 1083.2 395.816 1091.7C346.895 1098.99 301.138 1110.57 267.294 1137.87C227.363 1170.29 213.882 1218.04 211.57 1263.97C209.225 1310.62 216.904 1358.02 217.223 1407.16C217.473 1456.28 208.151 1509.28 177.047 1546.38M611.212 8.33604C583.026 86.4659 536.328 169.54 494.279 237.734C463.826 287.162 448.37 334.635 430.652 384.462C403.941 406.538 379.487 435.954 377.027 473.102C373.709 523.959 413.074 575.011 455.973 610.977C499.765 647.749 548.145 675.165 589.174 711.614C594.191 716.069 599.019 720.696 603.83 725.392C651.857 772.694 684.851 834.698 685.134 896.292C685.294 928.187 676.117 959.8 657.718 986.86C638.36 1015.43 609.711 1038.85 573.191 1053.16C522.209 1073.14 460.017 1076.03 402.174 1084.61C352.499 1092 306.072 1103.64 271.971 1131.67C231.698 1164.88 219.025 1214.07 217.985 1261.04C216.843 1308.73 226.05 1357.01 227.125 1406.92C228.199 1456.83 218.724 1510.75 186.008 1547.88M614.764 7.54307C589.427 85.6526 542.555 167.08 497.483 233.063C465.825 279.422 447.07 323.742 426.808 370.603C398.397 392.475 372.382 422.013 369.442 459.625C365.456 511.118 406.126 562.785 450.809 598.613C496.266 635.142 546.824 661.715 589.826 697.853C595.066 702.291 600.203 706.849 605.169 711.511C655.702 758.707 690.893 821.258 692.653 883.948C693.586 916.546 684.805 948.913 666.647 976.762C647.445 1006.17 618.66 1030.43 581.642 1045.28C530.13 1065.92 467.045 1068.89 408.361 1077.62C357.931 1085.12 310.818 1096.87 276.478 1125.58C235.914 1159.66 224.015 1210.13 224.143 1258.28C224.204 1306.98 234.957 1356.09 236.77 1406.84C238.584 1457.59 229.041 1512.37 194.728 1549.46M618.247 6.73287C595.775 84.7536 548.764 164.688 500.635 228.307C467.823 271.682 445.786 312.78 422.929 356.59C392.819 378.258 365.242 407.918 361.805 446.062C357.099 498.105 399.211 550.422 445.61 586.093C492.749 622.312 545.451 648.18 590.512 683.955C595.993 688.307 601.336 692.916 606.593 697.578C659.648 744.599 697.089 807.783 700.257 871.552C701.895 904.835 693.578 937.975 675.593 966.595C656.615 996.864 627.642 1021.88 590.196 1037.27C538.169 1058.52 474.089 1061.68 414.565 1070.56C363.379 1078.16 315.512 1090.02 281 1119.41C240.078 1154.35 229.004 1206.2 230.318 1255.44C231.581 1305.18 243.862 1355.17 246.432 1406.69C249.002 1458.21 239.374 1513.92 203.517 1551.07M621.799 5.93985C602.193 83.8716 555.163 162.417 503.839 223.637C469.925 264.113 444.486 301.887 419.085 342.731C387.344 364.212 358.274 394.011 354.289 432.602C349.068 485.245 392.331 538.214 440.516 573.746C489.318 609.723 544.2 634.747 591.234 670.211C597.006 674.563 602.589 679.086 608.07 683.73C663.63 730.646 703.354 794.325 707.914 859.242C710.325 893.228 702.403 927.122 684.66 956.531C665.837 987.64 636.728 1013.49 598.853 1029.44C546.296 1051.35 481.307 1054.65 420.958 1063.62C369.018 1071.33 320.481 1083.24 285.713 1113.37C244.517 1149.12 234.182 1202.38 236.682 1252.72C239.165 1303.42 253.026 1354.39 256.335 1406.75C259.644 1459.11 249.949 1515.67 212.478 1552.86M625.35 5.14661C608.542 82.9724 561.613 160.23 507.058 218.898C472.026 256.545 443.27 290.942 415.188 328.786C381.765 349.994 351.117 379.984 346.634 419.107C340.677 472.369 385.382 525.988 435.299 561.295C485.766 597.03 542.826 621.211 591.902 656.382C597.914 660.647 603.721 665.153 609.493 669.797C667.56 716.607 709.549 780.849 715.518 846.846C718.65 881.449 711.176 916.183 693.605 946.364C675.007 978.331 645.761 1005.03 607.407 1021.43C554.318 1044.02 488.419 1047.45 427.178 1056.49C374.483 1064.31 325.26 1076.33 290.184 1107.12C248.628 1143.72 239.119 1198.36 242.822 1249.73C246.49 1301.52 261.914 1353.25 265.962 1406.45C270.01 1459.65 260.247 1517.07 221.163 1554.29M628.902 4.35369C614.96 82.0906 568.167 158.216 510.263 214.228C474.162 249.131 447.039 285.173 411.344 314.928C379.884 341.144 344.012 366.043 339.05 405.63C332.44 459.459 378.434 513.763 430.153 548.862C482.301 584.287 541.506 607.762 592.572 642.553C598.807 646.801 604.906 651.307 610.849 655.847C671.438 702.483 715.677 767.357 723.055 834.434C726.96 869.739 719.933 905.313 702.483 936.181C684.109 969.005 654.675 996.454 615.876 1013.48C562.255 1036.74 495.447 1040.31 433.314 1049.42C379.864 1057.33 329.902 1069.4 294.639 1100.94C252.792 1138.42 244.041 1194.41 248.928 1246.87C253.868 1299.71 270.752 1352.31 275.556 1406.29C280.36 1460.26 270.512 1518.6 229.816 1555.86M632.453 3.56054C621.377 81.2086 574.669 156.407 513.466 209.558C476.35 241.802 444.468 273.526 407.5 301.069C373.585 326.309 336.975 352.119 331.516 392.238C324.238 446.703 371.623 501.572 425.04 536.583C478.853 571.765 540.168 594.381 593.345 628.895C599.803 633.126 606.141 637.545 612.377 642.085C675.471 688.615 721.908 754.037 730.762 822.21C735.441 858.217 728.741 894.529 711.601 926.203C693.451 959.885 663.813 988.157 624.601 1005.67C570.45 1029.59 502.664 1033.28 439.759 1042.57C385.553 1050.58 334.906 1062.77 299.42 1094.91C257.231 1133.18 249.305 1190.55 255.429 1244.19C261.572 1298.06 279.985 1351.55 285.527 1406.36C291.07 1461.17 281.155 1520.37 238.914 1557.69M636.005 2.76751C627.778 80.3953 581.292 154.702 516.687 204.819C478.469 234.457 442.016 261.69 403.673 287.141C367.267 311.252 329.887 338.11 323.948 378.693C316.019 433.724 364.691 489.278 419.911 524.081C475.388 559.022 538.881 580.794 594.031 614.997C600.798 619.159 607.36 623.561 613.801 628.152C679.35 674.491 728.121 740.493 738.436 809.831C743.836 846.456 737.583 883.608 720.616 916.053C702.621 950.576 672.915 979.706 633.156 997.662C578.525 1022.34 509.777 1026.09 445.98 1035.44C391.019 1043.56 339.685 1055.87 303.96 1088.68C261.481 1127.82 254.311 1186.54 261.621 1241.28C268.966 1296.18 288.925 1350.49 295.207 1406.14C301.488 1461.8 291.506 1521.86 247.651 1559.2M639.574 1.90586C634.212 79.4448 587.897 153.065 519.907 200.08C480.623 227.266 439.753 249.683 399.846 273.214C361.053 296.075 322.799 324.1 316.363 365.215C307.696 420.865 357.708 477.189 414.832 511.665C471.94 546.501 537.646 567.292 594.838 601.202C601.828 605.346 608.698 609.679 615.363 614.253C683.52 660.366 734.454 727.052 746.178 797.47C752.351 834.797 746.494 872.703 729.699 905.921C711.929 941.301 682.018 971.255 641.83 989.76C586.668 1015.11 517.028 1018.92 452.39 1028.43C396.623 1036.57 344.602 1049 308.689 1082.56C265.851 1122.57 259.421 1182.71 268.002 1238.5C276.481 1294.4 298.037 1349.63 305.143 1406.07C312.25 1462.5 302.183 1523.49 256.646 1560.86M643.056 1.09556C640.561 78.5456 594.365 151.685 523.059 195.324C482.638 220.04 437.592 237.555 395.949 259.269C354.735 280.726 315.642 310.073 308.725 351.652C299.408 407.869 350.793 464.827 409.617 499.214C468.406 533.739 536.256 553.825 595.438 587.355C602.652 591.482 609.745 595.798 616.718 600.303C687.312 646.293 740.667 713.508 753.713 785.057C760.677 823.018 755.199 861.747 738.645 895.754C721.03 931.974 690.983 962.77 650.384 981.755C594.69 1007.77 524.141 1011.73 458.594 1021.37C402.071 1029.62 349.365 1042.17 313.143 1076.38C270.031 1117.19 264.358 1178.69 274.125 1235.57C283.807 1292.51 306.891 1348.62 314.754 1405.83C322.599 1463.11 312.465 1524.96 265.315 1562.36M646.608 0.302527C646.979 77.6637 600.937 150.477 526.263 190.654C484.603 213.021 435.655 225.41 392.122 245.342C348.589 265.274 308.622 296.08 301.226 338.123C291.24 394.976 344.016 452.498 404.555 486.729C465.095 520.961 535.037 540.256 596.262 573.491C680.036 618.97 745.516 692.846 761.387 772.678C777.258 852.51 738.695 936.004 658.989 973.836C554.293 1023.6 396.433 994.83 317.804 1070.25C274.332 1111.92 269.554 1174.81 280.438 1232.77C291.391 1290.75 315.952 1347.67 324.536 1405.79C333.121 1463.91 322.919 1526.61 274.224 1564.06" stroke="url(#paint0_linear_1_18)" stroke-width="0.5" stroke-miterlimit="10"/>
<defs>
<linearGradient id="paint0_linear_1_18" x1="400.123" y1="222.626" x2="56.0826" y2="1581.56" gradientUnits="userSpaceOnUse">
<stop stop-color="#2973FF"/>
<stop offset="0.48974" stop-color="#8846D3" stop-opacity="0.12"/>
<stop offset="1" stop-color="#FF22AC" stop-opacity="0.11"/>
</linearGradient>
</defs>
</svg>
