<svg width="1510" height="3583" viewBox="0 0 1510 3583" fill="none" xmlns="http://www.w3.org/2000/svg">
<path d="M1117.88 3471.69C1112.74 3191.92 945.567 2928.32 767.992 2684.35C590.416 2440.38 394.462 2196.89 320.357 1921.74C257.94 1689.81 288.555 1444.11 406.495 1231.77C527.936 1013.05 734.19 836.219 915.067 647.9C1095.94 459.58 1259.35 243.634 1270.31 0.954746M1104.68 3472.42C1105.21 3195.18 944.684 2931.53 771.216 2687.54C597.748 2443.56 404.305 2200.19 329.242 1926.36C268.935 1707.57 288.454 1477.03 385.837 1272.33C392.079 1259.32 398.458 1246.48 405.304 1233.69C464.51 1122.58 545.786 1021.65 637.25 926.268C727.114 832.28 825.548 744.131 917.373 652.095C1103.42 466.557 1268.74 247.988 1277.88 3.53001M1091.45 3473.31C1097.83 3198.61 943.623 2934.87 774.438 2690.74C605.254 2446.6 414.302 2203.51 338.126 1930.97C276.146 1711.68 291.617 1480.69 385.402 1274.49C391.333 1261.44 397.576 1248.43 404.286 1235.47C461.587 1123.2 541.661 1020.56 634.642 925.662C725.536 832.262 825.892 746.375 919.678 656.29C1110.32 473.153 1278.15 252.186 1285.6 6.1222M1078.25 3474.05C1090.46 3201.89 942.74 2938.08 777.838 2693.8C612.937 2449.51 424.476 2206.69 347.032 1935.43C283.378 1715.64 294.801 1484.2 384.833 1276.47C390.629 1263.25 396.58 1250.05 402.978 1237.05C458.375 1123.63 537.382 1019.46 631.764 924.712C723.688 831.899 826.102 748.446 921.713 660.14C1117.23 479.595 1287.27 256.195 1293.05 8.36936M1065.05 3474.79C1082.92 3205.3 941.7 2941.28 781.062 2696.99C620.424 2452.7 435.137 2209.77 355.918 1940.04C291.098 1719.49 297.966 1487.86 384.4 1278.63C389.884 1265.38 395.699 1252 401.786 1238.97C455.258 1124.55 533.062 1018.66 628.826 924.227C721.781 832.002 826.252 750.984 923.689 664.457C1124.09 486.502 1296.33 260.669 1300.27 11.2206M1051.85 3475.52C1075.55 3208.58 940.815 2944.49 784.305 2700.03C627.794 2455.57 445.174 2212.78 364.686 1944.32C298.369 1723.14 301.033 1491.04 383.849 1280.46C389.042 1267.02 394.701 1253.62 400.652 1240.42C452.219 1124.84 529.093 1017.59 626.102 923.294C720.223 831.828 826.751 753.246 926.034 668.342C1131.31 492.979 1305.77 264.712 1308.03 13.5024M1038.63 3476.42C1068.01 3212 939.756 2947.84 787.529 2703.23C635.302 2458.61 455.328 2216.11 373.571 1948.94C305.757 1727.11 304.197 1494.7 383.416 1282.62C388.453 1269.16 393.821 1255.57 399.481 1242.18C449.143 1125.44 524.793 1016.64 623.359 922.516C718.51 831.638 827.096 755.49 928.205 672.365C1138.34 499.748 1315.02 268.894 1315.62 15.9224M1025.43 3477.15C1060.64 3215.27 938.872 2951.05 790.908 2706.44C642.944 2461.83 465.482 2219.45 382.612 1953.57C313.28 1731.26 307.517 1498.38 382.982 1284.78C387.727 1271.12 392.94 1257.52 398.444 1244.11C446.201 1126.22 520.785 1015.88 620.732 922.067C716.894 831.931 827.557 758.062 930.471 676.871C1145.64 506.864 1324.22 273.542 1323.14 18.8089M1012.23 3477.89C1053.28 3218.55 937.813 2954.4 794.152 2709.48C650.491 2464.56 475.52 2222.46 391.362 1958.01C320.377 1735.04 310.546 1501.86 382.413 1286.76C387.003 1273.09 391.924 1259.3 397.136 1245.7C442.988 1126.65 516.369 1014.6 617.854 921.116C715.046 831.568 827.922 760.151 932.506 680.721C1152.71 513.322 1333.36 277.394 1330.59 21.0555M999.03 3478.63C1045.75 3221.81 936.929 2957.61 797.395 2712.52C657.862 2467.43 485.693 2225.64 400.267 1962.46C327.784 1738.86 313.729 1505.37 381.999 1288.76C386.297 1274.9 391.062 1261.1 396.139 1247.32C440.066 1127.27 512.245 1013.51 615.266 920.355C713.489 831.394 828.402 762.568 934.987 684.779C1160.21 520.144 1342.93 281.61 1338.32 23.648M985.828 3479.36C1038.38 3225.08 935.888 2960.8 800.794 2715.57C665.699 2470.35 495.866 2228.82 409.19 1966.77C335.035 1742.66 316.932 1508.72 381.448 1290.59C385.591 1276.72 390.064 1262.72 394.83 1248.91C437.008 1127.72 507.963 1012.4 612.386 919.404C711.639 831.031 828.766 764.656 937.021 688.629C1167.26 526.758 1352.05 285.619 1345.77 25.8951M972.608 3480.26C1030.84 3228.5 934.985 2964.16 803.998 2718.92C673.012 2473.68 505.845 2232.29 418.057 1971.53C342.404 1746.79 320.233 1512.55 380.996 1292.9C384.847 1278.84 389.165 1264.82 393.794 1250.84C434.067 1128.49 503.8 1011.62 609.76 918.954C710.043 831.168 829.364 767.401 939.308 692.98C1174.58 533.717 1361.42 290.128 1353.47 28.6427M959.408 3480.99C1023.46 3231.93 933.945 2967.36 807.242 2721.96C680.539 2476.57 515.863 2235.46 426.962 1975.99C349.656 1750.59 323.417 1516.06 380.582 1294.91C384.277 1280.82 388.148 1266.6 392.642 1252.45C431.01 1128.94 499.676 1010.53 607.018 918.177C708.331 830.978 829.865 769.663 941.479 697.003C1181.92 540.521 1370.67 294.309 1360.9 31.0453M946.206 3481.73C1016.09 3235.21 933.061 2970.57 810.641 2725.02C688.221 2479.47 526.056 2238.48 435.867 1980.45C357.043 1754.56 326.6 1519.56 380.012 1296.89C383.416 1282.62 387.131 1268.38 391.313 1254.19C427.776 1129.52 495.22 1009.57 604.119 917.381C706.462 830.77 830.189 772.062 943.648 701.026C1189.11 547.308 1379.93 298.49 1368.49 33.4649M933.006 3482.47C1008.57 3238.47 932.021 2973.76 813.864 2728.21C695.707 2482.67 536.054 2241.8 444.751 1985.06C364.275 1758.52 329.784 1523.07 379.578 1299.05C382.671 1284.74 386.25 1270.33 390.296 1255.97C424.835 1130.3 491.076 1008.63 601.511 916.776C704.885 830.752 830.669 774.479 945.954 705.221C1196.57 554.441 1389.34 302.689 1376.21 36.0576M919.804 3483.2C1001.2 3241.74 931.136 2976.97 817.107 2731.25C703.078 2485.54 546.071 2244.96 453.52 1989.34C371.371 1762.3 332.832 1526.4 379.028 1300.88C381.985 1286.4 385.252 1271.95 389.007 1257.4C421.641 1130.57 486.835 1007.21 598.652 915.67C703.056 830.233 831.034 776.568 948.008 708.916C1203.64 560.9 1398.48 306.542 1383.5 38.2876M906.584 3484.09C993.657 3245.16 930.233 2980.34 820.331 2734.45C710.43 2488.56 555.914 2248.26 462.406 1993.96C378.604 1766.26 335.997 1530.06 378.595 1303.04C381.24 1288.52 384.372 1273.9 387.971 1259.33C418.7 1131.35 482.672 1006.44 596.026 915.22C701.46 830.371 831.631 779.313 950.295 713.267C1211.1 568.032 1407.85 311.051 1391.2 41.0353M893.384 3484.83C986.291 3248.44 929.194 2983.53 823.711 2737.66C718.229 2491.79 566.068 2251.6 471.447 1998.59C385.972 1770.39 339.317 1533.74 378.162 1305.19C380.671 1290.51 383.492 1275.85 386.799 1261.09C415.623 1131.95 478.372 1005.49 593.283 914.443C699.748 830.181 832.112 781.73 952.622 717.308C1218.57 575.009 1417.27 315.25 1398.95 43.4725M880.182 3485.57C978.923 3251.71 928.289 2986.89 826.954 2740.7C725.618 2494.5 576.085 2254.76 480.195 2003.03C393.067 1774.17 342.344 1537.23 377.591 1307.18C379.789 1292.46 382.474 1277.63 385.626 1262.85C412.544 1132.56 474.071 1004.53 590.519 913.82C697.858 830.128 832.727 784.319 954.771 721.486C1225.87 582.123 1426.5 319.586 1406.36 46.0304M866.826 3486.29C971.245 3254.95 927.094 2990.07 830.042 2743.72C732.99 2497.37 585.792 2257.89 488.945 2007.47C400.3 1778.12 345.373 1540.72 377.023 1309.16C379.084 1294.27 381.458 1279.41 384.318 1264.44C409.312 1133.14 469.811 1003.27 587.621 913.025C695.991 829.92 833.053 786.719 956.786 725.492C1233.04 589.066 1435.45 323.733 1413.79 48.4332M853.625 3487.02C963.877 3258.23 926.209 2993.28 833.44 2746.78C740.672 2500.28 595.965 2261.07 497.869 2011.77C407.415 1781.75 348.576 1544.07 376.472 1310.99C378.223 1296.06 380.46 1281.03 383.029 1265.87C406.118 1133.42 465.395 1001.99 584.606 911.901C694.006 829.384 833.261 788.79 958.684 729.169C1240.09 595.68 1444.45 327.413 1421.1 50.5072M840.404 3487.92C956.316 3261.8 925.15 2996.63 836.645 2750.13C748.14 2503.63 605.788 2264.53 506.735 2016.54C414.608 1786.02 351.72 1547.88 376.019 1313.31C377.478 1298.19 379.56 1283.13 381.973 1267.96C403.157 1134.35 461.211 1001.37 581.959 911.607C692.41 829.521 833.839 791.691 961.107 733.692C1247.66 603.14 1453.96 332.095 1428.76 53.5659M827.203 3488.65C948.948 3265.08 924.266 2999.84 839.888 2753.17C755.51 2506.5 615.806 2267.69 515.64 2020.99C421.84 1789.98 354.904 1551.39 375.605 1315.31C376.908 1300.17 378.718 1284.77 380.82 1269.57C400.099 1134.79 456.951 1000.11 579.236 910.673C690.717 829.175 834.339 793.952 963.297 737.56C1255.16 609.962 1463.23 336.121 1436.37 55.8301M814.003 3489.39C941.582 3268.35 923.227 3003.03 843.132 2756.21C763.038 2509.38 625.649 2270.99 524.39 2025.43C428.937 1793.76 357.953 1554.72 374.901 1317.12C375.912 1301.79 377.567 1286.38 379.532 1271C396.907 1135.07 452.536 998.829 576.358 909.723C688.713 828.795 834.684 796.197 965.332 741.411C1262.33 616.904 1472.36 340.13 1443.82 58.0781M800.801 3490.13C934.059 3271.61 922.342 3006.24 846.511 2759.42C770.679 2512.6 635.646 2274.31 533.43 2030.06C436.148 1797.87 361.272 1558.4 374.621 1319.3C375.477 1303.95 376.685 1288.33 378.495 1272.93C394.1 1136.02 448.546 997.912 573.75 909.117C687.135 828.776 835.3 798.786 967.637 745.606C1269.79 624.036 1481.75 344.483 1451.39 60.6522M787.601 3490.86C926.692 3274.89 921.302 3009.44 849.754 2762.46C778.207 2515.48 645.664 2277.47 542.199 2034.35C443.244 1801.65 364.32 1561.73 374.072 1321.12C374.637 1305.59 375.688 1289.95 377.362 1274.38C391.063 1136.31 443.995 996.46 571.027 908.184C685.327 828.103 835.937 801.22 969.983 749.491C1277.42 631.03 1491.18 348.527 1459.15 62.9345M774.38 3491.76C919.149 3278.3 920.398 3012.8 852.977 2765.65C785.557 2518.51 655.506 2280.77 551.084 2038.96C450.456 1805.76 367.483 1565.39 373.482 1323.27C373.891 1307.71 374.651 1291.88 376.034 1276.12C387.829 1136.9 439.714 995.353 568.128 907.389C683.302 827.877 836.261 803.619 971.997 753.496C1284.56 638.128 1500.3 352.535 1466.58 65.3366M761.179 3492.49C911.782 3281.58 919.358 3015.99 856.357 2768.87C793.355 2521.74 665.484 2284.25 560.124 2043.59C457.668 1809.88 370.803 1569.07 373.204 1325.44C373.322 1309.7 373.926 1293.85 374.997 1278.06C384.888 1137.67 435.55 994.575 565.501 906.939C681.705 828.015 836.838 806.52 974.283 757.847C1291.98 645.571 1509.67 357.045 1474.11 68.2226M747.979 3493.23C904.416 3284.86 918.455 3019.36 859.601 2771.91C800.747 2524.45 674.996 2287.67 568.875 2048.03C464.259 1813.92 373.833 1572.56 372.636 1327.42C372.597 1311.66 372.91 1295.63 373.846 1279.66C381.831 1138.12 431.271 993.468 562.759 906.161C679.994 827.824 837.319 808.937 976.455 761.87C1299.44 652.703 1518.93 361.226 1481.69 70.6428M734.777 3493.97C896.892 3288.12 917.414 3022.55 862.844 2774.94C808.273 2527.34 684.857 2290.81 577.779 2052.49C471.645 1817.89 377.015 1576.07 372.221 1329.43C371.891 1313.48 372.048 1297.42 372.692 1281.27C378.753 1138.72 427.145 992.379 560.035 905.228C678.3 827.479 837.935 811.526 978.78 765.91C1307.11 660.647 1528.34 365.424 1489.28 73.0623M721.557 3494.86C889.487 3291.7 916.511 3025.92 866.224 2778.16C815.936 2530.39 695.012 2294.15 586.685 2056.95C478.898 1821.69 380.356 1579.59 371.652 1331.41C371.011 1315.43 371.032 1299.2 371.52 1283.03C375.676 1139.32 422.866 991.273 557.273 904.605C676.568 827.443 838.396 814.098 980.931 770.088C1314.28 667.589 1537.42 369.744 1496.85 75.6376M708.356 3495.59C881.963 3294.96 915.471 3029.11 869.447 2781.35C823.423 2533.59 705.029 2297.31 595.569 2061.56C486.109 1825.8 383.519 1583.25 371.218 1333.57C363.44 1174.52 403.259 1000.12 554.529 903.827C674.855 827.252 838.876 816.515 983.101 774.111C1321.6 674.548 1546.68 373.925 1504.43 78.0574M700.737 3498.37C868.209 3298.79 904.377 3035.6 863.598 2792.52C822.991 2550.56 705.529 2323.05 607.624 2090.79C584.498 2035.75 563.674 1978.76 540.71 1921.21C507.646 1838.91 473.005 1756.59 444.281 1674.93C412.233 1583.45 387.602 1492.01 375.376 1398.63C373.828 1387.27 372.611 1375.79 371.549 1364.33C360.839 1256.63 372.85 1140.43 428.61 1045.17C454.496 1000.78 490.085 960.782 537.296 928.695C585.034 896.193 640.435 874.156 699.621 857.108C787.482 831.908 882.832 817.31 971.104 791.368C1045.58 769.563 1114.63 738.331 1175.74 698.81C1246.18 653.078 1305.15 596.933 1351.91 535.017C1402.77 468.2 1439.84 394.336 1462.1 316.615C1484.5 238.912 1492.26 157.215 1484.48 77.2548M693.275 3501.16C854.477 3302.46 893.421 3042.26 857.886 2803.86C822.56 2567.53 706.205 2348.65 619.816 2120.19C599.161 2065.58 583.071 2007.39 561.044 1948.69C529.425 1864.97 491.282 1781.63 458.994 1700.68C422.99 1610.49 394.129 1521.25 377.637 1429.13C375.602 1417.88 373.878 1406.66 372.174 1395.28C356.458 1288.44 363.311 1171.82 415.241 1074.4C439.553 1028.74 473.765 987.168 520.24 953.424C567.262 919.109 622.902 895.208 682.888 876.832C771.767 849.854 869.22 834.86 959.129 808.47C1035.24 786.217 1105.91 754.691 1167.24 713.461C1238.22 665.9 1294.73 606.802 1338.88 543.021C1386.54 474.115 1420.15 398.919 1440.71 319.592C1461.12 240.248 1468.96 156.67 1464.72 76.1594M685.656 3503.94C840.567 3306.27 882.288 3049.05 852.037 2815.02C822.244 2584.82 706.941 2373.78 631.851 2149.57C613.688 2095.24 602.156 2035.98 581.086 1975.97C550.775 1890.67 509.267 1806.48 473.394 1726.39C433.611 1637.35 400.344 1550.46 379.43 1459.58C376.908 1448.43 374.541 1437.3 372.33 1426.18C351.278 1320.32 353.284 1203.32 401.385 1103.74C423.948 1056.94 457.112 1013.68 502.852 978.273C549.294 942.319 604.881 916.363 665.805 896.831C755.524 868.214 855.1 852.668 946.957 825.864C1024.71 803.163 1096.86 771.172 1158.7 728.424C1230.09 678.86 1284.42 616.999 1325.84 551.18C1370.42 480.356 1400.6 403.675 1419.29 322.88C1437.83 242.068 1445.62 156.436 1444.77 75.3568M678.038 3506.72C826.659 3310.08 871.175 3055.69 846.189 2826.19C821.813 2601.79 707.736 2398.45 643.907 2178.8C628.118 2124.42 621.591 2064.3 601.284 2003.27C572.436 1916.39 527.387 1831.5 487.95 1752.11C444.212 1664.37 406.891 1579.55 381.534 1490.07C378.505 1479.18 375.652 1468.14 372.798 1457.11C346.585 1352.1 343.433 1234.68 387.84 1133.12C408.83 1085.03 440.615 1040.2 485.776 1003.16C531.658 965.408 587.327 937.571 649.208 916.727C739.944 886.333 841.468 870.373 935.293 843.001C1014.68 819.851 1088.31 787.395 1150.5 743.11C1222.47 691.562 1274.47 626.921 1313.15 559.064C1354.5 486.305 1381.37 408.31 1398.22 325.892C1414.92 243.457 1422.63 155.926 1425.33 74.2958M670.419 3509.49C812.749 3313.89 860.042 3062.49 840.32 2837.51C821.166 2619.21 708.726 2422.83 655.942 2208.19C642.684 2153.77 640.832 2092.91 621.481 2030.57C594.078 1942.28 545.663 1856.54 502.525 1777.68C455.008 1691.1 413.281 1608.62 383.503 1520.38C379.831 1509.57 376.49 1498.65 373.305 1487.74C341.776 1383.55 333.778 1265.75 374.335 1162.18C393.595 1112.8 424.158 1066.41 468.583 1027.71C513.905 988.169 569.5 958.433 632.319 936.433C723.896 904.399 827.7 887.906 923.16 860.085C1004.18 836.487 1079.43 803.739 1141.84 757.745C1214.2 704.35 1264.05 636.791 1299.83 566.878C1338.12 492.202 1361.54 412.722 1376.37 328.818C1391.2 244.915 1398.86 155.329 1405.1 73.1487M662.799 3512.27C798.839 3317.7 848.888 3069.44 834.47 2848.68C820.713 2636.33 709.931 2446.75 667.996 2237.42C657.134 2182.8 660.091 2121.36 641.678 2057.87C615.583 1967.99 563.801 1881.4 516.924 1803.39C465.763 1718.13 419.495 1637.83 385.45 1550.85C381.271 1540.3 377.444 1529.48 373.616 1518.65C336.926 1415.31 323.75 1297.25 360.633 1191.53C378.319 1140.88 407.66 1092.94 451.349 1052.58C496.111 1011.24 551.789 979.623 615.409 956.294C708.004 922.482 813.755 905.575 911.163 877.341C993.824 853.296 1070.55 820.081 1133.32 772.551C1206.24 717.171 1253.75 646.987 1286.81 574.881C1322.02 498.288 1342 417.322 1354.99 331.795C1367.97 246.268 1375.56 154.784 1385.34 72.0521M655.181 3515.04C784.93 3321.51 837.6 3076.22 828.602 2860C820.066 2653.75 711.643 2470.42 680.031 2266.8C671.564 2211.98 679.175 2149.96 661.72 2085.15C637.088 1993.7 581.922 1906.42 531.325 1829.1C476.364 1745.15 425.73 1666.88 387.243 1581.3C382.577 1570.85 378.087 1560.27 373.773 1549.55C331.766 1447.03 313.607 1328.42 346.777 1220.87C362.714 1169.08 390.852 1119.43 433.961 1077.43C478.007 1034.28 533.768 1000.78 598.325 976.294C691.917 940.86 799.615 923.539 898.856 894.563C983.153 870.07 1061.34 836.545 1124.48 787.324C1197.82 729.942 1243.15 656.995 1273.45 583.006C1305.59 504.496 1322.11 422.199 1333.25 335.049C1344.39 247.899 1351.91 154.515 1365.08 71.2154M647.563 3517.82C771.041 3325.16 826.428 3083.33 822.754 2871.16C819.439 2671.01 749.976 2485.56 692.087 2296.03C696.373 2240.26 698.436 2178.41 681.917 2112.45C658.575 2019.57 600.218 1931.3 545.901 1854.67C487.16 1771.88 432.121 1695.95 389.367 1611.63C384.215 1601.29 379.238 1590.81 374.261 1580.33C326.917 1478.79 303.776 1359.62 333.252 1250.09C347.46 1197 374.376 1145.8 416.749 1102.14C460.215 1057.35 516.079 1021.81 581.417 996.155C676.006 959.099 785.672 941.21 886.86 911.82C972.949 886.896 1052.62 852.906 1116.09 802.304C1189.98 743.092 1233 667.21 1260.56 591.183C1289.63 510.755 1302.71 426.972 1311.99 338.354C1321.11 249.718 1328.72 154.299 1345.44 70.4477M640.099 3520.61C757.286 3328.99 815.274 3090.28 817.04 2882.5C818.772 2688.58 755.64 2509.19 704.413 2325.61C712.496 2269.78 717.967 2207.21 702.406 2139.94C680.527 2045.49 618.804 1956.37 560.747 1880.59C498.383 1798.97 438.782 1725.37 391.606 1642.29C385.791 1632.19 380.483 1621.83 375.019 1611.45C322.203 1510.72 294.06 1391.16 319.998 1279.66C332.632 1225.29 358.325 1172.53 399.963 1127.22C442.869 1080.63 498.659 1043.19 564.955 1016.22C660.404 977.372 772.33 959.104 875.31 929.284C963.036 903.912 1044.16 869.612 1108.01 817.318C1182.32 756.104 1223.14 677.615 1247.99 599.395C1273.97 517.205 1283.62 431.78 1290.89 341.521C1298.17 251.262 1305.71 153.944 1325.97 69.5419M632.48 3523.39C743.377 3332.8 803.926 3097.53 811.191 2893.67C817.969 2705.98 761.324 2532.67 716.468 2354.84C728.327 2299.12 737.227 2235.67 722.447 2167.22C701.857 2071.34 636.924 1981.39 575.147 1906.3C508.983 1825.99 445.153 1754.6 393.574 1672.6C387.272 1662.6 381.322 1652.33 375.371 1642.06C317.238 1542.16 284.093 1422.19 306.181 1308.69C317.086 1253.02 341.556 1198.71 382.458 1151.74C424.649 1103.34 480.677 1064.04 547.911 1035.91C644.357 995.439 758.25 976.602 863.042 946.196C952.404 920.375 1035.01 885.609 1099.22 831.779C1174.09 768.581 1212.74 687.328 1234.53 607.036C1257.44 522.929 1263.64 436.173 1269.06 344.291C1274.47 252.564 1281.96 153.191 1305.77 68.2385M624.862 3526.16C729.468 3336.6 792.422 3104.75 805.343 2904.83C817.011 2723.36 766.853 2556.13 728.524 2384.06C744.179 2328.3 756.487 2264.12 742.665 2194.36C723.539 2096.91 655.24 2006.12 589.743 1931.71C519.955 1852.57 451.584 1783.36 395.563 1702.76C388.774 1692.86 382.161 1682.83 375.723 1672.66C312.098 1573.73 273.971 1453.21 292.52 1337.73C301.696 1280.77 324.944 1224.9 365.266 1176.3C406.896 1126.1 463.007 1084.92 531.042 1055.46C628.485 1013.37 744.346 993.962 851.086 963.142C942.085 936.873 1026.33 901.659 1090.73 846.276C1166.02 781.075 1202.48 697.215 1221.53 614.885C1241.52 528.877 1244.12 440.619 1247.68 347.269C1251.25 253.918 1258.66 152.647 1285.84 67.2813M617.242 3528.94C715.558 3340.41 806.926 3112.35 799.474 2916.15C792.827 2740.84 772.517 2579.76 740.558 2413.45C759.854 2357.62 775.571 2292.72 762.842 2221.82C745.004 2122.93 673.671 2031.18 604.278 1957.59C530.867 1879.63 457.934 1812.74 397.647 1733.4C390.351 1723.76 383.271 1713.68 376.17 1703.75C307.228 1605.64 267.856 1484.98 278.955 1367.26C284.533 1308.8 308.602 1251.45 348.169 1201.33C389.239 1149.34 445.277 1106.26 514.249 1075.65C612.533 1031.92 730.518 1011.96 839.049 980.71C931.684 953.993 1017.39 918.469 1082.17 861.394C1158 794.364 1192.31 707.586 1208.46 623.2C1225.39 535.275 1224.54 445.531 1226.24 350.713C1227.96 255.739 1235.3 152.568 1266.02 66.6517M609.604 3531.87C701.785 3344.4 796.879 3120.53 793.761 2927.49C790.954 2757.96 778.181 2603.4 752.749 2442.85C775.842 2386.97 794.967 2321.35 783.039 2249.12C766.49 2148.8 691.967 2056.06 618.854 1983.17C541.819 1906.37 464.324 1841.81 399.615 1763.71C391.677 1754.16 384.09 1744.34 376.502 1734.51C302.068 1637.37 253.976 1515.74 265.274 1396.46C270.991 1336.91 291.969 1277.8 330.8 1226.03C371.155 1172.22 427.431 1127.28 497.205 1095.34C596.506 1049.83 716.593 1029.47 826.917 997.794C921.189 970.628 1008.38 934.639 1073.51 876.028C1149.76 806.996 1181.87 717.61 1195.3 631.031C1209.14 541.344 1204.85 450.114 1204.72 353.517C1204.57 257.075 1211.86 151.85 1246.13 65.3831M601.985 3534.65C687.876 3348.2 786.678 3128.69 787.893 2938.81C788.946 2774.91 783.846 2627.03 764.785 2472.24C791.673 2416.3 814.208 2349.96 803.217 2276.57C788.132 2174.69 710.243 2081.1 633.235 2009.03C552.575 1933.41 470.52 1871.18 401.544 1794.33C393.099 1785.04 385.025 1775.32 376.97 1765.44C297.219 1669.13 243.97 1547.08 251.729 1425.84C255.717 1364.99 275.473 1304.32 313.724 1250.91C353.518 1195.31 409.721 1148.47 480.433 1115.37C580.73 1068.24 702.766 1047.47 815.077 1015.07C910.985 987.454 999.789 951.173 1065.29 890.87C1142.11 819.853 1170.03 727.479 1182.59 639.069C1195.53 547.708 1185.62 454.749 1183.47 356.667C1181.48 258.602 1188.54 151.461 1226.51 64.4598M594.366 3537.42C673.986 3351.86 776.124 3137.13 782.044 2949.98C787.112 2791.73 789.373 2650.49 776.839 2501.46C807.524 2445.48 833.311 2378.39 823.434 2303.72C809.637 2200.4 728.713 2105.84 647.809 2034.6C563.371 1960.13 476.929 1900.09 403.511 1824.65C394.579 1815.46 385.862 1805.82 377.301 1796.21C292.058 1700.85 233.826 1578.25 238.048 1455.04C240.15 1392.88 258.995 1330.69 296.51 1275.63C335.589 1218.21 392.011 1169.66 463.543 1135.08C564.838 1086.32 688.841 1064.99 802.945 1032.15C900.489 1004.09 990.774 967.343 1056.63 905.504C1133.85 832.64 1161.61 737.729 1169.43 646.901C1177.28 553.397 1165.95 459.177 1161.94 359.627C1157.92 260.076 1165.09 150.899 1206.44 63.3295M586.904 3540.22C660.233 3355.68 734.161 3141.76 776.332 2961.32C811.202 2812.05 795.194 2674.14 789.011 2531.02C823.337 2474.97 852.688 2407.18 843.748 2331.34C831.259 2226.44 747.126 2131.05 662.502 2060.5C574.439 1987.2 483.592 1929.51 405.752 1855.3C396.177 1846.2 387.11 1836.84 377.906 1827.31C287.17 1732.92 223.976 1609.61 224.64 1484.58C225.013 1421.13 242.634 1357.39 279.414 1300.66C317.933 1241.46 374.437 1191.02 446.907 1155.29C549.199 1104.91 675.325 1083.02 791.221 1049.75C890.401 1021.24 982.167 984.031 1048.38 920.657C1126.01 845.79 1151.76 748.133 1156.5 655.388C1161.43 559.984 1146.49 464.417 1140.65 363.088C1134.79 261.914 1141.88 150.837 1186.78 62.7171M579.285 3542.99C646.324 3359.49 722.151 3149.24 770.483 2972.48C809.581 2829.68 800.723 2697.6 801.067 2560.25C839.189 2504.15 871.949 2435.63 863.81 2358.47C852.61 2252.13 765.442 2155.78 676.922 2086.05C585.236 2013.93 489.827 1958.57 407.565 1885.6C397.484 1876.76 387.793 1867.33 378.082 1858.05C281.855 1764.63 213.522 1640.75 210.803 1513.77C209.447 1449.02 225.866 1383.57 262.046 1325.36C299.849 1264.34 356.436 1212.02 429.863 1174.98C532.996 1122.96 661.246 1100.52 778.953 1066.67C879.77 1037.71 973.152 1000.2 1039.58 935.119C1117.78 858.267 1141.34 758.003 1143.21 663.047C1145.2 565.898 1126.68 468.672 1118.98 365.875C1111.27 263.078 1118.29 150.102 1166.73 61.4316M571.666 3545.77C632.414 3363.3 709.808 3156.85 764.614 2983.81C807.784 2847.44 806.387 2721.24 813.102 2589.64C855 2533.64 891.188 2464.24 883.987 2385.92C874.251 2278.02 783.737 2180.66 691.458 2111.93C596.167 2040.83 496.178 1987.95 409.649 1916.24C399.08 1907.5 388.883 1898.33 378.685 1889.16C276.965 1796.7 203.651 1672.26 197.394 1543.31C194.152 1477.25 209.505 1410.27 245.105 1350.42C282.348 1287.6 339.017 1233.4 413.226 1195.18C517.355 1141.54 647.573 1118.53 767.228 1084.27C869.837 1054.88 964.545 1016.89 1031.31 950.426C1109.9 871.728 1131.46 768.563 1130.44 671.552C1129.36 572.486 1107.39 473.774 1097.82 369.508C1088.25 265.243 1095.22 150.214 1147.21 60.9919M564.047 3548.55C618.504 3367.11 697.486 3164.3 758.765 2994.97C805.676 2865.17 811.915 2744.7 825.157 2618.86C870.851 2562.82 910.292 2492.68 904.204 2413.07C895.756 2303.73 802.052 2205.38 706.053 2137.35C607.294 2067.43 502.608 2016.71 411.637 1946.4C400.581 1937.76 389.721 1928.83 379.057 1919.61C271.845 1828.11 193.392 1703.1 183.752 1572.2C178.781 1504.85 192.911 1436.31 227.776 1374.8C264.303 1310.17 321.211 1254.11 396.201 1214.72C501.347 1159.3 633.513 1135.88 754.96 1101.18C859.206 1071.34 955.374 1033.04 1022.67 964.905C1101.83 884.222 1121.21 778.295 1117.29 679.227C1113.3 578.262 1087.72 478.201 1076.15 372.296C1064.73 266.407 1071.63 149.478 1127 59.6885M556.428 3551.32C604.595 3370.92 684.852 3171.72 752.916 3006.14C803.587 2882.74 817.599 2768.18 837.211 2648.09C886.546 2591.98 929.552 2521.14 924.245 2440.35C917.106 2329.42 820.367 2230.11 720.452 2163.06C618.069 2094.31 508.822 2045.92 413.584 1976.87C401.867 1968.47 390.539 1959.49 379.368 1950.53C266.664 1859.99 183.229 1734.43 170.051 1601.56C163.195 1532.89 176.258 1462.81 210.542 1399.67C246.509 1333.24 303.324 1275.44 379.291 1234.58C485.435 1177.54 619.724 1153.56 742.983 1118.28C848.865 1088 946.669 1049.25 1014.16 979.557C1093.74 896.872 1111.08 788.354 1104.29 687.076C1097.38 584.21 1068.2 482.647 1054.79 375.118C1041.53 267.606 1048.34 148.778 1107.27 58.4375M548.81 3554.1C590.686 3374.73 672.063 3179.12 747.048 3017.46C801.344 2900.29 823.108 2791.79 849.247 2677.48C902.378 2621.31 948.637 2549.73 944.443 2467.65C938.592 2355.29 838.663 2254.99 734.853 2188.77C628.866 2121.04 515.193 2075.14 415.378 2007.32C403.173 1999.03 391.339 1990.3 379.525 1981.43C261.484 1891.87 172.755 1765.72 156.195 1630.9C147.59 1561.09 159.626 1489.17 193.155 1424.52C228.406 1356.28 285.459 1296.61 362.208 1254.58C469.349 1195.91 605.605 1171.37 730.812 1135.68C838.33 1104.94 937.596 1065.89 1005.46 994.502C1085.59 909.987 1100.78 798.551 1090.91 695.356C1081.09 590.59 1048.31 487.524 1033.03 378.526C1017.75 269.529 1024.67 148.665 1087.14 57.7734M541.191 3556.87C576.796 3378.38 658.982 3186.33 741.199 3028.62C798.944 2917.83 828.792 2815.27 861.302 2706.71C918.229 2650.49 967.897 2578.19 964.64 2494.95C960.097 2381 857.134 2279.74 749.428 2214.34C639.837 2147.63 521.583 2104.22 417.501 2037.65C404.809 2029.46 392.313 2020.98 380.168 2012.22C256.634 1923.63 162.923 1796.93 142.825 1660.14C132.335 1589.01 143.304 1515.55 176.097 1449.25C210.789 1379.21 267.924 1317.66 345.63 1274.32C453.768 1214.03 591.972 1189.08 718.991 1152.79C828.145 1121.61 928.891 1082.09 997.113 1009.17C1077.65 922.654 1090.81 808.628 1078.07 703.222C1065.33 596.556 1028.93 492.142 1011.81 381.521C994.678 270.9 1001.53 148.137 1067.52 56.85M533.728 3559.67C563.043 3382.21 645.922 3193.38 735.486 3039.96C796.545 2935.37 834.457 2838.9 873.473 2736.27C934.197 2680 987.273 2606.97 984.974 2522.42C981.875 2407.06 875.566 2304.79 764.12 2240.24C650.905 2174.7 528.11 2133.46 419.586 2068.29C406.387 2060.36 393.424 2051.82 380.636 2043.15C251.59 1955.69 152.761 1828.25 129.28 1689.51C117.061 1617.09 126.807 1542.08 159.021 1474.13C192.996 1402.28 250.35 1339.03 328.858 1294.35C437.972 1232.6 578.32 1206.94 707.151 1170.07C817.942 1138.44 920.324 1098.47 988.744 1024C1069.85 935.493 1080.83 818.705 1065.2 711.243C1049.55 602.678 1009.55 496.76 990.559 384.671C971.567 272.582 978.362 147.765 1047.74 55.9095M526.108 3562.44C549.132 3386.02 632.412 3200.23 729.637 3051.13C793.873 2952.56 840.14 2862.38 885.527 2765.49C949.892 2709.16 1006.22 2635.39 1005.01 2549.7C1002.89 2432.87 893.88 2329.52 778.539 2265.79C661.72 2201.27 534.344 2162.51 421.553 2098.6C407.712 2090.76 394.242 2082.48 380.967 2073.91C246.429 1987.41 142.442 1859.56 115.599 1718.71C101.494 1644.98 110.174 1568.43 141.652 1498.82C175.067 1425.18 232.504 1360.04 311.813 1314.04C421.924 1250.67 564.239 1224.43 694.862 1187.13C807.289 1155.06 911.133 1114.78 979.927 1038.61C1061.43 948.264 1070.41 828.574 1051.88 719.058C1033.29 608.747 989.566 501.153 968.728 387.441C947.89 273.729 954.612 147.013 1027.54 54.6065M518.491 3565.22C535.38 3389.85 618.77 3206.91 723.77 3062.45C791.204 2969.75 845.65 2886 897.72 2794.9C965.861 2738.67 1025.62 2664.02 1025.37 2577.02C1024.71 2458.62 912.353 2354.26 793.252 2291.53C672.829 2228.03 540.872 2191.76 423.659 2129.08C409.311 2121.5 395.354 2113.33 381.436 2104.85C241.406 2019.31 132.281 1890.89 102.055 1748.09C86.2015 1673.21 93.6784 1594.95 124.576 1523.71C157.276 1448.25 214.795 1381.23 295.042 1334.07C406.15 1269.08 550.432 1242.28 683.003 1204.56C797.067 1172.04 902.391 1131.29 971.695 1053.61C1053.77 961.276 1060.58 838.824 1039.13 727.407C1017.65 615.041 970.282 506.255 947.599 390.919C924.916 275.584 931.565 146.969 1008.03 54.0118M510.871 3567.99C521.47 3393.65 604.853 3213.23 717.92 3073.62C788.415 2986.61 838.839 2899.74 909.774 2824.13C972.295 2757.5 1044.88 2692.47 1045.56 2604.32C1046.2 2484.49 930.823 2379 807.806 2317.26C683.76 2254.93 547.261 2220.83 425.762 2159.57C410.927 2152.09 396.327 2144 382.058 2135.8C236.516 2051.38 122.273 1922.23 88.6644 1777.48C70.9256 1701.29 77.1998 1621.32 107.654 1548.61C139.638 1471.34 197.375 1402.61 278.443 1353.97C390.548 1287.35 536.798 1259.98 671.317 1221.86C787.017 1188.88 893.958 1147.84 963.48 1068.45C1045.97 974.115 1050.76 848.917 1026.42 735.445C1001.86 621.162 951.054 510.89 926.506 394.087C901.958 277.283 908.554 146.614 988.566 53.1056M503.253 3570.77C507.56 3397.46 590.997 3219.1 712.071 3084.78C785.492 3003.3 847.518 2924.49 921.829 2853.36C990.012 2788.15 1063.98 2720.91 1065.63 2631.45C1067.57 2510.03 948.983 2403.71 822.246 2342.66C694.595 2281.34 553.671 2249.75 427.594 2189.71C412.272 2182.33 397.165 2174.51 382.254 2166.39C231.22 2082.93 111.994 1953.23 74.8478 1806.51C55.2239 1729.01 60.5867 1647.52 90.1494 1573.13C121.418 1494.05 179.394 1423.46 261.243 1373.64C374.345 1305.4 522.718 1277.48 658.893 1238.75C776.23 1205.33 884.651 1163.82 954.508 1083.05C1037.54 986.886 1040.16 858.925 1012.79 743.225C985.318 627.042 930.914 515.266 904.52 396.839C878.127 278.412 884.65 145.845 968.05 51.7681M495.634 3573.55C493.671 3401.12 576.849 3224.77 706.202 3096.1C782.725 3020.01 855.982 2949.7 933.864 2882.74C1007.82 2819.28 1083.22 2749.52 1085.8 2658.9C1089.03 2536.05 967.434 2428.61 836.782 2368.54C705.527 2308.24 560.022 2279.13 429.678 2220.35C413.694 2213.21 398.1 2205.49 382.722 2197.32C226.331 2115 101.812 1984.71 61.1469 1835.86C39.7737 1757.23 43.9338 1674.03 72.9166 1598C103.625 1517.12 161.527 1444.63 244.47 1393.67C358.433 1323.64 508.91 1295.32 647.033 1256.18C766.006 1222.31 875.908 1180.34 946.119 1098.03C1029.57 999.863 1030.17 869.157 999.9 751.402C969.514 633.318 911.492 520.195 883.253 400.144C855.015 280.094 861.464 145.627 948.409 50.9998M487.995 3576.48C479.742 3405.08 562.721 3230.29 700.334 3107.42C779.842 3036.39 864.075 2975.34 945.899 2912.12C1025.44 2850.71 1102.46 2778.13 1106 2686.2C1110.69 2561.78 985.944 2453.05 851.182 2394.25C716.363 2334.66 566.237 2308.34 431.471 2250.8C414.999 2243.77 398.743 2236.29 382.878 2228.22C220.8 2147.16 91.3379 2016 47.2905 1865.2C24.0323 1785.25 27.1255 1700.52 55.5283 1622.85C85.5207 1540.16 143.662 1465.8 227.406 1413.52C342.366 1341.86 494.79 1313.13 634.725 1273.4C755.47 1239.26 866.853 1196.82 937.283 1112.8C1021.3 1012.65 1019.9 879.044 986.564 759.371C953.419 639.405 891.643 524.761 861.384 403.225C831.124 281.69 837.52 145.169 928.166 50.0077M480.533 3579.27C465.989 3408.91 548.83 3235.2 694.621 3118.76C777.27 3052.81 871.973 3001.27 958.091 2941.53C1043.33 2882.47 1121.86 2806.76 1126.34 2713.67C1132.32 2587.82 1004.38 2478.1 865.894 2419.99C727.451 2361.57 572.783 2337.43 433.731 2281.3C416.773 2274.37 400.03 2267 383.502 2259.17C216.087 2179.09 81.1559 2047.48 33.9017 1894.59C8.73852 1813.49 10.7849 1727.06 38.4521 1647.73C67.8844 1563.25 126.108 1487.01 210.633 1433.55C326.59 1360.27 480.983 1330.97 622.885 1290.68C745.267 1256.08 858.13 1213.18 929.07 1127.64C1013.48 1025.65 1010.07 889.293 973.831 767.565C937.771 645.699 872.398 529.552 840.273 406.548C808.168 283.389 814.491 144.969 908.681 49.2575M472.914 3582.05C452.079 3412.72 534.665 3239.77 688.772 3129.93C774.758 3068.76 879.383 3027.3 970.126 2970.91C1060.87 2914.52 1140.94 2835.36 1146.36 2741.11C1153.65 2613.67 1022.5 2503.12 880.274 2445.86C738.051 2388.59 578.978 2366.79 435.504 2311.91C239.186 2236.81 75.8216 2094.16 20.2007 1923.95C-35.4202 1753.74 27.9265 1559.59 193.725 1453.41C411.488 1313.79 766.689 1330.63 920.389 1142.43C1005.37 1038.45 999.627 899.318 960.651 775.552C921.52 651.769 852.685 534.291 818.735 409.508C784.784 284.726 791.034 144.407 888.613 48.1273" stroke="url(#paint0_linear_75_23)" stroke-opacity="0.6" stroke-width="0.5" stroke-miterlimit="10"/>
<defs>
<linearGradient id="paint0_linear_75_23" x1="958.378" y1="3023" x2="1314.39" y2="-59.8137" gradientUnits="userSpaceOnUse">
<stop stop-color="#2973FF"/>
<stop offset="0.48974" stop-color="#8846D3"/>
<stop offset="1" stop-color="#FF22AC"/>
</linearGradient>
</defs>
</svg>
