<svg width="1087" height="1098" viewBox="0 0 1087 1098" fill="none" xmlns="http://www.w3.org/2000/svg">
<g clip-path="url(#clip0_44_32)">
<path d="M1605.55 1619.34C1459.81 1455.77 1225.32 1383.57 994.614 1328.28C763.909 1272.99 522.445 1227.26 337.776 1101.23C182.139 994.973 75.1774 833.591 37.4965 647.947C-1.34497 456.743 31.9468 247.621 44.1889 44.4809C56.4311 -158.659 44.1273 -369.391 -73.0609 -519.066M1598.02 1626.44C1456.97 1461.5 1226.43 1385.92 998.173 1328.55C769.919 1271.18 530.021 1224.26 345.447 1099.49C197.78 999.977 91.9032 853.194 45.8118 682.462C42.9129 671.582 40.1835 660.737 37.7602 649.686C16.5437 553.813 13.7277 452.845 19.8377 350.03C25.7026 248.852 39.6751 146.817 47.7092 45.8088C64.4652 -158.289 51.9699 -371.545 -67.218 -521.355M1590.56 1633.65C1454.3 1467.27 1227.5 1388.44 1001.73 1328.82C775.963 1269.2 537.697 1221.18 353.117 1097.75C204.193 998.779 95.663 853.772 46.6514 683.963C43.5485 673.22 40.6498 662.34 38.0571 651.255C15.1102 555.656 10.7027 454.28 17.9677 350.987C24.7488 249.638 41.025 147.976 51.2283 47.1371C71.9555 -157.85 59.744 -373.801 -61.2743 -523.713M1583.04 1640.75C1451.56 1472.93 1228.61 1390.79 1005.33 1328.92C782.042 1267.04 545.409 1217.94 360.721 1095.9C210.54 997.479 99.3571 854.247 47.3232 685.429C44.051 674.652 40.8808 663.806 38.0841 652.858C13.4067 557.533 7.57677 455.783 15.7601 351.875C23.4575 250.355 42.2068 149.101 54.4099 48.3969C79.3795 -157.514 67.2479 -376.023 -55.6682 -526.138M1575.51 1647.85C1448.79 1478.77 1229.61 1393.22 1008.88 1329.19C788.155 1265.16 553.36 1214.38 368.392 1094.15C217.126 995.871 103.118 854.824 48.1641 686.929C44.6878 676.288 41.3482 665.409 38.3473 654.598C12.0068 559.648 4.58547 457.49 13.7544 353.07C22.3681 251.379 43.5907 150.532 57.7935 49.9637C87.0057 -156.871 74.9537 -377.938 -49.8948 -528.086M1567.98 1654.95C1446.05 1484.43 1230.72 1395.57 1012.38 1329.36C794.029 1263.15 560.902 1211.1 375.826 1092.27C223.337 994.367 106.574 855.164 48.7672 688.293C45.0195 677.687 41.5779 666.876 38.4077 656.031C10.3367 561.355 1.66246 458.856 11.6477 353.89C21.347 252.062 45.0428 151.624 61.1781 51.0878C94.6328 -156.671 82.6606 -380.296 -44.0857 -530.648M1560.53 1662.15C1443.27 1490.27 1231.8 1398.09 1015.93 1329.63C800.074 1261.17 568.681 1207.96 383.497 1090.53C229.786 992.998 110.336 855.741 49.6085 689.794C45.7587 679.256 42.0457 668.479 38.6041 657.668C8.80266 563.266 -1.39605 460.461 9.60956 354.812C20.2251 252.813 46.394 152.782 64.5291 52.3818C102.294 -156.198 90.334 -382.484 -38.3101 -533.039M1553 1669.25C1440.53 1495.93 1232.9 1400.45 1019.6 1329.83C806.288 1259.22 576.46 1204.82 391.27 1088.72C236.404 991.664 114.198 856.25 50.449 691.294C46.3279 680.79 42.5128 670.082 38.9692 659.339C7.43728 565.212 -4.18356 462.032 7.80772 355.871C19.4069 253.803 47.9816 154.078 68.1839 53.9147C110.293 -155.657 98.209 -384.365 -32.3328 -535.123M1545.47 1676.35C1437.79 1501.59 1233.98 1402.97 1023.09 1330C812.198 1257.03 584.003 1201.54 398.772 1086.94C242.581 990.33 117.79 856.794 51.1207 692.76C46.8975 682.325 42.8109 671.65 38.9958 660.942C5.73342 567.088 -7.47902 463.501 5.59994 356.759C18.1153 254.52 49.2653 155.134 71.3652 55.1744C117.819 -155.389 105.645 -386.69 -26.7268 -537.549M1537.95 1683.45C1434.95 1507.33 1235.08 1405.32 1026.58 1330.17C818.073 1255.02 591.714 1198.29 406.375 1085.09C248.962 988.859 121.483 857.269 51.8936 694.158C47.399 683.757 43.2104 673.151 39.226 662.409C4.30049 568.932 -10.5036 464.936 3.66306 357.613C17.0947 255.203 50.7852 156.327 74.9197 56.3321C125.785 -155.121 113.522 -389.014 -20.7826 -539.907M1530.42 1690.55C1432.21 1512.99 1236.09 1407.74 1030.17 1330.27C824.253 1252.79 599.425 1195.05 413.91 1083.14C255.24 987.457 125.109 857.642 52.4969 695.523C47.9002 685.19 43.4403 674.618 39.2518 664.012C2.69789 570.741 -13.6307 466.439 1.45434 358.502C15.8022 255.92 52.0681 157.384 78.1003 57.5926C133.378 -154.75 121.025 -391.236 -15.1774 -542.332M1522.96 1697.75C1429.44 1518.83 1237.26 1410.2 1033.8 1330.64C830.331 1251.08 607.17 1192.07 421.649 1081.5C261.757 986.19 129.039 858.253 53.4053 697.125C48.5372 686.826 43.9754 676.323 39.6175 665.683C1.33309 572.686 -16.5198 468.078 -0.347088 359.56C14.917 256.807 53.8255 158.713 81.6881 59.0226C141.31 -154.312 128.935 -393.288 -9.16525 -544.587M1515.44 1704.85C1426.77 1524.59 1238.27 1412.62 1037.29 1330.81C836.308 1249 614.78 1188.9 429.253 1079.65C268.036 984.788 132.733 858.729 54.1787 698.523C49.2086 688.293 44.2733 677.892 39.7461 667.218C-0.26878 574.494 -19.5438 469.512 -2.38543 360.482C13.795 257.558 55.2784 159.803 85.0388 60.3165C149.175 -153.976 136.608 -395.476 -3.49187 -546.91M1507.91 1711.95C1424.03 1530.26 1239.38 1414.97 1040.88 1330.91C842.387 1246.85 622.424 1185.55 436.856 1077.81C274.484 983.419 136.426 859.204 54.8498 699.99C49.6083 689.794 44.5708 679.461 39.8395 668.924C-1.90578 576.474 -22.7052 471.186 -4.52651 361.473C12.5701 258.378 56.6963 161.065 88.3892 61.611C156.937 -153.571 144.281 -397.664 2.28296 -549.302M1500.38 1719.05C1421.19 1535.99 1240.38 1417.39 1044.44 1331.18C848.499 1244.97 630.101 1182.48 444.527 1076.06C280.83 982.119 140.12 859.68 55.6903 701.49C50.2448 691.431 45.038 681.064 40.1374 670.493C-3.27109 578.419 -25.6622 472.723 -6.3958 362.429C11.6171 259.163 58.2164 162.258 91.909 62.9394C165.038 -153.099 152.056 -399.919 8.2274 -551.659M1492.86 1726.15C1418.45 1541.65 1241.49 1419.75 1047.93 1331.35C854.374 1242.95 637.711 1179.3 451.96 1074.18C287.007 980.785 143.644 860.121 56.294 702.854C50.6791 692.761 45.2682 682.531 40.0961 671.994C-5.0428 580.194 -28.9235 474.021 -8.67139 363.215C10.2577 259.778 59.4997 163.315 95.0228 64.0973C172.564 -152.83 159.492 -402.243 13.7309 -554.016M1485.4 1733.35C1415.68 1547.49 1242.67 1422.2 1051.49 1331.62C860.316 1241.04 645.286 1176.29 459.632 1072.44C293.354 979.485 147.405 860.698 57.1351 704.354C51.3161 694.398 45.7359 684.134 40.4618 673.665C-6.40761 582.139 -31.8126 475.66 -10.4728 364.273C9.37255 260.665 61.2568 164.644 98.6103 65.5274C180.665 -152.358 167.402 -404.295 19.7432 -556.271M1477.87 1740.45C1412.94 1553.15 1243.67 1424.62 1055.15 1331.82C866.633 1239.02 653.066 1173.15 467.405 1070.62C299.87 978.218 151.268 861.207 57.976 705.855C51.9876 695.864 46.2033 685.736 40.6578 675.302C-7.94203 584.05 -34.8713 477.265 -12.5112 365.196C8.25045 261.416 62.7773 165.837 102.063 66.7532C188.699 -151.988 175.177 -406.552 25.6206 -558.731M1470.34 1747.55C1410.2 1558.82 1244.85 1427.08 1058.64 1331.99C872.44 1236.9 660.674 1169.97 474.905 1068.85C306.046 976.885 154.859 861.751 58.6463 707.322C52.4539 697.467 46.5002 687.306 40.8527 676.94C-9.4776 585.962 -37.9312 478.871 -14.4834 366.221C7.09247 262.339 64.4661 167.064 105.48 68.1501C196.698 -151.447 182.916 -408.637 31.3605 -560.951M1462.72 1754.72C1407.26 1564.62 1245.75 1429.57 1062.03 1332.23C878.315 1234.89 668.081 1166.93 482.407 1067.07C312.393 975.584 158.451 862.295 59.3182 708.788C52.9564 698.899 46.7986 688.875 40.8796 678.543C-11.1138 587.941 -41.1242 480.271 -16.6234 367.211C5.86873 263.158 65.8848 168.325 108.73 69.5124C204.528 -150.94 190.386 -410.688 37.0341 -563.275M1455.19 1761.82C1404.52 1570.28 1246.86 1431.92 1065.63 1332.33C884.394 1232.73 675.792 1163.69 489.943 1065.12C318.502 974.148 162.076 862.668 59.9216 710.152C53.3558 700.4 47.0286 690.341 40.8382 680.044C-12.8857 589.717 -44.4206 481.74 -19.0015 368.065C4.40686 263.841 67.0656 169.45 111.741 70.7386C212.12 -150.569 197.652 -413.046 42.4698 -565.734M1447.73 1769.02C1401.81 1576.22 1247.93 1434.45 1069.25 1332.7C890.573 1230.96 683.435 1160.78 497.682 1063.48C324.984 973.052 165.905 863.347 60.8298 711.754C53.9925 702.037 47.5635 692.046 41.2711 681.817C-14.1832 591.764 -47.2425 483.481 -20.7357 369.226C3.52158 264.728 68.8902 170.881 115.498 72.2027C220.459 -149.961 205.731 -415.064 48.6168 -567.785M1440.2 1776.12C1399.07 1581.88 1249.04 1436.8 1072.74 1332.87C896.448 1228.94 691.044 1157.6 505.285 1061.63C331.33 971.752 169.598 863.823 61.6029 713.153C54.6636 703.504 47.8956 693.445 41.3992 683.352C-15.7857 593.573 -50.4363 484.882 -22.8418 370.046C2.33167 265.377 70.3428 171.972 118.781 73.3947C228.425 -149.693 213.336 -417.354 54.3242 -570.278M1432.68 1783.22C1396.33 1587.55 1250.05 1439.22 1076.24 1333.04C902.426 1226.85 698.62 1154.6 512.787 1059.85C337.508 970.418 173.123 864.264 62.1055 714.585C54.8948 704.97 48.0249 694.98 41.359 684.853C-17.5563 595.347 -53.7315 486.35 -25.0493 370.934C0.938471 266.162 71.6943 173.131 121.963 74.6548C236.256 -149.186 220.841 -419.576 59.9308 -572.704M1425.15 1790.32C1393.49 1593.28 1251.15 1441.57 1079.9 1333.24C908.639 1224.91 706.296 1151.52 520.559 1058.04C343.921 969.22 176.985 864.773 63.0471 716.017C55.7344 706.47 48.4911 696.583 41.7232 686.524C-18.7532 597.327 -56.5873 487.819 -26.9194 371.891C-0.0154578 266.948 73.383 174.358 125.482 75.9831C244.356 -148.714 228.682 -421.73 65.7722 -574.993M1417.62 1797.42C1390.75 1598.94 1252.16 1443.99 1083.39 1333.41C914.616 1222.82 713.906 1148.35 527.993 1056.16C350.098 967.886 180.509 865.214 63.6515 717.381C56.0673 707.869 48.722 698.049 41.7847 687.957C-20.4221 599.033 -60.052 489.254 -29.025 372.711C-1.44151 267.46 75.0055 175.483 128.867 77.1066C252.492 -148.412 236.39 -424.089 71.5825 -577.555M1410.17 1804.62C1387.98 1604.78 1253.34 1446.45 1086.95 1333.68C920.559 1220.91 721.481 1145.34 535.664 1054.41C356.511 966.688 184.27 865.792 64.3897 718.95C56.7035 709.506 49.0866 699.721 41.878 689.662C-22.0593 601.013 -63.1787 490.757 -31.1661 373.701C-2.76838 268.348 76.4231 176.744 132.115 78.4692C260.389 -147.802 243.893 -426.311 77.2552 -579.878M1402.64 1811.72C1385.24 1610.44 1254.34 1448.87 1090.61 1333.88C926.874 1218.89 729.225 1142.37 543.437 1052.6C362.925 965.49 188.133 866.302 65.3324 720.382C57.3748 710.972 49.656 701.255 42.2433 691.334C-23.4245 602.958 -66.0684 492.396 -32.9681 374.76C-3.65415 269.236 78.2473 178.176 135.703 79.8997C268.625 -147.125 251.803 -428.362 83.2321 -581.962M1395.11 1818.82C1382.5 1616.11 1255.52 1451.33 1094.1 1334.05C932.683 1216.77 736.664 1139.6 550.939 1050.82C368.931 964.565 191.725 866.844 66.0042 721.848C57.9446 712.506 49.9545 702.824 42.3724 692.868C-25.0258 604.767 -69.1941 493.899 -35.0061 375.682C-4.77584 269.986 79.7682 179.368 139.054 81.1933C276.727 -146.653 259.476 -430.55 89.0083 -584.354M1387.59 1825.92C1379.66 1621.84 1256.52 1453.75 1097.59 1334.22C938.659 1214.69 744.171 1136.49 558.542 1048.97C375.379 963.197 195.417 867.32 66.7768 723.246C58.4457 713.939 50.3535 704.325 42.5 694.404C-26.5613 606.678 -72.219 495.334 -37.1126 376.502C-5.96614 270.636 81.457 180.596 142.506 82.4196C285.368 -145.805 267.251 -432.806 94.7825 -586.745M1380.13 1833.12C1377.06 1627.71 1257.7 1456.2 1101.25 1334.42C944.806 1212.64 751.95 1133.35 566.146 1047.13C381.659 961.794 199.213 867.727 67.4486 724.713C58.9135 715.542 50.6518 705.894 42.6963 696.04C-28.0955 608.589 -75.3449 496.836 -39.0835 377.526C-7.02076 271.489 83.045 181.891 145.924 83.8156C293.198 -145.299 274.889 -434.824 100.626 -589.034M1372.6 1840.22C1374.21 1633.44 1258.7 1458.62 1104.81 1334.69C950.918 1210.76 759.56 1130.17 573.816 1045.38C388.072 960.597 202.974 868.305 68.2888 726.213C-17.4747 635.667 -82.5703 511.986 -41.1226 378.449C-8.14361 272.24 84.5648 183.084 149.275 85.1101C301.13 -144.86 282.562 -437.011 106.4 -591.425M1369.46 1845.72C1367.93 1642.65 1255.37 1468.07 1107 1344.28C959.312 1221.06 772.984 1145.21 595.937 1056.66C554.027 1035.64 512.5 1012.3 469.41 989.711C407.65 957.515 344.936 926.103 286.1 892.097C220.265 853.933 158.889 812.049 103.955 762.758C97.2362 756.793 90.6538 750.589 84.1733 744.316C22.8414 685.752 -29.2247 610.671 -44.4244 525.948C-51.5632 486.52 -50.6558 444.801 -38.7575 401.916C-26.7551 358.519 -4.82949 317.47 21.9058 277.475C61.6496 218.165 111.282 161.373 150.893 101.414C184.357 50.8748 209.766 -2.52514 226.193 -56.8405C245.033 -119.549 251.703 -182.659 248.12 -243.033C244.493 -308.388 229.021 -370.973 202.708 -428.365C176.497 -485.826 139.48 -538.266 94.0474 -581.832M1366.41 1851.14C1361.58 1651.77 1252.21 1477.56 1109.37 1353.89C967.707 1231.35 786.443 1160.07 618.228 1067.97C578.018 1045.96 538.71 1019.51 495.592 995.766C433.974 962 368.644 931.75 308.035 899.962C240.491 864.563 177.709 826.125 120.863 779.735C113.905 774.077 107.151 768.282 100.33 762.385C36.4409 706.857 -18.925 634.133 -37.5183 550.06C-46.2509 510.667 -46.9698 468.711 -36.3571 425.212C-25.7075 381.1 -4.58974 338.823 21.9478 297.634C61.3938 236.755 112.083 178.666 152.446 117.616C186.661 65.9842 212.887 11.5945 228.574 -43.846C246.81 -107.918 250.498 -171.538 244.406 -231.706C237.794 -296.684 219.57 -358.312 191.427 -415.806C163.181 -473.232 125.255 -526.831 81.663 -572.513M1363.27 1856.64C1355.2 1661.05 1249.01 1487.21 1111.56 1363.48C976.338 1241.78 799.7 1174.63 640.417 1079.35C601.839 1056.25 564.715 1026.87 521.501 1001.86C459.857 966.487 392.08 937.432 329.764 907.965C260.548 875.159 196.324 840.337 137.464 796.916C130.268 791.565 123.173 786.146 116.18 780.658C49.5972 728.407 -8.86465 657.902 -30.8515 574.479C-41.2125 535.292 -43.4211 492.859 -34.0939 448.747C-24.6279 403.953 -4.58935 360.483 21.9197 318.135C61.0332 255.857 112.712 196.369 154.03 134.09C188.996 81.3667 215.871 25.9533 231.089 -30.6467C248.552 -96.117 249.53 -160.281 240.759 -220.277C231.33 -284.844 210.288 -345.617 180.28 -403.041C150.169 -460.398 111.163 -515.19 69.3102 -562.92M1360.12 1862.13C1348.82 1670.33 1245.74 1496.77 1113.75 1373.06C984.732 1252.08 812.754 1188.88 662.539 1090.63C625.357 1066.3 590.79 1033.88 547.512 1007.88C485.944 970.837 415.686 943.148 351.597 915.899C280.672 885.857 215.077 854.311 154.27 813.961C146.901 809.02 139.568 803.908 132.234 798.796C62.9923 749.65 1.23056 681.5 -23.9805 598.762C-35.9352 559.61 -39.77 516.939 -31.6263 472.146C-23.4111 426.568 -4.28275 381.939 22.1305 338.328C60.9462 274.482 113.581 213.765 155.786 150.156C191.503 96.3399 219.027 39.9028 233.673 -17.7885C250.465 -84.7252 248.632 -149.365 237.181 -209.189C224.834 -273.276 201.144 -333.161 169.203 -390.618C137.16 -448.007 97.1417 -503.891 57.1294 -553.737M1356.98 1867.62C1342.43 1679.61 1242.54 1506.42 1116.01 1382.75C993.226 1262.75 825.776 1202.85 684.728 1102.01C649.043 1076.38 616.896 1041.16 573.523 1013.9C512.098 975.289 439.393 948.796 373.361 923.731C300.762 896.283 233.727 868.353 170.905 830.972C163.196 826.406 155.624 821.601 148.154 816.728C76.1504 770.757 11.2931 704.826 -17.2442 622.841C-30.8947 583.792 -36.2539 540.815 -29.3957 495.409C-22.4313 449.047 -4.31512 403.327 22.0696 358.557C60.5528 293.312 114.279 231.128 157.235 166.426C193.704 111.518 222.046 54.0915 235.952 -4.72497C252.038 -72.9575 247.427 -138.243 233.195 -197.827C218.032 -261.503 191.523 -320.533 157.615 -377.853C123.707 -435.173 82.6097 -492.249 44.4382 -544.211M1353.83 1873.12C1336.05 1688.89 1239.41 1516.18 1118.2 1392.33C1001.69 1273.15 838.698 1216.46 706.848 1113.28C672.493 1086.32 642.935 1048.34 599.534 1019.92C538.082 979.708 462.931 954.41 395.09 931.734C320.987 906.913 252.341 882.566 187.608 848.086C179.727 843.929 171.916 839.432 164.105 834.934C89.4426 792.069 21.3525 728.596 -10.4763 647.192C-25.7206 608.178 -32.6041 564.895 -27.0315 518.876C-21.318 471.731 -4.11156 424.851 22.0753 378.887C60.2607 312.073 114.942 248.661 158.853 182.73C196.073 126.731 225.064 68.2798 238.399 8.3722C253.813 -61.3267 246.458 -126.986 229.479 -186.5C211.5 -249.765 182.173 -307.94 146.333 -365.293C110.492 -422.646 68.3827 -480.813 32.052 -534.891M1350.69 1878.61C1329.66 1698.18 1236.11 1525.9 1120.46 1402.02C1010.18 1283.82 851.792 1229.65 729.037 1124.66C696.01 1096.37 668.941 1055.69 625.443 1026.01C564.067 984.126 486.536 960.126 416.82 939.737C341.111 917.611 270.889 896.677 204.209 865.268C196.09 861.418 188.005 857.398 179.955 853.207C102.531 813.516 31.1764 752.229 -3.80935 671.612C-20.682 632.804 -29.1572 589.112 -24.768 542.411C-20.4074 494.55 -4.11103 446.512 22.0474 399.388C60.0023 331.108 115.639 266.466 160.268 199.171C198.239 142.079 227.947 82.7071 240.643 21.606C255.284 -49.4909 245.219 -115.695 225.628 -174.934C204.833 -237.788 172.755 -295.006 134.982 -352.392C97.209 -409.777 54.0875 -469.036 19.4956 -525.161M1347.54 1884.11C1323.21 1707.36 1233.05 1535.76 1122.66 1411.6C1018.61 1294.39 882.457 1219.29 751.159 1135.94C725.285 1100.65 694.981 1062.88 651.455 1032.03C590.12 988.646 510.177 965.671 438.585 947.568C361.203 928.037 289.54 910.719 220.947 882.211C212.589 878.668 204.266 874.955 195.942 871.242C115.825 834.827 41.2043 775.725 2.99437 695.792C-15.574 657.087 -25.5734 613.09 -22.4698 565.776C-19.2926 517.234 -3.9737 467.933 22.0542 419.718C59.7787 349.971 116.303 283.999 161.888 215.475C200.711 157.223 231.068 96.827 243.26 34.737C257.297 -37.724 244.353 -104.506 222.083 -163.573C198.472 -226.015 163.576 -282.38 123.937 -339.696C84.1972 -396.944 40.0986 -457.464 7.34751 -515.705M1344.5 1889.53C1316.93 1716.57 1229.92 1545.52 1125.02 1421.22C1027.17 1305.16 897.899 1230.47 773.618 1147.29C749.991 1110.05 721.358 1070.12 677.737 1038.02C616.477 992.962 534.087 971.182 460.688 955.469C381.734 938.462 308.528 924.829 237.921 899.29C229.289 896.225 220.829 892.751 212.267 889.345C129.286 856.173 51.4682 799.358 10.1361 720.041C-10.0261 681.371 -21.5497 637.068 -19.7316 589.141C-17.8053 539.815 -3.49858 489.423 22.4335 439.946C59.7582 368.698 117.442 301.361 163.879 231.677C203.454 172.333 234.527 111.016 246.08 47.7321C259.344 -26.127 243.758 -93.3507 218.741 -152.347C192.381 -214.277 154.6 -269.889 112.927 -327.17C71.2541 -384.451 26.1433 -446.062 -4.76694 -506.419M1341.35 1895.03C1310.55 1725.85 1226.82 1555.55 1127.21 1430.8C1035.56 1315.9 913.274 1241.55 795.74 1158.56C774.427 1119.48 747.398 1077.31 703.646 1044.11C642.427 997.551 557.693 976.898 482.418 963.471C401.857 949.161 327.245 938.974 254.556 916.301C245.686 913.544 236.885 910.445 228.084 907.346C142.342 877.348 61.3264 822.82 16.668 744.256C-5.18992 705.69 -18.2381 661.08 -17.7056 612.54C-17.1321 562.498 -3.63311 510.879 22.2705 460.242C59.3647 387.528 117.936 318.86 165.16 247.913C205.485 187.477 237.207 125.136 248.189 60.7611C260.782 -14.5643 242.485 -82.332 214.585 -141.02C185.409 -202.538 144.877 -257.194 101.272 -314.507C57.7339 -371.719 11.5436 -434.523 -17.5259 -496.997M1338.21 1900.52C1304.16 1735.13 1223.62 1565.65 1129.41 1440.39C1043.85 1326.71 928.548 1252.69 817.861 1169.84C798.795 1128.82 773.438 1084.49 729.59 1050.03C668.447 1001.8 581.266 982.341 504.115 971.201C421.984 959.415 345.761 952.811 271.125 933.21C262.016 930.759 252.942 928.139 243.902 925.347C155.364 898.693 71.083 846.351 23.3024 768.402C-0.251215 729.94 -14.8235 685.024 -15.4745 635.802C-16.1518 584.977 -3.56298 532.199 22.1428 480.368C59.0065 406.187 118.466 336.188 166.644 264.012C207.721 202.484 240.194 139.051 250.503 73.6534C262.322 -3.0701 241.383 -71.2795 210.803 -129.795C178.913 -190.971 135.461 -244.703 89.9906 -301.948C44.5203 -359.192 -2.68185 -423.087 -29.9452 -487.506M1335.06 1906.01C1297.78 1744.42 1236.18 1562.85 1131.67 1450.07C1038.29 1349.3 943.99 1263.87 840.05 1181.22C823.128 1138.32 799.443 1091.84 755.668 1056.15C694.566 1006.42 605.075 987.921 526.014 979.238C442.311 969.978 364.546 967.058 287.997 950.357C278.717 948.317 269.336 945.901 260.023 943.587C168.724 920.107 83.6268 868.311 30.2405 792.788C3.76662 755.248 -11.0709 709.036 -12.9401 659.303C-14.8683 607.694 -3.29157 553.826 22.3858 500.835C58.917 425.256 119.366 353.857 168.398 280.522C210.225 217.901 243.415 153.547 253.085 86.9558C264.3 8.86818 240.584 -59.9876 207.223 -118.263C172.517 -179.027 126.246 -231.905 78.911 -289.08C31.5082 -346.357 -16.7062 -411.343 -42.1288 -477.879M1331.99 1911.61C1291.57 1753.73 1234.33 1572.77 1134.03 1459.69C1045.9 1360.41 959.432 1275.05 862.34 1192.53C847.666 1147.68 825.652 1099.05 781.68 1062.17C720.619 1010.94 628.715 993.466 547.779 987.07C462.504 980.335 383.196 981.1 304.633 967.368C295.012 965.703 285.46 963.696 275.908 961.69C181.813 941.555 91.0014 893.583 36.9417 817.037C9.9965 778.781 -7.58972 733.083 -10.7444 682.736C-14.0255 630.412 -3.2567 575.315 22.2228 521.131C58.4562 443.983 119.962 371.288 169.847 296.792C212.426 233.079 246.264 167.701 255.363 100.019C265.805 20.533 239.446 -48.7646 203.338 -106.97C165.884 -167.221 116.795 -219.244 67.4599 -276.555C18.192 -333.763 -31.1016 -399.942 -54.6834 -468.593M1328.84 1917.1C1285.18 1763.02 1232.39 1582.77 1136.29 1469.38C1053.34 1371.49 974.875 1286.23 884.529 1203.91C872.102 1157.12 851.759 1106.34 807.759 1068.3C746.773 1015.39 652.423 999.114 569.576 995.174C482.73 990.965 401.878 995.415 321.404 984.584C311.611 983.328 301.82 981.629 291.962 979.827C195.106 962.866 100.995 917.25 43.8128 841.319C15.1719 803.167 -3.93873 757.163 -8.27693 706.135C-12.8088 653.026 -3.05217 596.839 22.3989 541.495C58.4018 462.88 120.863 388.956 171.568 313.027C214.898 248.223 249.555 181.855 258.015 112.979C267.786 32.0272 237.391 -36.927 199.828 -95.7796C160.986 -156.576 107.65 -206.788 56.348 -263.961C5.14767 -321.202 -45.2601 -388.403 -66.899 -459.239M1325.7 1922.6C1278.73 1772.2 1230.37 1593.11 1138.48 1478.96C1060.81 1382.41 990.147 1297.38 906.65 1215.19C896.47 1166.45 877.696 1113.59 833.702 1074.22C772.757 1019.81 676.097 1004.49 591.34 1003.01C502.821 1001.39 420.461 1009.36 338.039 1001.6C328.007 1000.65 317.876 999.323 307.846 997.93C208.194 984.314 110.818 940.883 50.5136 865.569C20.0749 827.588 -0.35591 781.141 -5.97964 729.5C-11.8644 675.676 -2.8482 618.364 22.3376 561.723C58.1101 481.642 121.459 406.387 173.017 329.298C217.098 263.401 252.404 196.01 260.293 126.043C269.358 43.7948 237.579 -26.5909 195.943 -84.4858C152.959 -143.983 98.1313 -194.229 44.9638 -251.332C-8.20374 -308.435 -59.5888 -376.899 -79.4889 -449.782M1322.65 1928.02C1272.45 1781.41 1207.61 1617.03 1140.84 1488.58C1085.6 1382.32 1005.69 1308.49 929.009 1226.6C920.973 1175.98 903.973 1120.9 859.95 1080.37C798.979 1024.37 699.974 1010.17 613.342 1010.97C523.251 1011.88 439.45 1023.47 355.014 1018.67C344.642 1018.1 334.441 1017.12 324.07 1016.1C221.622 1005.83 120.913 964.481 57.5544 889.885C25.42 852.007 3.46475 805.255 -3.44452 753.001C-10.5801 698.393 -2.47419 639.921 22.6832 582.121C58.2252 500.573 122.564 423.919 174.975 345.669C219.807 278.681 255.762 210.266 263.08 139.207C271.372 55.5613 236.985 -15.4369 192.533 -72.9207C146.834 -132.075 89.1543 -181.296 33.987 -238.534C-21.113 -295.67 -73.5102 -365.224 -91.5695 -440.224M1319.51 1933.52C1266.07 1790.69 1204.24 1627.54 1143.04 1498.16C1093.62 1393.61 1020.97 1319.63 951.13 1237.88C945.342 1185.31 930.013 1128.09 885.792 1086.36C824.862 1028.85 723.547 1015.61 635.005 1018.87C543.342 1022.31 457.998 1037.58 371.548 1035.75C361.004 1035.59 350.395 1034.88 339.853 1034.27C234.609 1027.35 130.533 988.25 64.1541 914.202C30.3239 876.428 6.77713 829.267 -1.24831 776.434C-9.73676 721.11 -2.54083 661.479 22.5207 602.417C57.7302 519.471 123.059 441.418 176.256 361.906C221.839 293.825 258.612 224.42 265.189 152.236C272.809 67.1242 235.78 -4.31576 188.48 -61.6614C140.134 -120.371 79.4666 -168.771 22.4342 -225.94C-34.5982 -283.109 -88.0074 -353.754 -104.226 -430.869M1316.36 1939.01C1259.68 1799.97 1200.73 1638.29 1145.3 1507.85C1101.6 1405.06 1036.41 1330.81 973.319 1249.26C969.844 1194.85 956.12 1135.37 911.871 1092.48C851.016 1033.31 747.187 1021.16 656.904 1026.91C563.602 1032.77 476.783 1051.82 388.42 1052.9C377.637 1053.04 366.857 1052.74 356.076 1052.44C248.036 1048.86 140.695 1011.95 71.1938 938.519C35.5658 900.917 10.5968 853.381 1.38788 799.866C-8.3514 743.76 -2.06538 682.97 22.8657 622.816C57.8447 538.403 124.061 459.019 178.213 378.278C224.649 309.037 261.969 238.677 268.042 165.504C274.957 79.0961 235.253 6.94152 185.17 -50.1636C134.009 -108.462 70.5233 -156.008 11.6257 -213.107C-47.2718 -270.207 -101.76 -342.045 -116.138 -421.276M1313.22 1944.5C1253.3 1809.26 1197.16 1648.93 1147.49 1517.43C1109.38 1416.66 1051.68 1341.96 995.44 1260.53C994.212 1204.18 982.057 1142.62 937.814 1098.4C877.001 1037.72 770.759 1026.6 678.601 1034.64C583.83 1042.96 495.298 1065.66 404.988 1069.81C393.967 1070.26 382.913 1070.44 371.826 1070.34C260.99 1070.1 150.282 1035.45 77.7605 962.564C40.4367 925.064 13.9433 877.223 3.44886 823.095C-7.64329 766.272 -2.1653 704.255 22.6352 643.01C57.3165 557.028 124.488 476.415 179.493 394.514C226.68 324.181 264.717 252.899 270.253 178.465C276.496 90.5906 234.082 17.8919 181.219 -38.9726C127.343 -96.9281 61.0047 -143.449 0.0726081 -200.513C-60.7574 -257.645 -116.258 -330.575 -128.897 -411.854M1310.07 1950C1246.91 1818.54 1193.37 1659.72 1149.68 1527.02C1117.09 1428.15 1067.06 1353.03 1017.56 1271.81C1018.48 1213.58 1008.1 1149.8 963.723 1104.49C902.883 1042.21 794.332 1032.05 700.33 1042.64C603.988 1053.48 513.913 1079.87 421.691 1086.92C410.396 1087.85 399.036 1088.23 387.778 1088.55C274.146 1091.65 160.172 1059.18 84.5287 986.915C45.4071 949.588 17.4915 901.372 5.81356 846.563C-6.52941 788.956 -1.99612 725.95 22.6413 663.34C57.0921 575.892 125.253 493.88 181.045 410.716C228.982 339.291 267.77 266.917 272.633 191.46C278.103 102.188 233.148 28.9789 177.436 -27.7474C120.847 -85.3601 51.588 -130.958 -11.2765 -188.055C-74.039 -245.22 -130.552 -319.241 -141.35 -402.636M1306.93 1955.49C1240.53 1827.82 1189.49 1670.57 1151.94 1536.7C1124.7 1439.71 1082.4 1364.28 1039.75 1283.19C1042.91 1223.01 1034.1 1157.15 989.735 1110.52C928.936 1046.73 817.972 1037.59 722.06 1050.65C624.079 1063.91 532.631 1094.02 438.292 1104.11C426.759 1105.34 415.227 1106.13 403.628 1106.82C287.303 1113.2 169.86 1083.06 91.1961 1011.33C50.4461 974.213 20.9734 925.418 8.07724 870.097C-5.6186 811.776 -1.89316 747.542 22.6137 683.841C56.834 594.926 125.883 511.583 182.629 427.191C231.318 354.674 270.822 281.378 275.047 204.728C279.913 114.091 232.181 40.236 173.652 -16.0793C114.349 -73.3492 42.1699 -118.024 -22.5597 -175.052C-87.2893 -232.079 -144.779 -307.361 -153.737 -392.872M1303.78 1960.99C1234.08 1837 1185.34 1681.45 1154.13 1546.29C1132.2 1451.33 1097.77 1375.36 1061.87 1294.47C1067.28 1232.35 1060.14 1164.33 1015.75 1116.54C954.92 1051.15 841.647 1042.97 743.824 1058.48C644.205 1074.16 551.28 1108.06 455.03 1121.05C443.257 1122.59 431.452 1123.86 419.717 1124.79C300.595 1134.52 179.887 1106.55 98.1011 1035.45C55.5533 998.497 24.6586 949.328 10.4769 893.394C-4.46978 834.289 -1.65456 768.896 22.7565 703.933C56.7463 613.551 126.75 528.98 184.282 443.324C233.722 369.716 273.875 295.396 277.528 217.655C281.621 125.62 231.349 51.2547 169.972 -4.9223C107.954 -61.8494 32.9225 -105.499 -33.7396 -162.56C-100.402 -219.621 -158.904 -295.993 -165.953 -383.518M1300.74 1966.41C1227.8 1846.21 1181.12 1692.23 1156.5 1555.9C1139.71 1462.96 1113.21 1386.53 1084.23 1305.88C1091.89 1241.81 1086.42 1171.65 1041.93 1122.59C981.244 1055.64 865.456 1048.54 765.826 1066.45C664.635 1084.66 570.1 1122.14 471.903 1138.2C459.959 1140.15 447.847 1141.62 435.771 1142.93C313.921 1156.1 189.778 1130.29 104.972 1059.73C60.7287 1022.88 28.3094 973.408 12.9442 916.793C-3.35533 856.972 -1.28064 790.453 22.9326 724.297C56.7593 632.55 127.686 546.478 186.004 459.56C236.195 384.859 277.099 309.448 280.078 230.683C283.5 137.182 230.518 62.2727 166.359 6.33614C101.628 -50.2482 23.6758 -92.9749 -44.8515 -149.966C-113.379 -206.957 -172.96 -284.523 -178.271 -374.096M1297.6 1971.91C1221.41 1855.5 1176.52 1703.12 1158.69 1565.49C1146.88 1474.52 1128.59 1397.61 1106.35 1317.16C1116.15 1251.21 1112.25 1178.97 1067.84 1128.68C1006.99 1060.36 889.029 1053.99 787.488 1074.35C684.658 1094.98 588.648 1136.25 488.538 1155.21C476.253 1157.53 463.97 1159.42 451.655 1161.03C327.009 1177.55 199.567 1154.09 111.673 1083.98C65.6317 1047.3 31.7902 997.454 15.1395 940.226C-2.41088 879.621 -1.2462 811.944 22.7692 744.593C56.3654 651.381 128.18 563.977 187.35 475.899C238.293 400.106 279.913 323.773 282.254 243.815C284.97 149.018 229.312 73.3942 162.373 17.6982C94.9941 -38.441 13.9527 -80.2789 -56.507 -137.303C-126.967 -194.327 -187.56 -272.984 -191.03 -364.673M1294.45 1977.4C1215.13 1864.71 1171.76 1713.97 1160.95 1575.17C1154.04 1486.08 1143.93 1408.86 1128.64 1328.47C1140.76 1260.68 1138.46 1186.18 1093.95 1134.63C1033.18 1064.64 912.704 1059.36 809.423 1082.21C704.954 1105.27 607.468 1150.32 505.344 1172.25C492.888 1174.99 480.366 1177.18 467.71 1179.17C340.268 1199.03 209.459 1177.83 118.545 1108.26C70.8752 1071.79 35.4421 1021.53 17.6079 963.624C-1.29533 902.304 -1.04088 833.467 22.9461 764.957C56.3118 670.277 129.014 581.543 189.14 492.237C240.833 415.352 283.102 337.995 284.974 256.877C287.019 160.614 228.651 84.4462 158.998 29.0929C88.8379 -26.8057 5.01072 -67.5165 -67.3814 -124.574C-139.774 -181.631 -201.379 -261.378 -203.008 -355.183M1291.31 1982.89C1208.75 1873.99 1166.66 1724.75 1163.14 1584.76C1160.98 1497.5 1146.86 1420.45 1150.76 1339.74C1154.22 1268.62 1164.5 1193.36 1119.96 1140.66C1059.23 1069.16 936.378 1064.74 831.254 1090.15C725.213 1115.73 626.117 1164.37 522.148 1189.3C509.453 1192.34 496.591 1194.91 483.865 1197.23C353.695 1220.55 219.451 1201.49 125.517 1132.48C76.0492 1096.18 39.0245 1045.51 20.1761 986.955C-0.0800167 924.919 -0.566017 854.958 23.1558 785.151C56.291 689.005 129.881 598.94 190.962 508.404C243.406 430.427 286.494 352.081 287.625 269.838C288.896 172.177 227.921 95.3965 155.486 40.2838C82.51 -15.2038 -4.13514 -55.0597 -78.3924 -112.047C-152.65 -169.035 -215.335 -249.976 -215.123 -345.897M1288.16 1988.39C1202.36 1883.28 1161.35 1735.22 1165.34 1594.34C1167.74 1508.89 1164.68 1430.78 1172.88 1351.02C1180.45 1277.88 1190.44 1200.61 1145.8 1146.64C1085.05 1073.55 959.849 1070.25 852.849 1097.95C745.17 1125.95 644.7 1178.31 538.614 1206.27C525.681 1209.63 512.647 1212.6 499.581 1215.3C366.614 1241.96 229.105 1225.09 132.049 1156.69C80.7835 1120.57 42.4384 1069.46 22.2025 1010.35C0.593521 947.603 -0.700343 876.414 22.8909 805.516C55.7957 707.903 130.375 616.439 192.14 524.709C245.335 445.64 289.072 366.27 289.699 283.038C290.367 184.013 226.682 106.688 151.296 51.7822C75.6058 -3.3626 -13.9596 -42.296 -90.1494 -99.3165C-166.339 -156.337 -230.036 -238.369 -228.085 -336.338M1285.02 1993.88C1195.91 1892.46 1155.78 1745.73 1167.6 1604.03C1174.6 1520.21 1182.6 1441.48 1195.07 1362.4C1206.99 1287.38 1216.55 1207.9 1171.88 1152.77C1111.17 1078.17 983.591 1075.73 874.748 1105.98C765.43 1136.41 663.484 1192.55 555.487 1223.42C542.279 1227.25 529.007 1230.53 515.635 1233.44C380.042 1263.48 239.063 1248.93 138.817 1181.04C85.9236 1145.12 45.9869 1093.6 24.5674 1033.82C1.70762 970.286 -0.598386 898.006 23.0665 825.88C55.5714 726.767 131.208 634.005 193.928 541.047C247.874 460.886 292.26 380.492 292.316 296.169C292.21 195.746 225.917 117.809 147.75 63.1432C69.346 8.34124 -23.0723 -29.5669 -101.195 -86.6204C-179.317 -143.674 -244.026 -226.797 -240.234 -326.882M1281.94 1999.48C1189.6 1901.84 1150.13 1756.14 1169.86 1613.71C1181.23 1531.4 1200.52 1452.62 1217.26 1373.78C1233.56 1297.16 1242.65 1215.18 1197.89 1158.79C1137.25 1082.52 1007.13 1080.9 896.478 1113.98C785.386 1146.63 682.1 1206.76 572.088 1240.6C558.642 1244.74 545.096 1248.5 531.485 1251.71C393.128 1285.37 248.75 1272.8 145.484 1205.46C90.7926 1169.71 49.4336 1117.82 26.8307 1057.36C2.61804 993.106 -0.495917 919.598 22.9711 846.279C55.2456 745.699 131.837 651.709 195.343 557.488C250.209 476.269 295.244 394.851 294.56 309.403C293.783 207.513 224.814 128.862 143.831 74.6071C62.8151 20.0796 -32.6254 -16.8373 -112.715 -73.7531C-192.804 -130.669 -258.593 -214.985 -252.858 -317.254M1278.9 2004.9C1183.31 1911.05 1144.32 1766.07 1172.22 1623.33C1188.06 1542.44 1218.47 1464.04 1239.55 1385.09C1260.46 1307 1268.86 1222.4 1224.07 1164.84C1163.47 1087.07 1030.94 1086.48 918.412 1121.85C805.749 1157.02 700.852 1220.74 588.995 1257.58C575.31 1262.02 561.526 1266.09 547.641 1269.78C406.591 1306.71 258.709 1296.64 152.457 1229.68C96.0354 1194.2 53.1869 1141.83 29.2984 1080.76C3.83488 1015.72 -0.189169 941.054 23.1473 866.643C55.1914 764.596 132.671 669.275 197.064 573.724C252.682 491.413 298.366 408.971 297.212 322.364C295.729 219.178 224.153 139.914 140.388 85.9C56.658 31.7154 -41.7028 -4.27884 -123.657 -61.1253C-205.679 -118.074 -272.48 -203.481 -264.904 -307.866M1275.75 2010.4C1176.93 1920.34 1138.17 1775.93 1174.41 1632.92C1194.69 1553.19 1236.18 1475.76 1261.74 1396.47C1287.3 1317.18 1294.87 1229.75 1250.05 1171.04C1189.42 1091.66 1054.55 1092.19 940.209 1129.96C825.873 1167.72 719.535 1235.05 605.663 1274.86C449.85 1329.33 279.316 1327.05 159.226 1254.03C39.1359 1181 -21.9498 1033.71 23.1538 886.973C82.3067 694.14 303.519 524.878 299.557 335.529C297.403 230.877 223.015 151.138 136.571 97.2957C50.025 43.5222 -51.0865 8.48455 -135.041 -48.4971C-218.995 -105.479 -286.808 -191.976 -277.494 -298.409" stroke="url(#paint0_linear_44_32)" stroke-opacity="0.6" stroke-width="0.5" stroke-miterlimit="10"/>
</g>
<defs>
<linearGradient id="paint0_linear_44_32" x1="1281.27" y1="1433.34" x2="-60.1076" y2="-589.05" gradientUnits="userSpaceOnUse">
<stop stop-color="#2973FF"/>
<stop offset="0.48974" stop-color="#8846D3"/>
<stop offset="1" stop-color="#FF22AC"/>
</linearGradient>
<clipPath id="clip0_44_32">
<rect width="1087" height="1098" fill="white"/>
</clipPath>
</defs>
</svg>
