<svg width="100" height="91" viewBox="0 0 100 91" fill="none" xmlns="http://www.w3.org/2000/svg">
<path d="M99.3983 75.7835L84.8662 55.9087C81.664 51.5289 76.872 48.612 71.683 47.7805C75.053 42.7785 76.8612 36.8965 76.8612 30.6973C76.8612 13.7708 63.0904 0 46.1638 0C29.2372 0 15.4665 13.7708 15.4665 30.6973C15.4665 36.627 17.1611 42.3827 20.3672 47.3421C23.1685 51.6753 26.995 55.2142 31.499 57.6655C32.3315 61.0363 35.3675 63.5664 38.9402 63.6458L57.2762 64.0533C57.7525 64.0639 58.0518 64.3215 58.1878 64.4742C58.3238 64.6269 58.5455 64.954 58.5012 65.4284C58.4411 66.0721 57.8927 66.57 57.2481 66.57C57.2417 66.57 57.235 66.5698 57.2286 66.5698L36.1633 66.2428C35.0019 66.2247 33.8682 65.8084 32.9712 65.0705L14.3182 49.7268C10.7575 46.7974 5.50357 47.1429 2.35667 50.5127C0.75567 52.2273 -0.0791478 54.4624 0.00591465 56.8067C0.0909771 59.151 1.08594 61.3198 2.80757 62.9135L26.5206 84.868C29.4539 87.5835 33.2693 89.1525 37.2643 89.2858L72.4824 90.4615C72.518 90.4627 72.5531 90.4634 72.5885 90.4634C74.2631 90.4634 75.648 89.1342 75.7044 87.4479C75.7618 85.7259 74.4127 84.2833 72.6906 84.2259L37.4727 83.0503C34.9766 82.9669 32.5923 81.9864 30.7596 80.2898L7.04675 58.3356C6.55198 57.8776 6.26601 57.2543 6.24147 56.5804C6.21693 55.9068 6.45693 55.2644 6.91718 54.7717C7.82147 53.8033 9.33158 53.7041 10.3548 54.5456L29.0078 69.8895C30.9917 71.5213 33.4987 72.4418 36.0666 72.4817L57.1319 72.8087C57.1708 72.8093 57.209 72.8097 57.2479 72.8097C61.088 72.8093 64.3564 69.8429 64.7139 66.0074C64.906 63.9432 64.2255 61.8718 62.8465 60.324C61.4674 58.7763 59.4876 57.862 57.4149 57.8158L39.0789 57.4084C38.2511 57.3899 37.5636 56.7281 37.5141 55.9016C37.4783 55.306 37.7653 54.9023 37.9394 54.7147C38.1135 54.5271 38.4947 54.2108 39.0912 54.202L68.3815 53.7763C68.5313 53.7742 68.6804 53.7746 68.8285 53.7765C73.1018 53.8408 77.2145 56.0145 79.8298 59.5915L94.362 79.4664C95.3788 80.8571 97.3308 81.1606 98.7216 80.1434C100.112 79.1262 100.415 77.1745 99.3983 75.7835ZM39.0003 47.9636C36.8693 47.9943 34.8158 48.9082 33.3662 50.4701C33.158 50.6945 32.9658 50.9312 32.7868 51.1768C29.9281 49.3077 27.4807 46.8536 25.607 43.9554C23.0547 40.0074 21.7058 35.423 21.7058 30.6978C21.7058 17.2115 32.6776 6.23971 46.1638 6.23971C59.6501 6.23971 70.6219 17.2115 70.6219 30.6978C70.6219 37.0758 68.2212 43.0333 63.8373 47.6027L48.243 47.8294V46.6964C52.2948 45.7517 55.3231 42.1128 55.3231 37.7775C55.3231 33.442 52.2948 29.803 48.243 28.8584V19.0715C49.9646 19.8624 51.1636 21.6019 51.1636 23.617C51.1636 24.7654 52.0947 25.6968 53.2433 25.6968C54.392 25.6968 55.3231 24.7654 55.3231 23.617C55.3231 19.2817 52.2948 15.6427 48.243 14.6981V13.2564C48.243 12.108 47.3119 11.1767 46.1632 11.1767C45.0145 11.1767 44.0834 12.108 44.0834 13.2564V14.6981C40.0316 15.6427 37.0033 19.2817 37.0033 23.617C37.0033 27.9523 40.0316 31.591 44.0834 32.5359V42.323C42.3618 41.5323 41.1628 39.7928 41.1628 37.7775C41.1628 36.629 40.2317 35.6977 39.0831 35.6977C37.9344 35.6977 37.0033 36.629 37.0033 37.7775C37.0033 42.1128 40.0316 45.7515 44.0834 46.6964V47.8897L39.0003 47.9636ZM44.0834 28.1623C42.3618 27.3716 41.1628 25.6321 41.1628 23.6168C41.1628 21.6017 42.3618 19.8622 44.0834 19.0712V28.1623ZM48.243 33.2315C49.9646 34.0225 51.1636 35.762 51.1636 37.7773C51.1636 39.7926 49.9646 41.5321 48.243 42.3228V33.2315Z" fill="white"/>
</svg>
