<svg width="108" height="131" viewBox="0 0 108 131" fill="none" xmlns="http://www.w3.org/2000/svg">
<path d="M104 127.491H4L12.8362 24.582H95.1638L104 127.491Z" stroke="white" stroke-width="7" stroke-miterlimit="10" stroke-linecap="round" stroke-linejoin="round"/>
<path d="M34.0645 43.763C35.1952 43.763 36.1119 42.8463 36.1119 41.7156C36.1119 40.5849 35.1952 39.6682 34.0645 39.6682C32.9338 39.6682 32.0171 40.5849 32.0171 41.7156C32.0171 42.8463 32.9338 43.763 34.0645 43.763Z" stroke="white" stroke-width="7" stroke-miterlimit="10" stroke-linecap="round" stroke-linejoin="round"/>
<path d="M73.9351 43.763C75.0658 43.763 75.9825 42.8463 75.9825 41.7156C75.9825 40.5849 75.0658 39.6682 73.9351 39.6682C72.8044 39.6682 71.8877 40.5849 71.8877 41.7156C71.8877 42.8463 72.8044 43.763 73.9351 43.763Z" stroke="white" stroke-width="7" stroke-miterlimit="10" stroke-linecap="round" stroke-linejoin="round"/>
<path d="M33.418 42.2543V23.9353C33.418 12.944 42.3619 4 53.3533 4H54.7542C65.7456 4 74.6895 12.944 74.6895 23.9353V42.2543" stroke="white" stroke-width="7" stroke-miterlimit="10" stroke-linecap="round" stroke-linejoin="round"/>
<path d="M86.1128 63.4829H21.8887V106.048H86.1128V63.4829Z" stroke="white" stroke-width="5" stroke-miterlimit="10" stroke-linecap="round" stroke-linejoin="round"/>
<path d="M21.8887 96.0261L44.3025 80.1855L65.8542 96.0261" stroke="white" stroke-width="5" stroke-miterlimit="10" stroke-linecap="round" stroke-linejoin="round"/>
<path d="M58.0952 90.3151L69.9487 82.0177L86.1125 93.8711" stroke="white" stroke-width="5" stroke-miterlimit="10" stroke-linecap="round" stroke-linejoin="round"/>
<path d="M57.449 80.2934C60.4246 80.2934 62.8369 77.8812 62.8369 74.9055C62.8369 71.9299 60.4246 69.5176 57.449 69.5176C54.4733 69.5176 52.061 71.9299 52.061 74.9055C52.061 77.8812 54.4733 80.2934 57.449 80.2934Z" stroke="white" stroke-width="5" stroke-miterlimit="10" stroke-linecap="round" stroke-linejoin="round"/>
</svg>
