<svg width="100" height="96" viewBox="0 0 100 96" fill="none" xmlns="http://www.w3.org/2000/svg">
<path d="M55.375 27.7613C55.375 28.066 55.3702 28.3696 55.3601 28.6717C54.8822 43.5826 42.6753 55.5227 27.6875 55.5227C12.6998 55.5227 0.493454 43.5826 0.0148318 28.6717C0.00405752 28.3696 0 28.066 0 27.7613C0 27.4565 0.00473373 27.1529 0.0148318 26.8509C0.4928 11.9401 12.6998 0 27.6875 0C42.6753 0 54.8816 11.9401 55.3601 26.8509C55.3702 27.1529 55.375 27.4565 55.375 27.7613Z" fill="white"/>
<path d="M49.3494 32.47C52.1473 20.6019 44.8199 8.70648 32.9833 5.90104C21.1467 3.09562 9.28301 10.4424 6.48503 22.3106C3.68705 34.1788 11.0144 46.0743 22.851 48.8797C34.6876 51.685 46.5512 44.3382 49.3494 32.47Z" fill="#C2C2C2"/>
<path d="M25.648 37.5609L27.0103 31.0578L33.8946 26.3264L34.9813 21.0035L28.0957 25.7545L30.3319 15.6638H25.0432L21.9221 30.0149L19.0261 32.0129L18.0742 37.2012L20.8429 35.2979L19.4185 42.1139H38.6639L39.605 37.5609H25.648Z" fill="#767676"/>
<path d="M39.2696 36.8721L38.8846 38.7288C38.7545 39.356 38.2029 39.8055 37.5639 39.8055H21.0817C20.2457 39.8055 19.6189 39.0554 19.7537 38.2441C19.7537 38.2238 19.7537 38.1968 19.7604 38.1765L20.8457 32.9855L19.4099 33.9725C18.9165 34.3111 18.2599 33.8866 18.3649 33.2965L18.3988 33.1072L18.9246 30.2549C18.992 29.9033 19.1942 29.5857 19.4841 29.3828L21.9243 27.7067L24.8097 14.4181C24.9445 13.799 25.4911 13.3569 26.1236 13.3569H28.6521C29.1712 13.3569 29.6094 13.6476 29.8319 14.0531C29.9802 14.3235 30.0409 14.6547 29.9667 14.9859L28.0927 23.4417L33.6002 19.6429C33.8968 19.4403 34.2473 19.5077 34.4563 19.7241C34.6114 19.8728 34.6923 20.089 34.645 20.3392L34.0046 23.4822C33.9372 23.8269 33.735 24.1176 33.4519 24.3203L27.2303 28.5942C27.0867 28.6929 26.9871 28.8428 26.9519 29.0132L25.9899 33.6189C25.8148 34.4598 26.4545 35.2492 27.3105 35.2492H37.9482C38.4741 35.2492 38.9123 35.54 39.1348 35.9658C39.2831 36.2299 39.337 36.5477 39.2696 36.8721Z" fill="white"/>
<path d="M39.2688 36.8712L38.8845 38.7234L38.7727 39.2655C38.708 39.5797 38.4324 39.8049 38.1127 39.8049H21.081C20.2452 39.8049 19.6184 39.0545 19.7532 38.2435H38.1134C38.433 38.2435 38.7087 38.0183 38.7734 37.7048L39.134 35.9656C39.2824 36.2293 39.3362 36.5469 39.2688 36.8712Z" fill="#E6E7E8"/>
<path d="M34.6445 20.3379L34.0042 23.4809L33.8964 24.0149L33.4515 24.3192L27.2299 28.5929C27.0863 28.6916 26.9867 28.8417 26.9515 29.0121L25.9888 33.6198C25.8137 34.4579 26.4541 35.2488 27.3101 35.2488H26.1507C25.726 35.2488 25.4023 34.8566 25.49 34.4308L26.9515 27.4507C26.9874 27.2803 27.087 27.1302 27.2306 27.0315L33.6726 22.6077C33.8169 22.509 33.9165 22.3575 33.9517 22.186L34.4566 19.7228C34.611 19.8715 34.6919 20.0879 34.6445 20.3379Z" fill="#E6E7E8"/>
<path d="M29.9664 14.9853L28.0924 23.441L27.688 23.725L29.8316 14.0525C29.9799 14.3229 30.0405 14.6541 29.9664 14.9853Z" fill="#E6E7E8"/>
<path d="M20.8816 32.8098L20.8457 32.9834L19.4099 33.9704C18.9165 34.309 18.2599 33.8845 18.3649 33.2944L18.3988 33.1051L19.8407 32.1149C20.3422 31.7709 21.0056 32.2143 20.8816 32.8098Z" fill="#E6E7E8"/>
<path d="M77.9732 67.5634C77.9732 67.8682 77.9685 68.1718 77.9577 68.4738C77.4796 83.3847 65.2727 95.3248 50.2851 95.3248C35.2974 95.3248 23.0911 83.3847 22.6125 68.4738C22.6017 68.1718 22.5977 67.8682 22.5977 67.5634C22.5977 67.2587 22.6024 66.955 22.6125 66.653C23.0904 51.7423 35.2974 39.8022 50.2851 39.8022C65.2727 39.8022 77.4789 51.7423 77.9577 66.653C77.9685 66.955 77.9732 67.2587 77.9732 67.5634Z" fill="white"/>
<path d="M71.7122 72.2899C74.5104 60.4217 67.183 48.5262 55.3464 45.7208C43.5097 42.9155 31.6461 50.2623 28.8481 62.1305C26.05 73.9986 33.3774 85.8941 45.214 88.6995C57.0506 91.5048 68.9143 84.158 71.7122 72.2899Z" fill="#C2C2C2"/>
<path d="M60.4873 68.4079L51.0003 52.9111C50.7913 52.5697 50.2973 52.5697 50.089 52.9111L40.6022 68.4079C40.4471 68.6619 40.5274 68.9939 40.7814 69.1472L50.2682 74.8817C50.4381 74.9845 50.6505 74.9845 50.8204 74.8817L60.3072 69.1472C60.5621 68.9939 60.6431 68.6619 60.4873 68.4079Z" fill="#767676"/>
<path d="M60.0346 71.6156L50.8255 77.2885C50.6535 77.394 50.4371 77.394 50.2652 77.2885L41.0561 71.6156C40.8908 71.5144 40.7056 71.7123 40.8167 71.8712L50.1074 85.1292C50.3204 85.4335 50.7694 85.4335 50.9824 85.1292L60.2733 71.8712C60.3851 71.7116 60.1998 71.5137 60.0346 71.6156Z" fill="#767676"/>
<path d="M60.4873 66.7918L51.0003 51.295C50.7913 50.9542 50.2973 50.9542 50.089 51.295L40.6022 66.7918C40.4471 67.0458 40.5274 67.3778 40.7814 67.5311L50.2682 73.2656C50.4381 73.3684 50.6505 73.3684 50.8204 73.2656L60.3072 67.5311C60.5621 67.3778 60.6431 67.0458 60.4873 66.7918Z" fill="white"/>
<path d="M60.0346 69.9999L50.8255 75.6721C50.6535 75.7776 50.4371 75.7776 50.2652 75.6721L41.0561 69.9999C40.8908 69.8986 40.7056 70.0959 40.8167 70.2548L50.1074 83.5121C50.3204 83.8164 50.7694 83.8164 50.9824 83.5121L60.2733 70.2548C60.3851 70.0959 60.1998 69.898 60.0346 69.9999Z" fill="white"/>
<path d="M59.7644 65.6091L50.8215 71.0143C50.6516 71.1171 50.4392 71.1171 50.2693 71.0143L41.3264 65.6091L40.6031 66.7905C40.4482 67.0447 40.5282 67.3765 40.7825 67.53L50.2693 73.2645C50.4392 73.3673 50.6516 73.3673 50.8215 73.2645L60.3083 67.53C60.5626 67.3758 60.6435 67.044 60.4884 66.7905L59.7644 65.6091Z" fill="#E6E7E8"/>
<path d="M60.0339 69.9999L57.9954 71.2558L50.9824 81.2628C50.7694 81.5669 50.3204 81.5669 50.1074 81.2628L43.0946 71.2558L41.0561 69.9999C40.8908 69.8986 40.7056 70.0966 40.8167 70.2548L50.1074 83.5121C50.3204 83.8164 50.7694 83.8164 50.9824 83.5121L60.2731 70.2548C60.3844 70.0959 60.1989 69.898 60.0339 69.9999Z" fill="#E6E7E8"/>
<path d="M99.9999 27.7613C99.9999 28.066 99.9952 28.3696 99.985 28.6717C99.5072 43.5826 87.3002 55.5227 72.3125 55.5227C57.3249 55.5227 45.1186 43.5826 44.6399 28.6717C44.6291 28.3696 44.625 28.066 44.625 27.7613C44.625 27.4565 44.6297 27.1529 44.6399 26.8509C45.118 11.9401 57.3249 0 72.3125 0C87.3002 0 99.5065 11.9401 99.985 26.8509C99.9952 27.1529 99.9999 27.4565 99.9999 27.7613Z" fill="white"/>
<path d="M93.7541 32.4831C96.5521 20.6149 89.2247 8.71967 77.388 5.91423C65.5514 3.10879 53.6877 10.4556 50.8898 22.3239C48.0919 34.1921 55.4191 46.0873 67.2557 48.8927C79.0923 51.6983 90.956 44.3515 93.7541 32.4831Z" fill="#C2C2C2"/>
<path d="M81.5343 31.9453C81.2503 31.249 80.8514 30.6163 80.3478 30.0641C80.0451 29.7336 79.7088 29.4356 79.3414 29.1726C79.5409 28.9812 79.7241 28.7759 79.89 28.5554C80.2831 28.0336 80.5818 27.4341 80.7786 26.7718C80.9659 26.1398 81.061 25.4611 81.061 24.7556C81.061 23.6788 80.8663 22.7148 80.4813 21.8916C80.0861 21.0454 79.5111 20.335 78.7725 19.7807C78.0679 19.2521 77.2131 18.8601 76.2311 18.6154C75.8722 18.5263 75.4962 18.4546 75.1045 18.3999V16.0476C75.1045 15.1101 74.346 14.3497 73.411 14.3497C72.4761 14.3497 71.7178 15.1095 71.7178 16.0476V18.2721H69.9563V16.0476C69.9563 15.1101 69.1978 14.3497 68.2628 14.3497C67.3278 14.3497 66.5696 15.1095 66.5696 16.0476V18.2721H64.3509C63.416 18.2721 62.6575 19.0326 62.6575 19.97C62.6575 20.9075 63.416 21.668 64.3509 21.668H66.5696V37.6635H64.3509C63.416 37.6635 62.6575 38.4232 62.6575 39.3613C62.6575 40.299 63.416 41.0593 64.3509 41.0593H66.5696V43.2838C66.5696 44.2212 67.3272 44.9817 68.2628 44.9817C69.1985 44.9817 69.9563 44.2219 69.9563 43.2838V41.0593H71.7178V43.2838C71.7178 44.2212 72.4761 44.9817 73.411 44.9817C74.346 44.9817 75.1045 44.2219 75.1045 43.2838V41.0383C75.8993 40.991 76.6523 40.858 77.3486 40.6389C78.2795 40.3461 79.0973 39.9014 79.7789 39.3153C80.4752 38.7173 81.022 37.9724 81.4041 37.1012C81.7803 36.244 81.9712 35.2639 81.9712 34.1885C81.9705 33.4106 81.8235 32.6562 81.5343 31.9453ZM71.7164 21.6685H73.1726C74.7964 21.6685 75.9937 21.9464 76.7312 22.4939C77.1295 22.7898 77.6588 23.34 77.6588 24.7008C77.6588 26.2689 77.0035 26.7664 76.7885 26.9298C76.0987 27.4537 74.9751 27.7194 73.4475 27.7194H69.9542V21.6685H71.7164ZM78.3106 35.7093C78.1359 36.1198 77.8968 36.4529 77.5792 36.7272C77.2476 37.0139 76.8248 37.2409 76.3226 37.4019C75.7807 37.5756 75.1475 37.6642 74.4418 37.6642H71.7164H69.9549V31.1151H74.5793C75.3121 31.1151 75.9457 31.2111 76.4634 31.4012C76.9623 31.5842 77.3716 31.8229 77.6818 32.1107C77.9856 32.3934 78.2054 32.7042 78.3537 33.0606C78.5081 33.4316 78.5829 33.8094 78.5829 34.2169C78.5836 34.7806 78.4919 35.2828 78.3106 35.7093Z" fill="#767676"/>
<path d="M81.5343 29.6362C81.2503 28.94 80.8514 28.3072 80.3478 27.755C80.0451 27.4246 79.7088 27.1264 79.3414 26.8642C79.5409 26.6728 79.7241 26.4668 79.89 26.2464C80.2831 25.7246 80.5818 25.125 80.7786 24.4628C80.9659 23.8307 81.061 23.152 81.061 22.4463C81.061 21.3695 80.8663 20.4057 80.4813 19.5825C80.0861 18.7364 79.5111 18.0259 78.7725 17.4716C78.0679 16.9431 77.2131 16.5517 76.2311 16.3064C75.8722 16.2171 75.4962 16.1455 75.1045 16.0907V13.7385C75.1045 12.801 74.346 12.0406 73.411 12.0406C72.4761 12.0406 71.7178 12.801 71.7178 13.7385V15.963H69.9563V13.7385C69.9563 12.801 69.1978 12.0406 68.2628 12.0406C67.3278 12.0406 66.5696 12.801 66.5696 13.7385V15.963H64.3509C63.416 15.963 62.6575 16.7234 62.6575 17.6609C62.6575 18.5984 63.416 19.3587 64.3509 19.3587H66.5696V35.3545H64.3509C63.416 35.3545 62.6575 36.1148 62.6575 37.0522C62.6575 37.9897 63.416 38.7502 64.3509 38.7502H66.5696V40.9747C66.5696 41.9122 67.3272 42.6724 68.2628 42.6724C69.1985 42.6724 69.9563 41.9122 69.9563 40.9747V38.7502H71.7178V40.9747C71.7178 41.9122 72.4761 42.6724 73.411 42.6724C74.346 42.6724 75.1045 41.9122 75.1045 40.9747V38.7292C75.8993 38.6819 76.6523 38.5487 77.3486 38.3298C78.2795 38.037 79.0973 37.5923 79.7789 37.0062C80.4752 36.4083 81.022 35.6626 81.4041 34.7914C81.7803 33.9342 81.9712 32.9542 81.9712 31.8794C81.9705 31.1009 81.8235 30.3465 81.5343 29.6362ZM71.7164 19.3587H73.1726C74.7964 19.3587 75.9937 19.6366 76.7312 20.1841C77.1295 20.4801 77.6588 21.0303 77.6588 22.3911C77.6588 23.9599 77.0035 24.4567 76.7885 24.6201C76.0987 25.1439 74.9751 25.4097 73.4475 25.4097H69.9542V19.3587H71.7164ZM78.3106 33.3996C78.1359 33.81 77.8968 34.1432 77.5792 34.4175C77.2476 34.7042 76.8248 34.9312 76.3226 35.0921C75.7807 35.2659 75.1475 35.3545 74.4418 35.3545H71.7164H69.9549V28.8054H74.5793C75.3121 28.8054 75.9457 28.9014 76.4634 29.0914C76.9623 29.2744 77.3716 29.5132 77.6818 29.801C77.9856 30.0836 78.2054 30.3945 78.3537 30.7506C78.5081 31.1219 78.5829 31.4996 78.5829 31.9072C78.5836 32.4709 78.4919 32.9731 78.3106 33.3996Z" fill="white"/>
<path d="M66.5689 37.8264H64.3503C63.5751 37.8264 62.9232 37.3032 62.7222 36.5907C62.6811 36.7374 62.6575 36.8923 62.6575 37.0526C62.6575 37.99 63.416 38.7503 64.3509 38.7503H66.5696V37.8264H66.5689Z" fill="#E6E7E8"/>
<path d="M79.8896 25.3237C79.723 25.5441 78.8406 26.4342 78.8406 26.4342L79.3407 26.8647C79.3407 26.8647 79.8693 26.274 79.8896 26.2469C80.2825 25.7258 80.5811 25.1258 80.7781 24.4633C80.9655 23.8313 81.0606 23.1526 81.0606 22.4471C81.0606 22.2834 81.0545 22.1238 81.0457 21.9658C81.0139 22.5133 80.9265 23.0412 80.7788 23.54C80.5811 24.2023 80.2825 24.8018 79.8896 25.3237Z" fill="#E6E7E8"/>
<path d="M69.9556 18.4373V19.3607H71.7164H73.1725C74.7966 19.3607 75.9937 19.6384 76.7312 20.1859C77.081 20.4463 77.5327 20.9038 77.6366 21.9339C77.6499 21.7899 77.6587 21.6371 77.6587 21.4696C77.6587 20.1089 77.129 19.5586 76.7312 19.2627C75.9937 18.7152 74.7966 18.4373 73.1725 18.4373H71.7164H69.9556Z" fill="#E6E7E8"/>
<path d="M78.3546 29.8279C78.2062 29.4718 77.9865 29.1607 77.6824 28.8783C77.3722 28.5902 76.9631 28.3518 76.4643 28.1685C75.9466 27.9785 75.3123 27.8827 74.5802 27.8827H69.9556V28.8059H74.5802C75.313 28.8059 75.9466 28.902 76.4643 29.0918C76.9631 29.275 77.3722 29.5137 77.6824 29.8016C77.9865 30.084 78.2062 30.395 78.3546 30.7512C78.4555 30.9939 78.5189 31.2399 78.5534 31.4955C78.5716 31.3305 78.5838 31.1614 78.5838 30.9845C78.5838 30.5767 78.509 30.1989 78.3546 29.8279Z" fill="#E6E7E8"/>
<path d="M64.3503 19.3598H66.5689V18.4365H64.3503C63.5751 18.4365 62.9232 17.9133 62.7222 17.2002C62.6811 17.3469 62.6575 17.5017 62.6575 17.6618C62.6568 18.5999 63.4153 19.3598 64.3503 19.3598Z" fill="#E6E7E8"/>
<path d="M73.4088 41.7512C72.4736 41.7512 71.7153 40.9914 71.7153 40.0532V40.9765C71.7153 41.9146 72.4736 42.6744 73.4088 42.6744C74.3438 42.6744 75.102 41.9146 75.102 40.9765V40.0532C75.102 40.9914 74.3438 41.7512 73.4088 41.7512Z" fill="#E6E7E8"/>
<path d="M68.2623 41.7512C67.3271 41.7512 66.5688 40.9914 66.5688 40.0532V40.9765C66.5688 41.9146 67.3264 42.6744 68.2623 42.6744C69.1973 42.6744 69.9555 41.9146 69.9555 40.9765V40.0532C69.9555 40.9914 69.1973 41.7512 68.2623 41.7512Z" fill="#E6E7E8"/>
<path d="M81.4036 33.8693C81.0215 34.7405 80.4747 35.4854 79.7784 36.0836C79.0961 36.6697 78.2784 37.1151 77.3481 37.407C76.6512 37.6261 75.8988 37.7586 75.104 37.8066V38.7299C75.8988 38.6826 76.6519 38.5493 77.3481 38.3305C78.279 38.0377 79.0968 37.5929 79.7784 37.0069C80.4747 36.4087 81.0215 35.6633 81.4036 34.7925C81.7798 33.9349 81.9707 32.9555 81.9707 31.8801C81.9707 31.7394 81.9639 31.599 81.9545 31.4597C81.9031 32.3383 81.7198 33.1475 81.4036 33.8693Z" fill="#E6E7E8"/>
<path d="M71.7164 37.8278H69.9556V37.8284V38.7517H71.7164V37.8278Z" fill="#E6E7E8"/>
</svg>
