<svg width="108" height="95" viewBox="0 0 108 95" fill="none" xmlns="http://www.w3.org/2000/svg">
<path d="M4 81.2983C4 86.4142 8.15668 90.5709 13.3525 90.5709H94.5675C99.7634 90.5709 104 86.3343 104 81.1385V27.901C104 22.6252 99.6834 18.3885 94.4077 18.3885H13.5124C8.23662 18.3885 4 22.6252 4 27.821V81.2983Z" stroke="white" stroke-width="7" stroke-linecap="round" stroke-linejoin="round"/>
<path d="M94.4876 15.9105V12.9529C94.4876 7.99681 90.5707 4 85.8545 4H12.6328C7.91653 4 4.07959 7.91687 4.07959 12.793V25.6628" stroke="white" stroke-width="7" stroke-linecap="round" stroke-linejoin="round"/>
<path d="M71.8652 59.6357C71.8652 60.8347 73.1442 61.8738 74.8229 61.8738H100.403C102.081 61.8738 103.36 60.8347 103.36 59.6357V47.0057C103.36 45.7267 102.001 44.7675 100.323 44.7675H74.9028C73.2241 44.7675 71.9452 45.8066 71.9452 47.0057V59.6357H71.8652Z" stroke="white" stroke-width="7" stroke-linecap="round" stroke-linejoin="round"/>
<path d="M82.1772 56.9178C84.1636 56.9178 85.7743 55.3073 85.7743 53.3206C85.7743 51.334 84.1636 49.7235 82.1772 49.7235C80.1908 49.7235 78.5801 51.334 78.5801 53.3206C78.5801 55.3073 80.1908 56.9178 82.1772 56.9178Z" fill="white" stroke="white" stroke-width="0.75" stroke-linecap="round" stroke-linejoin="round"/>
</svg>
