<svg width="60" height="59" viewBox="0 0 60 59" fill="none" xmlns="http://www.w3.org/2000/svg">
<path d="M30 0C13.125 0 0 13.125 0 30C0 49.6875 17.8125 58.125 20.625 58.125C22.5 58.125 22.5 57.1875 22.5 56.25V51.5625C15.9375 53.4375 13.125 49.6875 12.1875 46.875C12.1875 46.875 12.1875 45.9375 10.3125 44.0625C9.375 43.125 5.625 41.25 9.375 41.25C12.1875 41.25 14.0625 45 14.0625 45C16.875 48.75 20.625 47.8125 22.5 46.875C22.5 45 24.375 43.125 24.375 43.125C16.875 42.1875 11.25 39.375 11.25 29.0625C11.25 25.3125 12.1875 22.5 14.0625 20.625C14.0625 20.625 12.1875 16.875 14.0625 12.1875C14.0625 12.1875 18.75 12.1875 22.5 15.9375C25.3125 14.0625 34.6875 14.0625 37.5 15.9375C41.25 12.1875 45.9375 12.1875 45.9375 12.1875C47.8125 18.75 45.9375 20.625 45.9375 20.625C47.8125 22.5 48.75 25.3125 48.75 29.0625C48.75 39.375 42.1875 42.1875 35.625 43.125C36.5625 44.0625 37.5 45.9375 37.5 48.75V56.25C37.5 57.1875 37.5 58.125 39.375 58.125C42.1875 58.125 60 49.6875 60 30C60 13.125 46.875 0 30 0Z" fill="url(#paint0_linear_19_116)" fill-opacity="0.9"/>
<defs>
<linearGradient id="paint0_linear_19_116" x1="-2.49988" y1="-8.71889" x2="62.6378" y2="39.1025" gradientUnits="userSpaceOnUse">
<stop stop-color="#FF00E5"/>
<stop offset="1" stop-color="#0094FF"/>
</linearGradient>
</defs>
</svg>
