<svg width="67" height="50" viewBox="0 0 67 50" fill="none" xmlns="http://www.w3.org/2000/svg">
<path d="M54.8847 0.441415C54.8847 0.441415 60.4352 -1.72287 59.9726 3.53326C59.8185 5.69758 58.4309 13.2726 57.3516 21.466L53.6513 45.737C53.6513 45.737 53.343 49.2926 50.5677 49.911C47.7925 50.5293 43.6297 47.7467 42.8587 47.1283C42.242 46.6646 31.2954 39.7079 27.4409 36.3069C26.3616 35.3793 25.1282 33.5242 27.595 31.3599L43.7839 15.9007C45.634 14.0456 47.4842 9.717 39.7752 14.9732L18.1902 29.6594C18.1902 29.6594 15.7233 31.2053 11.098 29.814L1.07632 26.7222C1.07632 26.7222 -2.62399 24.4033 3.69736 22.0843C19.1153 14.8184 38.0793 7.398 54.8847 0.441415Z" fill="url(#paint0_linear_53_2)" fill-opacity="0.9"/>
<defs>
<linearGradient id="paint0_linear_53_2" x1="-2.49988" y1="-7.50013" x2="55.4998" y2="42.0002" gradientUnits="userSpaceOnUse">
<stop stop-color="#FF00E5"/>
<stop offset="1" stop-color="#0094FF"/>
</linearGradient>
</defs>
</svg>
