<svg width="60" height="50" viewBox="0 0 60 50" fill="none" xmlns="http://www.w3.org/2000/svg">
<path d="M58.6402 5.66921C57.6976 6.08727 56.7285 6.44011 55.7383 6.72656C56.9106 5.40076 57.8044 3.84076 58.35 2.13367C58.4724 1.75103 58.3456 1.33219 58.0311 1.08193C57.7169 0.831481 57.2805 0.801481 56.9346 1.00645C54.8317 2.25367 52.563 3.14999 50.1841 3.67412C47.7878 1.33258 44.5331 0 41.1684 0C34.0662 0 28.288 5.77798 28.288 12.88C28.288 13.4394 28.3234 13.9956 28.3935 14.5441C19.5803 13.7703 11.3868 9.43855 5.76041 2.53683C5.55989 2.29083 5.25099 2.15825 4.93473 2.18361C4.61828 2.20838 4.33396 2.38683 4.17409 2.66109C3.03293 4.61921 2.42965 6.85875 2.42965 9.13739C2.42965 12.2409 3.53771 15.1856 5.49506 17.4865C4.8999 17.2803 4.32235 17.0227 3.77113 16.7167C3.47519 16.552 3.11403 16.5545 2.82003 16.7231C2.52584 16.8917 2.34139 17.2017 2.33365 17.5407C2.33229 17.5977 2.33229 17.6548 2.33229 17.7127C2.33229 22.3453 4.82557 26.516 8.6375 28.7893C8.31001 28.7565 7.98272 28.7091 7.65756 28.647C7.32234 28.5829 6.97763 28.7004 6.75157 28.9561C6.52512 29.2116 6.45021 29.5677 6.55454 29.8929C7.9655 34.298 11.5982 37.5382 15.9898 38.5261C12.3474 40.8074 8.18208 42.0024 3.80945 42.0024C2.89706 42.0024 1.97945 41.9488 1.08139 41.8425C0.635265 41.7895 0.208686 42.0529 0.0567505 42.4772C-0.0951845 42.9016 0.0658473 43.3748 0.445394 43.6181C6.06273 47.2198 12.558 49.1236 19.2286 49.1236C32.3423 49.1236 40.5458 42.9397 45.1183 37.7521C50.8203 31.2835 54.0904 22.7215 54.0904 14.2618C54.0904 13.9083 54.085 13.5514 54.0742 13.1957C56.3238 11.5008 58.2606 9.44958 59.8367 7.09198C60.0761 6.73391 60.0502 6.26069 59.7728 5.93108C59.4958 5.60127 59.0342 5.49463 58.6402 5.66921Z" fill="url(#paint0_linear_19_121)" fill-opacity="0.9"/>
<defs>
<linearGradient id="paint0_linear_19_121" x1="-2.49988" y1="-7.36866" x2="54.633" y2="42.2619" gradientUnits="userSpaceOnUse">
<stop stop-color="#FF00E5"/>
<stop offset="1" stop-color="#0094FF"/>
</linearGradient>
</defs>
</svg>
